<?xml version="1.0" encoding="UTF-8" standalone="no"?>
<!DOCTYPE svg PUBLIC "-//W3C//DTD SVG 1.1//EN"
 "http://www.w3.org/Graphics/SVG/1.1/DTD/svg11.dtd">
<!-- Generated by graphviz version 14.1.3 (20260303.0454)
 -->
<!-- Title: CosmologicalStatistics Pages: 1 -->
<svg width="744pt" height="631pt"
 viewBox="0.00 0.00 744.00 631.00" xmlns="http://www.w3.org/2000/svg" xmlns:xlink="http://www.w3.org/1999/xlink">
<g id="graph0" class="graph" transform="scale(1 1) rotate(0) translate(4 626.5)">
<title>CosmologicalStatistics</title>
<polygon fill="white" stroke="none" points="-4,4 -4,-626.5 740,-626.5 740,4 -4,4"/>
<text xml:space="preserve" text-anchor="middle" x="368" y="-606.15" font-family="Helvetica,sans-Serif" font-size="13.00">宇宙学统计方法 知识图</text>
<text xml:space="preserve" text-anchor="middle" x="368" y="-572.4" font-family="Helvetica,sans-Serif" font-size="13.00">箭头读法：A → B [标签] 读作 &quot;A 标签 B&quot;</text>
<text xml:space="preserve" text-anchor="middle" x="368" y="-553.65" font-family="Helvetica,sans-Serif" font-size="13.00">实线=依赖/用于 | 粗实线=属于/推广了 | 虚线=对比</text>
<g id="clust1" class="cluster">
<title>cluster_D1</title>
<polygon fill="#e3f2fd" stroke="#e3f2fd" points="119,-8 119,-200 287,-200 287,-8 119,-8"/>
<text xml:space="preserve" text-anchor="middle" x="203" y="-185.55" font-family="Helvetica,sans-Serif" font-size="11.00">D1 概率论基础</text>
</g>
<g id="clust2" class="cluster">
<title>cluster_D2</title>
<polygon fill="#e8f5e9" stroke="#e8f5e9" points="8,-231.5 8,-469 287,-469 287,-231.5 8,-231.5"/>
<text xml:space="preserve" text-anchor="middle" x="147.5" y="-454.55" font-family="Helvetica,sans-Serif" font-size="11.00">D2 参数估计</text>
</g>
<g id="clust3" class="cluster">
<title>cluster_D3</title>
<polygon fill="#fff3e0" stroke="#fff3e0" points="295,-231.5 295,-469 535,-469 535,-231.5 295,-231.5"/>
<text xml:space="preserve" text-anchor="middle" x="415" y="-454.55" font-family="Helvetica,sans-Serif" font-size="11.00">D3 模型选择与检验</text>
</g>
<g id="clust4" class="cluster">
<title>cluster_D4</title>
<polygon fill="#fce4ec" stroke="#fce4ec" points="543,-97 543,-334.5 728,-334.5 728,-97 543,-97"/>
<text xml:space="preserve" text-anchor="middle" x="635.5" y="-320.05" font-family="Helvetica,sans-Serif" font-size="11.00">D4 宇宙学应用</text>
</g>
<!-- ProbDist -->
<g id="node1" class="node">
<title>ProbDist</title>
<path fill="#bbdefb" stroke="black" d="M176.5,-55.5C176.5,-55.5 139.5,-55.5 139.5,-55.5 133.5,-55.5 127.5,-49.5 127.5,-43.5 127.5,-43.5 127.5,-28 127.5,-28 127.5,-22 133.5,-16 139.5,-16 139.5,-16 176.5,-16 176.5,-16 182.5,-16 188.5,-22 188.5,-28 188.5,-28 188.5,-43.5 188.5,-43.5 188.5,-49.5 182.5,-55.5 176.5,-55.5"/>
<text xml:space="preserve" text-anchor="middle" x="158" y="-41.05" font-family="Helvetica,sans-Serif" font-size="11.00">概率分布</text>
<text xml:space="preserve" text-anchor="middle" x="158" y="-25.3" font-family="Helvetica,sans-Serif" font-size="11.00">(概念)</text>
</g>
<!-- BayesThm -->
<g id="node2" class="node">
<title>BayesThm</title>
<path fill="#bbdefb" stroke="black" d="M267.12,-144.5C267.12,-144.5 218.88,-144.5 218.88,-144.5 212.88,-144.5 206.88,-138.5 206.88,-132.5 206.88,-132.5 206.88,-117 206.88,-117 206.88,-111 212.88,-105 218.88,-105 218.88,-105 267.12,-105 267.12,-105 273.12,-105 279.12,-111 279.12,-117 279.12,-117 279.12,-132.5 279.12,-132.5 279.12,-138.5 273.12,-144.5 267.12,-144.5"/>
<text xml:space="preserve" text-anchor="middle" x="243" y="-130.05" font-family="Helvetica,sans-Serif" font-size="11.00">贝叶斯定理</text>
<text xml:space="preserve" text-anchor="middle" x="243" y="-114.3" font-family="Helvetica,sans-Serif" font-size="11.00">(理论)</text>
</g>
<!-- CondProb -->
<g id="node4" class="node">
<title>CondProb</title>
<path fill="#bbdefb" stroke="black" d="M261.5,-55.5C261.5,-55.5 224.5,-55.5 224.5,-55.5 218.5,-55.5 212.5,-49.5 212.5,-43.5 212.5,-43.5 212.5,-28 212.5,-28 212.5,-22 218.5,-16 224.5,-16 224.5,-16 261.5,-16 261.5,-16 267.5,-16 273.5,-22 273.5,-28 273.5,-28 273.5,-43.5 273.5,-43.5 273.5,-49.5 267.5,-55.5 261.5,-55.5"/>
<text xml:space="preserve" text-anchor="middle" x="243" y="-41.05" font-family="Helvetica,sans-Serif" font-size="11.00">条件概率</text>
<text xml:space="preserve" text-anchor="middle" x="243" y="-25.3" font-family="Helvetica,sans-Serif" font-size="11.00">(概念)</text>
</g>
<!-- BayesThm&#45;&gt;CondProb -->
<g id="edge1" class="edge">
<title>BayesThm&#45;&gt;CondProb</title>
<path fill="none" stroke="black" d="M243,-104.87C243,-93.89 243,-79.78 243,-67.26"/>
<polygon fill="black" stroke="black" points="246.5,-67.4 243,-57.4 239.5,-67.4 246.5,-67.4"/>
<text xml:space="preserve" text-anchor="middle" x="252" y="-78.45" font-family="Helvetica,sans-Serif" font-size="9.00">依赖</text>
</g>
<!-- Likelihood -->
<g id="node3" class="node">
<title>Likelihood</title>
<path fill="#bbdefb" stroke="black" d="M176.5,-144.5C176.5,-144.5 139.5,-144.5 139.5,-144.5 133.5,-144.5 127.5,-138.5 127.5,-132.5 127.5,-132.5 127.5,-117 127.5,-117 127.5,-111 133.5,-105 139.5,-105 139.5,-105 176.5,-105 176.5,-105 182.5,-105 188.5,-111 188.5,-117 188.5,-117 188.5,-132.5 188.5,-132.5 188.5,-138.5 182.5,-144.5 176.5,-144.5"/>
<text xml:space="preserve" text-anchor="middle" x="158" y="-130.05" font-family="Helvetica,sans-Serif" font-size="11.00">似然函数</text>
<text xml:space="preserve" text-anchor="middle" x="158" y="-114.3" font-family="Helvetica,sans-Serif" font-size="11.00">(概念)</text>
</g>
<!-- Likelihood&#45;&gt;ProbDist -->
<g id="edge2" class="edge">
<title>Likelihood&#45;&gt;ProbDist</title>
<path fill="none" stroke="black" d="M158,-104.87C158,-93.89 158,-79.78 158,-67.26"/>
<polygon fill="black" stroke="black" points="161.5,-67.4 158,-57.4 154.5,-67.4 161.5,-67.4"/>
<text xml:space="preserve" text-anchor="middle" x="167" y="-78.45" font-family="Helvetica,sans-Serif" font-size="9.00">依赖</text>
</g>
<!-- MLE -->
<g id="node5" class="node">
<title>MLE</title>
<path fill="#c8e6c9" stroke="black" d="M87.75,-413.5C87.75,-413.5 28.25,-413.5 28.25,-413.5 22.25,-413.5 16.25,-407.5 16.25,-401.5 16.25,-401.5 16.25,-386 16.25,-386 16.25,-380 22.25,-374 28.25,-374 28.25,-374 87.75,-374 87.75,-374 93.75,-374 99.75,-380 99.75,-386 99.75,-386 99.75,-401.5 99.75,-401.5 99.75,-407.5 93.75,-413.5 87.75,-413.5"/>
<text xml:space="preserve" text-anchor="middle" x="58" y="-399.05" font-family="Helvetica,sans-Serif" font-size="11.00">最大似然估计</text>
<text xml:space="preserve" text-anchor="middle" x="58" y="-383.3" font-family="Helvetica,sans-Serif" font-size="11.00">(方法)</text>
</g>
<!-- MLE&#45;&gt;Likelihood -->
<g id="edge5" class="edge">
<title>MLE&#45;&gt;Likelihood</title>
<path fill="none" stroke="black" d="M55.58,-373.53C52.47,-342.41 49.56,-279.63 69,-231.5 81.42,-200.74 106.39,-172.36 126.72,-152.76"/>
<polygon fill="black" stroke="black" points="129.08,-155.34 134,-145.96 124.3,-150.23 129.08,-155.34"/>
<text xml:space="preserve" text-anchor="middle" x="78" y="-257.45" font-family="Helvetica,sans-Serif" font-size="9.00">依赖</text>
</g>
<!-- BayesInf -->
<g id="node6" class="node">
<title>BayesInf</title>
<path fill="#c8e6c9" stroke="black" d="M267.12,-279C267.12,-279 218.88,-279 218.88,-279 212.88,-279 206.88,-273 206.88,-267 206.88,-267 206.88,-251.5 206.88,-251.5 206.88,-245.5 212.88,-239.5 218.88,-239.5 218.88,-239.5 267.12,-239.5 267.12,-239.5 273.12,-239.5 279.12,-245.5 279.12,-251.5 279.12,-251.5 279.12,-267 279.12,-267 279.12,-273 273.12,-279 267.12,-279"/>
<text xml:space="preserve" text-anchor="middle" x="243" y="-264.55" font-family="Helvetica,sans-Serif" font-size="11.00">贝叶斯推断</text>
<text xml:space="preserve" text-anchor="middle" x="243" y="-248.8" font-family="Helvetica,sans-Serif" font-size="11.00">(理论)</text>
</g>
<!-- BayesInf&#45;&gt;BayesThm -->
<g id="edge3" class="edge">
<title>BayesInf&#45;&gt;BayesThm</title>
<path fill="none" stroke="black" d="M243,-239.27C243,-217.52 243,-181.6 243,-155.99"/>
<polygon fill="black" stroke="black" points="246.5,-156.21 243,-146.21 239.5,-156.21 246.5,-156.21"/>
<text xml:space="preserve" text-anchor="middle" x="252" y="-212.95" font-family="Helvetica,sans-Serif" font-size="9.00">依赖</text>
</g>
<!-- BayesInf&#45;&gt;Likelihood -->
<g id="edge4" class="edge">
<title>BayesInf&#45;&gt;Likelihood</title>
<path fill="none" stroke="black" d="M226.97,-239.15C217.98,-228.05 206.84,-213.61 198,-200 188.66,-185.62 179.49,-168.85 172.29,-154.89"/>
<polygon fill="black" stroke="black" points="175.53,-153.54 167.89,-146.2 169.29,-156.7 175.53,-153.54"/>
<text xml:space="preserve" text-anchor="middle" x="222.15" y="-212.95" font-family="Helvetica,sans-Serif" font-size="9.00">依赖</text>
</g>
<!-- MCMC -->
<g id="node7" class="node">
<title>MCMC</title>
<path fill="#c8e6c9" stroke="black" d="M267,-411.75C267,-411.75 237,-411.75 237,-411.75 231,-411.75 225,-405.75 225,-399.75 225,-399.75 225,-387.75 225,-387.75 225,-381.75 231,-375.75 237,-375.75 237,-375.75 267,-375.75 267,-375.75 273,-375.75 279,-381.75 279,-387.75 279,-387.75 279,-399.75 279,-399.75 279,-405.75 273,-411.75 267,-411.75"/>
<text xml:space="preserve" text-anchor="middle" x="252" y="-397.18" font-family="Helvetica,sans-Serif" font-size="11.00">MCMC</text>
<text xml:space="preserve" text-anchor="middle" x="252" y="-385.18" font-family="Helvetica,sans-Serif" font-size="11.00">(方法)</text>
</g>
<!-- MCMC&#45;&gt;BayesInf -->
<g id="edge6" class="edge">
<title>MCMC&#45;&gt;BayesInf</title>
<path fill="none" stroke="black" d="M250.82,-375.43C249.36,-353.89 246.84,-316.78 245.06,-290.5"/>
<polygon fill="black" stroke="black" points="248.57,-290.54 244.4,-280.8 241.58,-291.02 248.57,-290.54"/>
<text xml:space="preserve" text-anchor="middle" x="258.34" y="-347.45" font-family="Helvetica,sans-Serif" font-size="9.00">依赖</text>
</g>
<!-- Fisher -->
<g id="node8" class="node">
<title>Fisher</title>
<path fill="#c8e6c9" stroke="black" d="M177.75,-413.5C177.75,-413.5 130.25,-413.5 130.25,-413.5 124.25,-413.5 118.25,-407.5 118.25,-401.5 118.25,-401.5 118.25,-386 118.25,-386 118.25,-380 124.25,-374 130.25,-374 130.25,-374 177.75,-374 177.75,-374 183.75,-374 189.75,-380 189.75,-386 189.75,-386 189.75,-401.5 189.75,-401.5 189.75,-407.5 183.75,-413.5 177.75,-413.5"/>
<text xml:space="preserve" text-anchor="middle" x="154" y="-399.05" font-family="Helvetica,sans-Serif" font-size="11.00">Fisher 矩阵</text>
<text xml:space="preserve" text-anchor="middle" x="154" y="-383.3" font-family="Helvetica,sans-Serif" font-size="11.00">(方法)</text>
</g>
<!-- MCMC&#45;&gt;Fisher -->
<g id="edge16" class="edge">
<title>MCMC&#45;&gt;Fisher</title>
<path fill="none" stroke="black" stroke-dasharray="5,2" d="M224.51,-393.75C217.37,-393.75 209.46,-393.75 201.6,-393.75"/>
<polygon fill="black" stroke="black" points="201.73,-390.25 191.73,-393.75 201.73,-397.25 201.73,-390.25"/>
<text xml:space="preserve" text-anchor="middle" x="207.38" y="-401.7" font-family="Helvetica,sans-Serif" font-size="9.00">对比</text>
</g>
<!-- ParamEst -->
<g id="node9" class="node">
<title>ParamEst</title>
<path fill="#c8e6c9" stroke="black" d="M176.5,-279C176.5,-279 139.5,-279 139.5,-279 133.5,-279 127.5,-273 127.5,-267 127.5,-267 127.5,-251.5 127.5,-251.5 127.5,-245.5 133.5,-239.5 139.5,-239.5 139.5,-239.5 176.5,-239.5 176.5,-239.5 182.5,-239.5 188.5,-245.5 188.5,-251.5 188.5,-251.5 188.5,-267 188.5,-267 188.5,-273 182.5,-279 176.5,-279"/>
<text xml:space="preserve" text-anchor="middle" x="158" y="-264.55" font-family="Helvetica,sans-Serif" font-size="11.00">参数估计</text>
<text xml:space="preserve" text-anchor="middle" x="158" y="-248.8" font-family="Helvetica,sans-Serif" font-size="11.00">(任务)</text>
</g>
<!-- MCMC&#45;&gt;ParamEst -->
<g id="edge11" class="edge">
<title>MCMC&#45;&gt;ParamEst</title>
<path fill="none" stroke="black" d="M233.72,-375.41C222.61,-364.33 208.59,-349.31 198,-334.5 187.95,-320.45 178.68,-303.59 171.59,-289.49"/>
<polygon fill="black" stroke="black" points="174.82,-288.14 167.28,-280.69 168.54,-291.21 174.82,-288.14"/>
<text xml:space="preserve" text-anchor="middle" x="223.38" y="-347.45" font-family="Helvetica,sans-Serif" font-size="9.00">用于</text>
</g>
<!-- Fisher&#45;&gt;Likelihood -->
<g id="edge7" class="edge">
<title>Fisher&#45;&gt;Likelihood</title>
<path fill="none" stroke="black" d="M129.75,-373.6C118.74,-363.33 106.87,-349.67 101,-334.5 84.48,-291.81 89.8,-275.89 101,-231.5 108.1,-203.35 124.34,-174.54 137.67,-154.12"/>
<polygon fill="black" stroke="black" points="140.41,-156.31 143.09,-146.06 134.6,-152.41 140.41,-156.31"/>
<text xml:space="preserve" text-anchor="middle" x="110" y="-257.45" font-family="Helvetica,sans-Serif" font-size="9.00">依赖</text>
</g>
<!-- Fisher&#45;&gt;ParamEst -->
<g id="edge12" class="edge">
<title>Fisher&#45;&gt;ParamEst</title>
<path fill="none" stroke="black" d="M154.57,-373.77C155.23,-352.02 156.31,-316.1 157.09,-290.49"/>
<polygon fill="black" stroke="black" points="160.58,-290.81 157.38,-280.71 153.58,-290.6 160.58,-290.81"/>
<text xml:space="preserve" text-anchor="middle" x="164.41" y="-347.45" font-family="Helvetica,sans-Serif" font-size="9.00">用于</text>
</g>
<!-- ChiSq -->
<g id="node10" class="node">
<title>ChiSq</title>
<path fill="#ffe0b2" stroke="black" d="M435,-413.5C435,-413.5 405,-413.5 405,-413.5 399,-413.5 393,-407.5 393,-401.5 393,-401.5 393,-386 393,-386 393,-380 399,-374 405,-374 405,-374 435,-374 435,-374 441,-374 447,-380 447,-386 447,-386 447,-401.5 447,-401.5 447,-407.5 441,-413.5 435,-413.5"/>
<text xml:space="preserve" text-anchor="middle" x="420" y="-399.05" font-family="Helvetica,sans-Serif" font-size="11.00">χ² 检验</text>
<text xml:space="preserve" text-anchor="middle" x="420" y="-383.3" font-family="Helvetica,sans-Serif" font-size="11.00">(方法)</text>
</g>
<!-- ModelSel -->
<g id="node13" class="node">
<title>ModelSel</title>
<path fill="#ffe0b2" stroke="black" d="M438.5,-279C438.5,-279 401.5,-279 401.5,-279 395.5,-279 389.5,-273 389.5,-267 389.5,-267 389.5,-251.5 389.5,-251.5 389.5,-245.5 395.5,-239.5 401.5,-239.5 401.5,-239.5 438.5,-239.5 438.5,-239.5 444.5,-239.5 450.5,-245.5 450.5,-251.5 450.5,-251.5 450.5,-267 450.5,-267 450.5,-273 444.5,-279 438.5,-279"/>
<text xml:space="preserve" text-anchor="middle" x="420" y="-264.55" font-family="Helvetica,sans-Serif" font-size="11.00">模型选择</text>
<text xml:space="preserve" text-anchor="middle" x="420" y="-248.8" font-family="Helvetica,sans-Serif" font-size="11.00">(任务)</text>
</g>
<!-- ChiSq&#45;&gt;ModelSel -->
<g id="edge15" class="edge">
<title>ChiSq&#45;&gt;ModelSel</title>
<path fill="none" stroke="black" d="M420,-373.77C420,-352.02 420,-316.1 420,-290.49"/>
<polygon fill="black" stroke="black" points="423.5,-290.71 420,-280.71 416.5,-290.71 423.5,-290.71"/>
<text xml:space="preserve" text-anchor="middle" x="429" y="-347.45" font-family="Helvetica,sans-Serif" font-size="9.00">用于</text>
</g>
<!-- BayesEvidence -->
<g id="node11" class="node">
<title>BayesEvidence</title>
<path fill="#ffe0b2" stroke="black" d="M363.12,-413.5C363.12,-413.5 314.88,-413.5 314.88,-413.5 308.88,-413.5 302.88,-407.5 302.88,-401.5 302.88,-401.5 302.88,-386 302.88,-386 302.88,-380 308.88,-374 314.88,-374 314.88,-374 363.12,-374 363.12,-374 369.12,-374 375.12,-380 375.12,-386 375.12,-386 375.12,-401.5 375.12,-401.5 375.12,-407.5 369.12,-413.5 363.12,-413.5"/>
<text xml:space="preserve" text-anchor="middle" x="339" y="-399.05" font-family="Helvetica,sans-Serif" font-size="11.00">贝叶斯证据</text>
<text xml:space="preserve" text-anchor="middle" x="339" y="-383.3" font-family="Helvetica,sans-Serif" font-size="11.00">(概念)</text>
</g>
<!-- BayesEvidence&#45;&gt;BayesInf -->
<g id="edge8" class="edge">
<title>BayesEvidence&#45;&gt;BayesInf</title>
<path fill="none" stroke="black" d="M322.2,-373.52C312.72,-362.37 300.83,-347.93 291,-334.5 280.28,-319.85 269.22,-302.88 260.42,-288.87"/>
<polygon fill="black" stroke="black" points="263.5,-287.2 255.25,-280.55 257.56,-290.89 263.5,-287.2"/>
<text xml:space="preserve" text-anchor="middle" x="316.51" y="-347.45" font-family="Helvetica,sans-Serif" font-size="9.00">依赖</text>
</g>
<!-- InfoCriteria -->
<g id="node12" class="node">
<title>InfoCriteria</title>
<path fill="#ffe0b2" stroke="black" d="M515.25,-411.75C515.25,-411.75 476.75,-411.75 476.75,-411.75 470.75,-411.75 464.75,-405.75 464.75,-399.75 464.75,-399.75 464.75,-387.75 464.75,-387.75 464.75,-381.75 470.75,-375.75 476.75,-375.75 476.75,-375.75 515.25,-375.75 515.25,-375.75 521.25,-375.75 527.25,-381.75 527.25,-387.75 527.25,-387.75 527.25,-399.75 527.25,-399.75 527.25,-405.75 521.25,-411.75 515.25,-411.75"/>
<text xml:space="preserve" text-anchor="middle" x="496" y="-397.18" font-family="Helvetica,sans-Serif" font-size="11.00">AIC / BIC</text>
<text xml:space="preserve" text-anchor="middle" x="496" y="-385.18" font-family="Helvetica,sans-Serif" font-size="11.00">(方法)</text>
</g>
<!-- BayesEvidence&#45;&gt;InfoCriteria -->
<g id="edge17" class="edge">
<title>BayesEvidence&#45;&gt;InfoCriteria</title>
<path fill="none" stroke="black" stroke-dasharray="5,2" d="M345.24,-413.83C351.83,-431.18 364.06,-455.16 384,-466.25 411.96,-481.81 428.44,-482.52 456,-466.25 471.99,-456.81 482.03,-438.43 488.05,-422.55"/>
<polygon fill="black" stroke="black" points="491.22,-424.11 491.11,-413.52 484.59,-421.86 491.22,-424.11"/>
<text xml:space="preserve" text-anchor="middle" x="420" y="-481.95" font-family="Helvetica,sans-Serif" font-size="9.00">对比</text>
</g>
<!-- BayesEvidence&#45;&gt;ModelSel -->
<g id="edge13" class="edge">
<title>BayesEvidence&#45;&gt;ModelSel</title>
<path fill="none" stroke="black" d="M350.61,-373.77C364.2,-351.53 386.85,-314.47 402.56,-288.77"/>
<polygon fill="black" stroke="black" points="405.4,-290.85 407.63,-280.49 399.42,-287.2 405.4,-290.85"/>
<text xml:space="preserve" text-anchor="middle" x="376.51" y="-347.45" font-family="Helvetica,sans-Serif" font-size="9.00">用于</text>
</g>
<!-- InfoCriteria&#45;&gt;ModelSel -->
<g id="edge14" class="edge">
<title>InfoCriteria&#45;&gt;ModelSel</title>
<path fill="none" stroke="black" d="M486.06,-375.43C473.49,-353.51 451.65,-315.43 436.54,-289.09"/>
<polygon fill="black" stroke="black" points="439.69,-287.54 431.67,-280.6 433.61,-291.02 439.69,-287.54"/>
<text xml:space="preserve" text-anchor="middle" x="482.54" y="-347.45" font-family="Helvetica,sans-Serif" font-size="9.00">用于</text>
</g>
<!-- PowerSpecLik -->
<g id="node14" class="node">
<title>PowerSpecLik</title>
<path fill="#f8bbd0" stroke="black" d="M611.12,-279C611.12,-279 562.88,-279 562.88,-279 556.88,-279 550.88,-273 550.88,-267 550.88,-267 550.88,-251.5 550.88,-251.5 550.88,-245.5 556.88,-239.5 562.88,-239.5 562.88,-239.5 611.12,-239.5 611.12,-239.5 617.12,-239.5 623.12,-245.5 623.12,-251.5 623.12,-251.5 623.12,-267 623.12,-267 623.12,-273 617.12,-279 611.12,-279"/>
<text xml:space="preserve" text-anchor="middle" x="587" y="-264.55" font-family="Helvetica,sans-Serif" font-size="11.00">功率谱似然</text>
<text xml:space="preserve" text-anchor="middle" x="587" y="-248.8" font-family="Helvetica,sans-Serif" font-size="11.00">(方法)</text>
</g>
<!-- PowerSpecLik&#45;&gt;Likelihood -->
<g id="edge9" class="edge">
<title>PowerSpecLik&#45;&gt;Likelihood</title>
<path fill="none" stroke="black" d="M557.13,-239.13C551.3,-236.12 545.11,-233.39 539,-231.5 529.91,-228.69 205.93,-205.25 198,-200 182.42,-189.7 172.44,-171.22 166.34,-155.28"/>
<polygon fill="black" stroke="black" points="169.78,-154.53 163.21,-146.22 163.16,-156.81 169.78,-154.53"/>
<text xml:space="preserve" text-anchor="middle" x="435.85" y="-212.95" font-family="Helvetica,sans-Serif" font-size="9.00">依赖</text>
</g>
<!-- CovMatrix -->
<g id="node15" class="node">
<title>CovMatrix</title>
<path fill="#f8bbd0" stroke="black" d="M611.12,-144.5C611.12,-144.5 562.88,-144.5 562.88,-144.5 556.88,-144.5 550.88,-138.5 550.88,-132.5 550.88,-132.5 550.88,-117 550.88,-117 550.88,-111 556.88,-105 562.88,-105 562.88,-105 611.12,-105 611.12,-105 617.12,-105 623.12,-111 623.12,-117 623.12,-117 623.12,-132.5 623.12,-132.5 623.12,-138.5 617.12,-144.5 611.12,-144.5"/>
<text xml:space="preserve" text-anchor="middle" x="587" y="-130.05" font-family="Helvetica,sans-Serif" font-size="11.00">协方差矩阵</text>
<text xml:space="preserve" text-anchor="middle" x="587" y="-114.3" font-family="Helvetica,sans-Serif" font-size="11.00">(概念)</text>
</g>
<!-- PowerSpecLik&#45;&gt;CovMatrix -->
<g id="edge10" class="edge">
<title>PowerSpecLik&#45;&gt;CovMatrix</title>
<path fill="none" stroke="black" d="M587,-239.27C587,-217.52 587,-181.6 587,-155.99"/>
<polygon fill="black" stroke="black" points="590.5,-156.21 587,-146.21 583.5,-156.21 590.5,-156.21"/>
<text xml:space="preserve" text-anchor="middle" x="596" y="-212.95" font-family="Helvetica,sans-Serif" font-size="9.00">依赖</text>
</g>
<!-- ResultInterp -->
<g id="node16" class="node">
<title>ResultInterp</title>
<path fill="#f8bbd0" stroke="black" d="M707.5,-279C707.5,-279 670.5,-279 670.5,-279 664.5,-279 658.5,-273 658.5,-267 658.5,-267 658.5,-251.5 658.5,-251.5 658.5,-245.5 664.5,-239.5 670.5,-239.5 670.5,-239.5 707.5,-239.5 707.5,-239.5 713.5,-239.5 719.5,-245.5 719.5,-251.5 719.5,-251.5 719.5,-267 719.5,-267 719.5,-273 713.5,-279 707.5,-279"/>
<text xml:space="preserve" text-anchor="middle" x="689" y="-264.55" font-family="Helvetica,sans-Serif" font-size="11.00">结果解读</text>
<text xml:space="preserve" text-anchor="middle" x="689" y="-248.8" font-family="Helvetica,sans-Serif" font-size="11.00">(任务)</text>
</g>
<!-- PowerSpecLik&#45;&gt;ResultInterp -->
<g id="edge18" class="edge">
<title>PowerSpecLik&#45;&gt;ResultInterp</title>
<path fill="none" stroke="black" stroke-width="2" d="M623.54,-259.25C630.52,-259.25 637.9,-259.25 645.09,-259.25"/>
<polygon fill="black" stroke="black" stroke-width="2" points="645.08,-262.75 655.08,-259.25 645.08,-255.75 645.08,-262.75"/>
<text xml:space="preserve" text-anchor="middle" x="640.81" y="-267.2" font-family="Helvetica,sans-Serif" font-size="9.00">属于</text>
</g>
</g>
</svg>
