<?xml version="1.0" encoding="UTF-8" standalone="no"?>
<!DOCTYPE svg PUBLIC "-//W3C//DTD SVG 1.1//EN"
 "http://www.w3.org/Graphics/SVG/1.1/DTD/svg11.dtd">
<!-- Generated by graphviz version 14.1.3 (20260303.0454)
 -->
<!-- Title: BuddhismKnowledgeGraph Pages: 1 -->
<svg width="771pt" height="817pt"
 viewBox="0.00 0.00 771.00 817.00" xmlns="http://www.w3.org/2000/svg" xmlns:xlink="http://www.w3.org/1999/xlink">
<g id="graph0" class="graph" transform="scale(1 1) rotate(0) translate(4 812.5)">
<title>BuddhismKnowledgeGraph</title>
<polygon fill="white" stroke="none" points="-4,4 -4,-812.5 767.25,-812.5 767.25,4 -4,4"/>
<g id="clust1" class="cluster">
<title>cluster_legend</title>
<polygon fill="none" stroke="#b3b3b3" stroke-dasharray="5,2" points="8,-579.25 8,-791.25 342,-791.25 342,-579.25 8,-579.25"/>
<text xml:space="preserve" text-anchor="middle" x="175" y="-775.85" font-family="Helvetica,sans-Serif" font-size="12.00">关系图例</text>
</g>
<g id="clust2" class="cluster">
<title>cluster_D1</title>
<polygon fill="#e8f5e9" stroke="#e8f5e9" points="422,-8 422,-200.25 717,-200.25 717,-8 422,-8"/>
<text xml:space="preserve" text-anchor="middle" x="569.5" y="-182.95" font-family="Helvetica,sans-Serif" font-size="14.00">D1 历史脉络</text>
</g>
<g id="clust3" class="cluster">
<title>cluster_D2</title>
<polygon fill="#e3f2fd" stroke="#e3f2fd" points="350,-233.25 350,-665.75 492,-665.75 492,-233.25 350,-233.25"/>
<text xml:space="preserve" text-anchor="middle" x="421" y="-648.45" font-family="Helvetica,sans-Serif" font-size="14.00">D2 核心教义</text>
</g>
<g id="clust4" class="cluster">
<title>cluster_D3</title>
<polygon fill="#fff3e0" stroke="#fff3e0" points="500,-473.5 500,-800.5 709,-800.5 709,-473.5 500,-473.5"/>
<text xml:space="preserve" text-anchor="middle" x="604.5" y="-783.2" font-family="Helvetica,sans-Serif" font-size="14.00">D3 哲学流派</text>
</g>
<g id="clust5" class="cluster">
<title>cluster_D4</title>
<polygon fill="#fce4ec" stroke="#fce4ec" points="500,-233.25 500,-425.5 743,-425.5 743,-233.25 500,-233.25"/>
<text xml:space="preserve" text-anchor="middle" x="621.5" y="-408.2" font-family="Helvetica,sans-Serif" font-size="14.00">D4 经典文献</text>
</g>
<!-- leg_dep1 -->
<!-- leg_dep2 -->
<!-- leg_dep1&#45;&gt;leg_dep2 -->
<g id="edge1" class="edge">
<title>leg_dep1&#45;&gt;leg_dep2</title>
<path fill="none" stroke="black" d="M34,-721.65C34,-699.58 34,-661.19 34,-634.79"/>
<polygon fill="black" stroke="black" points="37.5,-635.12 34,-625.12 30.5,-635.12 37.5,-635.12"/>
<text xml:space="preserve" text-anchor="middle" x="53.12" y="-690.15" font-family="Helvetica,sans-Serif" font-size="8.00">依赖</text>
<text xml:space="preserve" text-anchor="middle" x="53.12" y="-678.15" font-family="Helvetica,sans-Serif" font-size="8.00">(A 依赖 B)</text>
</g>
<!-- leg_isa1 -->
<!-- leg_isa2 -->
<!-- leg_isa1&#45;&gt;leg_isa2 -->
<g id="edge2" class="edge">
<title>leg_isa1&#45;&gt;leg_isa2</title>
<path fill="none" stroke="black" stroke-width="2" d="M95,-721.65C95,-700.08 95,-662.92 95,-636.6"/>
<polygon fill="black" stroke="black" stroke-width="2" points="98.5,-636.64 95,-626.64 91.5,-636.64 98.5,-636.64"/>
<text xml:space="preserve" text-anchor="middle" x="118.25" y="-690.15" font-family="Helvetica,sans-Serif" font-size="8.00">是一种</text>
<text xml:space="preserve" text-anchor="middle" x="118.25" y="-678.15" font-family="Helvetica,sans-Serif" font-size="8.00">(A 是一种 B)</text>
</g>
<!-- leg_gen1 -->
<!-- leg_gen2 -->
<!-- leg_gen1&#45;&gt;leg_gen2 -->
<g id="edge3" class="edge">
<title>leg_gen1&#45;&gt;leg_gen2</title>
<path fill="none" stroke="black" stroke-width="2" d="M165,-721.65C165,-700.08 165,-662.92 165,-636.6"/>
<polygon fill="black" stroke="black" stroke-width="2" points="168.5,-636.64 165,-626.64 161.5,-636.64 168.5,-636.64"/>
<text xml:space="preserve" text-anchor="middle" x="188.25" y="-690.15" font-family="Helvetica,sans-Serif" font-size="8.00">推广了</text>
<text xml:space="preserve" text-anchor="middle" x="188.25" y="-678.15" font-family="Helvetica,sans-Serif" font-size="8.00">(A 推广了 B)</text>
</g>
<!-- leg_use1 -->
<!-- leg_use2 -->
<!-- leg_use1&#45;&gt;leg_use2 -->
<g id="edge4" class="edge">
<title>leg_use1&#45;&gt;leg_use2</title>
<path fill="none" stroke="black" stroke-width="2" d="M235,-721.65C235,-700.08 235,-662.92 235,-636.6"/>
<polygon fill="black" stroke="black" stroke-width="2" points="238.5,-636.64 235,-626.64 231.5,-636.64 238.5,-636.64"/>
<text xml:space="preserve" text-anchor="middle" x="254.12" y="-690.15" font-family="Helvetica,sans-Serif" font-size="8.00">属于</text>
<text xml:space="preserve" text-anchor="middle" x="254.12" y="-678.15" font-family="Helvetica,sans-Serif" font-size="8.00">(A 属于 B)</text>
</g>
<!-- leg_comp1 -->
<!-- leg_comp2 -->
<!-- leg_comp1&#45;&gt;leg_comp2 -->
<g id="edge5" class="edge">
<title>leg_comp1&#45;&gt;leg_comp2</title>
<path fill="none" stroke="black" stroke-dasharray="5,2" d="M296,-710.46C296,-688.19 296,-657.38 296,-635.04"/>
<polygon fill="black" stroke="black" points="292.5,-710.13 296,-720.13 299.5,-710.13 292.5,-710.13"/>
<polygon fill="black" stroke="black" points="299.5,-635.12 296,-625.12 292.5,-635.12 299.5,-635.12"/>
<text xml:space="preserve" text-anchor="middle" x="315.12" y="-690.15" font-family="Helvetica,sans-Serif" font-size="8.00">对比</text>
<text xml:space="preserve" text-anchor="middle" x="315.12" y="-678.15" font-family="Helvetica,sans-Serif" font-size="8.00">(A 对比 B)</text>
</g>
<!-- buddha -->
<g id="node11" class="node">
<title>buddha</title>
<path fill="#a5d6a7" stroke="black" d="M472,-164C472,-164 442,-164 442,-164 436,-164 430,-158 430,-152 430,-152 430,-127.5 430,-127.5 430,-121.5 436,-115.5 442,-115.5 442,-115.5 472,-115.5 472,-115.5 478,-115.5 484,-121.5 484,-127.5 484,-127.5 484,-152 484,-152 484,-158 478,-164 472,-164"/>
<text xml:space="preserve" text-anchor="middle" x="457" y="-146.7" font-family="Helvetica,sans-Serif" font-size="14.00">佛陀</text>
<text xml:space="preserve" text-anchor="middle" x="457" y="-126.45" font-family="Helvetica,sans-Serif" font-size="14.00">(概念)</text>
</g>
<!-- ancient_india -->
<g id="node12" class="node">
<title>ancient_india</title>
<path fill="#a5d6a7" stroke="black" d="M505.62,-64.5C505.62,-64.5 442.38,-64.5 442.38,-64.5 436.38,-64.5 430.38,-58.5 430.38,-52.5 430.38,-52.5 430.38,-28 430.38,-28 430.38,-22 436.38,-16 442.38,-16 442.38,-16 505.62,-16 505.62,-16 511.62,-16 517.62,-22 517.62,-28 517.62,-28 517.62,-52.5 517.62,-52.5 517.62,-58.5 511.62,-64.5 505.62,-64.5"/>
<text xml:space="preserve" text-anchor="middle" x="474" y="-47.2" font-family="Helvetica,sans-Serif" font-size="14.00">古印度思想</text>
<text xml:space="preserve" text-anchor="middle" x="474" y="-26.95" font-family="Helvetica,sans-Serif" font-size="14.00">(概念)</text>
</g>
<!-- buddha&#45;&gt;ancient_india -->
<g id="edge6" class="edge">
<title>buddha&#45;&gt;ancient_india</title>
<path fill="none" stroke="black" d="M461.12,-115.15C463.15,-103.5 465.64,-89.21 467.89,-76.31"/>
<polygon fill="black" stroke="black" points="471.33,-76.92 469.6,-66.46 464.44,-75.71 471.33,-76.92"/>
<text xml:space="preserve" text-anchor="middle" x="477.02" y="-88" font-family="Helvetica,sans-Serif" font-size="10.00">依赖</text>
</g>
<!-- ashoka -->
<g id="node13" class="node">
<title>ashoka</title>
<path fill="#a5d6a7" stroke="black" d="M577.62,-164C577.62,-164 514.38,-164 514.38,-164 508.38,-164 502.38,-158 502.38,-152 502.38,-152 502.38,-127.5 502.38,-127.5 502.38,-121.5 508.38,-115.5 514.38,-115.5 514.38,-115.5 577.62,-115.5 577.62,-115.5 583.62,-115.5 589.62,-121.5 589.62,-127.5 589.62,-127.5 589.62,-152 589.62,-152 589.62,-158 583.62,-164 577.62,-164"/>
<text xml:space="preserve" text-anchor="middle" x="546" y="-146.7" font-family="Helvetica,sans-Serif" font-size="14.00">阿育王护法</text>
<text xml:space="preserve" text-anchor="middle" x="546" y="-126.45" font-family="Helvetica,sans-Serif" font-size="14.00">(概念)</text>
</g>
<!-- silk_road -->
<g id="node14" class="node">
<title>silk_road</title>
<path fill="#a5d6a7" stroke="black" d="M696.75,-164C696.75,-164 619.25,-164 619.25,-164 613.25,-164 607.25,-158 607.25,-152 607.25,-152 607.25,-127.5 607.25,-127.5 607.25,-121.5 613.25,-115.5 619.25,-115.5 619.25,-115.5 696.75,-115.5 696.75,-115.5 702.75,-115.5 708.75,-121.5 708.75,-127.5 708.75,-127.5 708.75,-152 708.75,-152 708.75,-158 702.75,-164 696.75,-164"/>
<text xml:space="preserve" text-anchor="middle" x="658" y="-146.7" font-family="Helvetica,sans-Serif" font-size="14.00">丝绸之路传播</text>
<text xml:space="preserve" text-anchor="middle" x="658" y="-126.45" font-family="Helvetica,sans-Serif" font-size="14.00">(概念)</text>
</g>
<!-- four_truths -->
<g id="node15" class="node">
<title>four_truths</title>
<path fill="#90caf9" stroke="black" d="M472,-289.75C472,-289.75 442,-289.75 442,-289.75 436,-289.75 430,-283.75 430,-277.75 430,-277.75 430,-253.25 430,-253.25 430,-247.25 436,-241.25 442,-241.25 442,-241.25 472,-241.25 472,-241.25 478,-241.25 484,-247.25 484,-253.25 484,-253.25 484,-277.75 484,-277.75 484,-283.75 478,-289.75 472,-289.75"/>
<text xml:space="preserve" text-anchor="middle" x="457" y="-272.45" font-family="Helvetica,sans-Serif" font-size="14.00">四谛</text>
<text xml:space="preserve" text-anchor="middle" x="457" y="-252.2" font-family="Helvetica,sans-Serif" font-size="14.00">(理论)</text>
</g>
<!-- four_truths&#45;&gt;buddha -->
<g id="edge7" class="edge">
<title>four_truths&#45;&gt;buddha</title>
<path fill="none" stroke="black" d="M457,-240.93C457,-222.44 457,-196.42 457,-175.53"/>
<polygon fill="black" stroke="black" points="460.5,-175.74 457,-165.74 453.5,-175.74 460.5,-175.74"/>
<text xml:space="preserve" text-anchor="middle" x="467.5" y="-213.75" font-family="Helvetica,sans-Serif" font-size="10.00">依赖</text>
</g>
<!-- dependent_orig -->
<g id="node16" class="node">
<title>dependent_orig</title>
<path fill="#90caf9" stroke="black" d="M472,-389.25C472,-389.25 442,-389.25 442,-389.25 436,-389.25 430,-383.25 430,-377.25 430,-377.25 430,-352.75 430,-352.75 430,-346.75 436,-340.75 442,-340.75 442,-340.75 472,-340.75 472,-340.75 478,-340.75 484,-346.75 484,-352.75 484,-352.75 484,-377.25 484,-377.25 484,-383.25 478,-389.25 472,-389.25"/>
<text xml:space="preserve" text-anchor="middle" x="457" y="-371.95" font-family="Helvetica,sans-Serif" font-size="14.00">缘起</text>
<text xml:space="preserve" text-anchor="middle" x="457" y="-351.7" font-family="Helvetica,sans-Serif" font-size="14.00">(理论)</text>
</g>
<!-- dependent_orig&#45;&gt;four_truths -->
<g id="edge8" class="edge">
<title>dependent_orig&#45;&gt;four_truths</title>
<path fill="none" stroke="black" d="M457,-340.4C457,-328.75 457,-314.46 457,-301.56"/>
<polygon fill="black" stroke="black" points="460.5,-301.74 457,-291.74 453.5,-301.74 460.5,-301.74"/>
<text xml:space="preserve" text-anchor="middle" x="467.5" y="-313.25" font-family="Helvetica,sans-Serif" font-size="10.00">依赖</text>
</g>
<!-- anatman -->
<g id="node17" class="node">
<title>anatman</title>
<path fill="#90caf9" stroke="black" d="M472,-530C472,-530 442,-530 442,-530 436,-530 430,-524 430,-518 430,-518 430,-493.5 430,-493.5 430,-487.5 436,-481.5 442,-481.5 442,-481.5 472,-481.5 472,-481.5 478,-481.5 484,-487.5 484,-493.5 484,-493.5 484,-518 484,-518 484,-524 478,-530 472,-530"/>
<text xml:space="preserve" text-anchor="middle" x="457" y="-512.7" font-family="Helvetica,sans-Serif" font-size="14.00">无我</text>
<text xml:space="preserve" text-anchor="middle" x="457" y="-492.45" font-family="Helvetica,sans-Serif" font-size="14.00">(概念)</text>
</g>
<!-- anatman&#45;&gt;dependent_orig -->
<g id="edge9" class="edge">
<title>anatman&#45;&gt;dependent_orig</title>
<path fill="none" stroke="black" d="M457,-481.21C457,-459.19 457,-426 457,-400.9"/>
<polygon fill="black" stroke="black" points="460.5,-401.17 457,-391.17 453.5,-401.17 460.5,-401.17"/>
<text xml:space="preserve" text-anchor="middle" x="467.5" y="-446.5" font-family="Helvetica,sans-Serif" font-size="10.00">依赖</text>
</g>
<!-- nirvana -->
<g id="node18" class="node">
<title>nirvana</title>
<path fill="#90caf9" stroke="black" d="M400,-389.25C400,-389.25 370,-389.25 370,-389.25 364,-389.25 358,-383.25 358,-377.25 358,-377.25 358,-352.75 358,-352.75 358,-346.75 364,-340.75 370,-340.75 370,-340.75 400,-340.75 400,-340.75 406,-340.75 412,-346.75 412,-352.75 412,-352.75 412,-377.25 412,-377.25 412,-383.25 406,-389.25 400,-389.25"/>
<text xml:space="preserve" text-anchor="middle" x="385" y="-371.95" font-family="Helvetica,sans-Serif" font-size="14.00">涅槃</text>
<text xml:space="preserve" text-anchor="middle" x="385" y="-351.7" font-family="Helvetica,sans-Serif" font-size="14.00">(概念)</text>
</g>
<!-- nirvana&#45;&gt;four_truths -->
<g id="edge11" class="edge">
<title>nirvana&#45;&gt;four_truths</title>
<path fill="none" stroke="black" stroke-width="2" d="M402.43,-340.4C411.3,-328.39 422.23,-313.58 431.98,-300.38"/>
<polygon fill="black" stroke="black" stroke-width="2" points="434.56,-302.78 437.68,-292.66 428.93,-298.62 434.56,-302.78"/>
<text xml:space="preserve" text-anchor="middle" x="435.81" y="-313.25" font-family="Helvetica,sans-Serif" font-size="10.00">属于</text>
</g>
<!-- five_skandhas -->
<g id="node19" class="node">
<title>five_skandhas</title>
<path fill="#90caf9" stroke="black" d="M472,-629.5C472,-629.5 442,-629.5 442,-629.5 436,-629.5 430,-623.5 430,-617.5 430,-617.5 430,-593 430,-593 430,-587 436,-581 442,-581 442,-581 472,-581 472,-581 478,-581 484,-587 484,-593 484,-593 484,-617.5 484,-617.5 484,-623.5 478,-629.5 472,-629.5"/>
<text xml:space="preserve" text-anchor="middle" x="457" y="-612.2" font-family="Helvetica,sans-Serif" font-size="14.00">五蕴</text>
<text xml:space="preserve" text-anchor="middle" x="457" y="-591.95" font-family="Helvetica,sans-Serif" font-size="14.00">(概念)</text>
</g>
<!-- five_skandhas&#45;&gt;anatman -->
<g id="edge10" class="edge">
<title>five_skandhas&#45;&gt;anatman</title>
<path fill="none" stroke="black" stroke-width="2" d="M457,-580.65C457,-569.47 457,-555.87 457,-543.4"/>
<polygon fill="black" stroke="black" stroke-width="2" points="460.5,-543.5 457,-533.5 453.5,-543.5 460.5,-543.5"/>
<text xml:space="preserve" text-anchor="middle" x="467.5" y="-553.5" font-family="Helvetica,sans-Serif" font-size="10.00">属于</text>
</g>
<!-- abhidharma -->
<g id="node20" class="node">
<title>abhidharma</title>
<path fill="#ffcc80" stroke="black" d="M641.5,-530C641.5,-530 592.5,-530 592.5,-530 586.5,-530 580.5,-524 580.5,-518 580.5,-518 580.5,-493.5 580.5,-493.5 580.5,-487.5 586.5,-481.5 592.5,-481.5 592.5,-481.5 641.5,-481.5 641.5,-481.5 647.5,-481.5 653.5,-487.5 653.5,-493.5 653.5,-493.5 653.5,-518 653.5,-518 653.5,-524 647.5,-530 641.5,-530"/>
<text xml:space="preserve" text-anchor="middle" x="617" y="-512.7" font-family="Helvetica,sans-Serif" font-size="14.00">阿毗达磨</text>
<text xml:space="preserve" text-anchor="middle" x="617" y="-492.45" font-family="Helvetica,sans-Serif" font-size="14.00">(理论)</text>
</g>
<!-- abhidharma&#45;&gt;dependent_orig -->
<g id="edge12" class="edge">
<title>abhidharma&#45;&gt;dependent_orig</title>
<path fill="none" stroke="black" stroke-width="2" d="M582.41,-481.1C578.57,-478.52 574.71,-475.95 571,-473.5 537.96,-451.71 524.14,-453.33 496,-425.5 488.59,-418.17 481.83,-409.21 476.09,-400.49"/>
<polygon fill="black" stroke="black" stroke-width="2" points="479.25,-398.93 471,-392.28 473.3,-402.62 479.25,-398.93"/>
<text xml:space="preserve" text-anchor="middle" x="568.96" y="-454" font-family="Helvetica,sans-Serif" font-size="10.00">是一种</text>
<text xml:space="preserve" text-anchor="middle" x="568.96" y="-439" font-family="Helvetica,sans-Serif" font-size="10.00">诠释</text>
</g>
<!-- madhyamaka -->
<g id="node21" class="node">
<title>madhyamaka</title>
<path fill="#ffcc80" stroke="black" d="M627,-629.5C627,-629.5 597,-629.5 597,-629.5 591,-629.5 585,-623.5 585,-617.5 585,-617.5 585,-593 585,-593 585,-587 591,-581 597,-581 597,-581 627,-581 627,-581 633,-581 639,-587 639,-593 639,-593 639,-617.5 639,-617.5 639,-623.5 633,-629.5 627,-629.5"/>
<text xml:space="preserve" text-anchor="middle" x="612" y="-612.2" font-family="Helvetica,sans-Serif" font-size="14.00">中观</text>
<text xml:space="preserve" text-anchor="middle" x="612" y="-591.95" font-family="Helvetica,sans-Serif" font-size="14.00">(理论)</text>
</g>
<!-- madhyamaka&#45;&gt;abhidharma -->
<g id="edge13" class="edge">
<title>madhyamaka&#45;&gt;abhidharma</title>
<path fill="none" stroke="black" stroke-width="2" d="M613.21,-580.65C613.78,-569.47 614.48,-555.87 615.12,-543.4"/>
<polygon fill="black" stroke="black" stroke-width="2" points="618.61,-543.66 615.63,-533.5 611.62,-543.3 618.61,-543.66"/>
<text xml:space="preserve" text-anchor="middle" x="630.55" y="-553.5" font-family="Helvetica,sans-Serif" font-size="10.00">推广了</text>
</g>
<!-- yogacara -->
<g id="node22" class="node">
<title>yogacara</title>
<path fill="#ffcc80" stroke="black" d="M550,-530C550,-530 520,-530 520,-530 514,-530 508,-524 508,-518 508,-518 508,-493.5 508,-493.5 508,-487.5 514,-481.5 520,-481.5 520,-481.5 550,-481.5 550,-481.5 556,-481.5 562,-487.5 562,-493.5 562,-493.5 562,-518 562,-518 562,-524 556,-530 550,-530"/>
<text xml:space="preserve" text-anchor="middle" x="535" y="-512.7" font-family="Helvetica,sans-Serif" font-size="14.00">唯识</text>
<text xml:space="preserve" text-anchor="middle" x="535" y="-492.45" font-family="Helvetica,sans-Serif" font-size="14.00">(理论)</text>
</g>
<!-- madhyamaka&#45;&gt;yogacara -->
<g id="edge15" class="edge">
<title>madhyamaka&#45;&gt;yogacara</title>
<path fill="none" stroke="black" stroke-dasharray="5,2" d="M586.27,-571.67C578.04,-561.25 568.93,-549.71 560.7,-539.29"/>
<polygon fill="black" stroke="black" points="583.48,-573.78 592.42,-579.46 588.97,-569.44 583.48,-573.78"/>
<polygon fill="black" stroke="black" points="563.62,-537.34 554.67,-531.66 558.12,-541.68 563.62,-537.34"/>
<text xml:space="preserve" text-anchor="middle" x="588.61" y="-553.5" font-family="Helvetica,sans-Serif" font-size="10.00">对比</text>
</g>
<!-- yogacara&#45;&gt;madhyamaka -->
<g id="edge14" class="edge">
<title>yogacara&#45;&gt;madhyamaka</title>
<path fill="none" stroke="black" stroke-width="2" d="M562.35,-525.29C565.53,-527.03 568.78,-528.65 572,-530 603.6,-543.3 625.78,-521.08 647,-548 652.68,-555.2 651.42,-563.38 647,-571.22"/>
<polygon fill="black" stroke="black" stroke-width="2" points="644.28,-569.02 641.16,-579.15 649.91,-573.17 644.28,-569.02"/>
<text xml:space="preserve" text-anchor="middle" x="666.55" y="-553.5" font-family="Helvetica,sans-Serif" font-size="10.00">推广了</text>
</g>
<!-- tathagatagarbha -->
<g id="node23" class="node">
<title>tathagatagarbha</title>
<path fill="#ffcc80" stroke="black" d="M554.38,-629.5C554.38,-629.5 519.62,-629.5 519.62,-629.5 513.62,-629.5 507.62,-623.5 507.62,-617.5 507.62,-617.5 507.62,-593 507.62,-593 507.62,-587 513.62,-581 519.62,-581 519.62,-581 554.38,-581 554.38,-581 560.38,-581 566.38,-587 566.38,-593 566.38,-593 566.38,-617.5 566.38,-617.5 566.38,-623.5 560.38,-629.5 554.38,-629.5"/>
<text xml:space="preserve" text-anchor="middle" x="537" y="-612.2" font-family="Helvetica,sans-Serif" font-size="14.00">如来藏</text>
<text xml:space="preserve" text-anchor="middle" x="537" y="-591.95" font-family="Helvetica,sans-Serif" font-size="14.00">(理论)</text>
</g>
<!-- tathagatagarbha&#45;&gt;yogacara -->
<g id="edge19" class="edge">
<title>tathagatagarbha&#45;&gt;yogacara</title>
<path fill="none" stroke="black" d="M530.31,-580.87C528.94,-575.08 527.7,-568.85 527,-563 526.17,-556.01 526.42,-548.55 527.21,-541.43"/>
<polygon fill="black" stroke="black" points="530.64,-542.16 528.68,-531.75 523.72,-541.12 530.64,-542.16"/>
<text xml:space="preserve" text-anchor="middle" x="537.5" y="-553.5" font-family="Helvetica,sans-Serif" font-size="10.00">依赖</text>
</g>
<!-- chan -->
<g id="node24" class="node">
<title>chan</title>
<path fill="#ffcc80" stroke="black" d="M627,-764.25C627,-764.25 597,-764.25 597,-764.25 591,-764.25 585,-758.25 585,-752.25 585,-752.25 585,-727.75 585,-727.75 585,-721.75 591,-715.75 597,-715.75 597,-715.75 627,-715.75 627,-715.75 633,-715.75 639,-721.75 639,-727.75 639,-727.75 639,-752.25 639,-752.25 639,-758.25 633,-764.25 627,-764.25"/>
<text xml:space="preserve" text-anchor="middle" x="612" y="-746.95" font-family="Helvetica,sans-Serif" font-size="14.00">禅宗</text>
<text xml:space="preserve" text-anchor="middle" x="612" y="-726.7" font-family="Helvetica,sans-Serif" font-size="14.00">(理论)</text>
</g>
<!-- chan&#45;&gt;madhyamaka -->
<g id="edge18" class="edge">
<title>chan&#45;&gt;madhyamaka</title>
<path fill="none" stroke="black" d="M612,-715.27C612,-694.69 612,-664.63 612,-641.29"/>
<polygon fill="black" stroke="black" points="615.5,-641.29 612,-631.29 608.5,-641.29 615.5,-641.29"/>
<text xml:space="preserve" text-anchor="middle" x="622.5" y="-683.75" font-family="Helvetica,sans-Serif" font-size="10.00">依赖</text>
</g>
<!-- pali_canon -->
<g id="node25" class="node">
<title>pali_canon</title>
<path fill="#f48fb1" stroke="black" d="M569.5,-389.25C569.5,-389.25 520.5,-389.25 520.5,-389.25 514.5,-389.25 508.5,-383.25 508.5,-377.25 508.5,-377.25 508.5,-352.75 508.5,-352.75 508.5,-346.75 514.5,-340.75 520.5,-340.75 520.5,-340.75 569.5,-340.75 569.5,-340.75 575.5,-340.75 581.5,-346.75 581.5,-352.75 581.5,-352.75 581.5,-377.25 581.5,-377.25 581.5,-383.25 575.5,-389.25 569.5,-389.25"/>
<text xml:space="preserve" text-anchor="middle" x="545" y="-371.95" font-family="Helvetica,sans-Serif" font-size="14.00">巴利三藏</text>
<text xml:space="preserve" text-anchor="middle" x="545" y="-351.7" font-family="Helvetica,sans-Serif" font-size="14.00">(实验)</text>
</g>
<!-- pali_canon&#45;&gt;four_truths -->
<g id="edge20" class="edge">
<title>pali_canon&#45;&gt;four_truths</title>
<path fill="none" stroke="black" d="M523.7,-340.4C512.32,-327.8 498.16,-312.11 485.82,-298.43"/>
<polygon fill="black" stroke="black" points="488.72,-296.42 479.43,-291.35 483.53,-301.11 488.72,-296.42"/>
<text xml:space="preserve" text-anchor="middle" x="516.77" y="-313.25" font-family="Helvetica,sans-Serif" font-size="10.00">用于</text>
</g>
<!-- prajna_sutras -->
<g id="node26" class="node">
<title>prajna_sutras</title>
<path fill="#f48fb1" stroke="black" d="M646.38,-289.75C646.38,-289.75 611.62,-289.75 611.62,-289.75 605.62,-289.75 599.62,-283.75 599.62,-277.75 599.62,-277.75 599.62,-253.25 599.62,-253.25 599.62,-247.25 605.62,-241.25 611.62,-241.25 611.62,-241.25 646.38,-241.25 646.38,-241.25 652.38,-241.25 658.38,-247.25 658.38,-253.25 658.38,-253.25 658.38,-277.75 658.38,-277.75 658.38,-283.75 652.38,-289.75 646.38,-289.75"/>
<text xml:space="preserve" text-anchor="middle" x="629" y="-272.45" font-family="Helvetica,sans-Serif" font-size="14.00">般若经</text>
<text xml:space="preserve" text-anchor="middle" x="629" y="-252.2" font-family="Helvetica,sans-Serif" font-size="14.00">(实验)</text>
</g>
<!-- prajna_sutras&#45;&gt;madhyamaka -->
<g id="edge16" class="edge">
<title>prajna_sutras&#45;&gt;madhyamaka</title>
<path fill="none" stroke="black" d="M658.76,-276.32C686.44,-287.22 726.04,-307.78 744,-340.75 762.02,-373.83 751.47,-388.58 744,-425.5 730.85,-490.51 730.27,-513.61 686,-563 676.01,-574.15 662.26,-582.95 649.33,-589.52"/>
<polygon fill="black" stroke="black" points="648.13,-586.21 640.58,-593.65 651.12,-592.54 648.13,-586.21"/>
<text xml:space="preserve" text-anchor="middle" x="752.75" y="-446.5" font-family="Helvetica,sans-Serif" font-size="10.00">用于</text>
</g>
<!-- vajra_sutra -->
<g id="node27" class="node">
<title>vajra_sutra</title>
<path fill="#f48fb1" stroke="black" d="M646.38,-389.25C646.38,-389.25 611.62,-389.25 611.62,-389.25 605.62,-389.25 599.62,-383.25 599.62,-377.25 599.62,-377.25 599.62,-352.75 599.62,-352.75 599.62,-346.75 605.62,-340.75 611.62,-340.75 611.62,-340.75 646.38,-340.75 646.38,-340.75 652.38,-340.75 658.38,-346.75 658.38,-352.75 658.38,-352.75 658.38,-377.25 658.38,-377.25 658.38,-383.25 652.38,-389.25 646.38,-389.25"/>
<text xml:space="preserve" text-anchor="middle" x="629" y="-371.95" font-family="Helvetica,sans-Serif" font-size="14.00">金刚经</text>
<text xml:space="preserve" text-anchor="middle" x="629" y="-351.7" font-family="Helvetica,sans-Serif" font-size="14.00">(实验)</text>
</g>
<!-- vajra_sutra&#45;&gt;prajna_sutras -->
<g id="edge17" class="edge">
<title>vajra_sutra&#45;&gt;prajna_sutras</title>
<path fill="none" stroke="black" stroke-width="2" d="M629,-340.4C629,-329.22 629,-315.62 629,-303.15"/>
<polygon fill="black" stroke="black" stroke-width="2" points="632.5,-303.25 629,-293.25 625.5,-303.25 632.5,-303.25"/>
<text xml:space="preserve" text-anchor="middle" x="639.5" y="-313.25" font-family="Helvetica,sans-Serif" font-size="10.00">属于</text>
</g>
<!-- lotus_sutra -->
<g id="node28" class="node">
<title>lotus_sutra</title>
<path fill="#f48fb1" stroke="black" d="M723.38,-389.25C723.38,-389.25 688.62,-389.25 688.62,-389.25 682.62,-389.25 676.62,-383.25 676.62,-377.25 676.62,-377.25 676.62,-352.75 676.62,-352.75 676.62,-346.75 682.62,-340.75 688.62,-340.75 688.62,-340.75 723.38,-340.75 723.38,-340.75 729.38,-340.75 735.38,-346.75 735.38,-352.75 735.38,-352.75 735.38,-377.25 735.38,-377.25 735.38,-383.25 729.38,-389.25 723.38,-389.25"/>
<text xml:space="preserve" text-anchor="middle" x="706" y="-371.95" font-family="Helvetica,sans-Serif" font-size="14.00">法华经</text>
<text xml:space="preserve" text-anchor="middle" x="706" y="-351.7" font-family="Helvetica,sans-Serif" font-size="14.00">(实验)</text>
</g>
</g>
</svg>
