<?xml version="1.0" encoding="UTF-8" standalone="no"?>
<!DOCTYPE svg PUBLIC "-//W3C//DTD SVG 1.1//EN"
 "http://www.w3.org/Graphics/SVG/1.1/DTD/svg11.dtd">
<!-- Generated by graphviz version 14.1.3 (20260303.0454)
 -->
<!-- Title: AnalyticPhilosophyKnowledgeGraph Pages: 1 -->
<svg width="1398pt" height="683pt"
 viewBox="0.00 0.00 1398.00 683.00" xmlns="http://www.w3.org/2000/svg" xmlns:xlink="http://www.w3.org/1999/xlink">
<g id="graph0" class="graph" transform="scale(1 1) rotate(0) translate(4 678.5)">
<title>AnalyticPhilosophyKnowledgeGraph</title>
<polygon fill="white" stroke="none" points="-4,4 -4,-678.5 1394,-678.5 1394,4 -4,4"/>
<g id="clust1" class="cluster">
<title>cluster_legend</title>
<polygon fill="none" stroke="#b3b3b3" stroke-dasharray="5,2" points="8,-367.25 8,-578.25 211,-578.25 211,-367.25 8,-367.25"/>
<text xml:space="preserve" text-anchor="middle" x="109.5" y="-562.85" font-family="Helvetica,sans-Serif" font-size="12.00">关系图例</text>
</g>
<g id="clust2" class="cluster">
<title>cluster_D1</title>
<polygon fill="#e8f5e9" stroke="#e8f5e9" points="513,-8 513,-328 761,-328 761,-8 513,-8"/>
<text xml:space="preserve" text-anchor="middle" x="637" y="-310.7" font-family="Helvetica,sans-Serif" font-size="14.00">D1 历史与方法</text>
</g>
<g id="clust3" class="cluster">
<title>cluster_D2</title>
<polygon fill="#e3f2fd" stroke="#e3f2fd" points="219,-107.5 219,-590.5 505,-590.5 505,-107.5 219,-107.5"/>
<text xml:space="preserve" text-anchor="middle" x="362" y="-573.2" font-family="Helvetica,sans-Serif" font-size="14.00">D2 逻辑与语言</text>
</g>
<g id="clust4" class="cluster">
<title>cluster_D3</title>
<polygon fill="#fff3e0" stroke="#fff3e0" points="809,-361 809,-590.5 1004,-590.5 1004,-361 809,-361"/>
<text xml:space="preserve" text-anchor="middle" x="906.5" y="-573.2" font-family="Helvetica,sans-Serif" font-size="14.00">D3 知识与真理</text>
</g>
<g id="clust5" class="cluster">
<title>cluster_D4</title>
<polygon fill="#fce4ec" stroke="#fce4ec" points="1012,-361 1012,-590.5 1193,-590.5 1193,-361 1012,-361"/>
<text xml:space="preserve" text-anchor="middle" x="1102.5" y="-573.2" font-family="Helvetica,sans-Serif" font-size="14.00">D4 心灵哲学</text>
</g>
<g id="clust6" class="cluster">
<title>cluster_D5</title>
<polygon fill="#f3e5f5" stroke="#f3e5f5" points="1201,-469.5 1201,-590.5 1382,-590.5 1382,-469.5 1201,-469.5"/>
<text xml:space="preserve" text-anchor="middle" x="1291.5" y="-573.2" font-family="Helvetica,sans-Serif" font-size="14.00">D5 形而上学与伦理</text>
</g>
<!-- leg_dep1 -->
<!-- leg_dep2 -->
<!-- leg_dep1&#45;&gt;leg_dep2 -->
<g id="edge1" class="edge">
<title>leg_dep1&#45;&gt;leg_dep2</title>
<path fill="none" stroke="black" d="M34,-483.64C34,-467.36 34,-442.53 34,-423.18"/>
<polygon fill="black" stroke="black" points="37.5,-423.19 34,-413.19 30.5,-423.19 37.5,-423.19"/>
<text xml:space="preserve" text-anchor="middle" x="53.12" y="-451.9" font-family="Helvetica,sans-Serif" font-size="8.00">依赖</text>
<text xml:space="preserve" text-anchor="middle" x="53.12" y="-439.9" font-family="Helvetica,sans-Serif" font-size="8.00">(A 依赖 B)</text>
</g>
<!-- leg_gen1 -->
<!-- leg_gen2 -->
<!-- leg_gen1&#45;&gt;leg_gen2 -->
<g id="edge2" class="edge">
<title>leg_gen1&#45;&gt;leg_gen2</title>
<path fill="none" stroke="black" stroke-width="2" d="M95,-483.64C95,-467.74 95,-443.71 95,-424.56"/>
<polygon fill="black" stroke="black" stroke-width="2" points="98.5,-424.7 95,-414.7 91.5,-424.7 98.5,-424.7"/>
<text xml:space="preserve" text-anchor="middle" x="118.25" y="-451.9" font-family="Helvetica,sans-Serif" font-size="8.00">推广了</text>
<text xml:space="preserve" text-anchor="middle" x="118.25" y="-439.9" font-family="Helvetica,sans-Serif" font-size="8.00">(A 推广了 B)</text>
</g>
<!-- leg_comp1 -->
<!-- leg_comp2 -->
<!-- leg_comp1&#45;&gt;leg_comp2 -->
<g id="edge3" class="edge">
<title>leg_comp1&#45;&gt;leg_comp2</title>
<path fill="none" stroke="black" stroke-dasharray="5,2" d="M165,-472.19C165,-456.97 165,-438.3 165,-423.04"/>
<polygon fill="black" stroke="black" points="161.5,-472.13 165,-482.13 168.5,-472.13 161.5,-472.13"/>
<polygon fill="black" stroke="black" points="168.5,-423.19 165,-413.19 161.5,-423.19 168.5,-423.19"/>
<text xml:space="preserve" text-anchor="middle" x="184.12" y="-451.9" font-family="Helvetica,sans-Serif" font-size="8.00">对比</text>
<text xml:space="preserve" text-anchor="middle" x="184.12" y="-439.9" font-family="Helvetica,sans-Serif" font-size="8.00">(A 对比 B)</text>
</g>
<!-- frege -->
<g id="node7" class="node">
<title>frege</title>
<path fill="#a5d6a7" stroke="black" d="M682.38,-64.5C682.38,-64.5 647.62,-64.5 647.62,-64.5 641.62,-64.5 635.62,-58.5 635.62,-52.5 635.62,-52.5 635.62,-28 635.62,-28 635.62,-22 641.62,-16 647.62,-16 647.62,-16 682.38,-16 682.38,-16 688.38,-16 694.38,-22 694.38,-28 694.38,-28 694.38,-52.5 694.38,-52.5 694.38,-58.5 688.38,-64.5 682.38,-64.5"/>
<text xml:space="preserve" text-anchor="middle" x="665" y="-47.2" font-family="Helvetica,sans-Serif" font-size="14.00">弗雷格</text>
<text xml:space="preserve" text-anchor="middle" x="665" y="-26.95" font-family="Helvetica,sans-Serif" font-size="14.00">(概念)</text>
</g>
<!-- russell -->
<g id="node8" class="node">
<title>russell</title>
<path fill="#a5d6a7" stroke="black" d="M563,-263.5C563,-263.5 533,-263.5 533,-263.5 527,-263.5 521,-257.5 521,-251.5 521,-251.5 521,-227 521,-227 521,-221 527,-215 533,-215 533,-215 563,-215 563,-215 569,-215 575,-221 575,-227 575,-227 575,-251.5 575,-251.5 575,-257.5 569,-263.5 563,-263.5"/>
<text xml:space="preserve" text-anchor="middle" x="548" y="-246.2" font-family="Helvetica,sans-Serif" font-size="14.00">罗素</text>
<text xml:space="preserve" text-anchor="middle" x="548" y="-225.95" font-family="Helvetica,sans-Serif" font-size="14.00">(概念)</text>
</g>
<!-- wittgenstein -->
<g id="node9" class="node">
<title>wittgenstein</title>
<path fill="#a5d6a7" stroke="black" d="M668.62,-263.5C668.62,-263.5 605.38,-263.5 605.38,-263.5 599.38,-263.5 593.38,-257.5 593.38,-251.5 593.38,-251.5 593.38,-227 593.38,-227 593.38,-221 599.38,-215 605.38,-215 605.38,-215 668.62,-215 668.62,-215 674.62,-215 680.62,-221 680.62,-227 680.62,-227 680.62,-251.5 680.62,-251.5 680.62,-257.5 674.62,-263.5 668.62,-263.5"/>
<text xml:space="preserve" text-anchor="middle" x="637" y="-246.2" font-family="Helvetica,sans-Serif" font-size="14.00">维特根斯坦</text>
<text xml:space="preserve" text-anchor="middle" x="637" y="-225.95" font-family="Helvetica,sans-Serif" font-size="14.00">(概念)</text>
</g>
<!-- vienna -->
<g id="node10" class="node">
<title>vienna</title>
<path fill="#a5d6a7" stroke="black" d="M703.75,-164C703.75,-164 626.25,-164 626.25,-164 620.25,-164 614.25,-158 614.25,-152 614.25,-152 614.25,-127.5 614.25,-127.5 614.25,-121.5 620.25,-115.5 626.25,-115.5 626.25,-115.5 703.75,-115.5 703.75,-115.5 709.75,-115.5 715.75,-121.5 715.75,-127.5 715.75,-127.5 715.75,-152 715.75,-152 715.75,-158 709.75,-164 703.75,-164"/>
<text xml:space="preserve" text-anchor="middle" x="665" y="-146.7" font-family="Helvetica,sans-Serif" font-size="14.00">逻辑实证主义</text>
<text xml:space="preserve" text-anchor="middle" x="665" y="-126.45" font-family="Helvetica,sans-Serif" font-size="14.00">(理论)</text>
</g>
<!-- vienna&#45;&gt;frege -->
<g id="edge8" class="edge">
<title>vienna&#45;&gt;frege</title>
<path fill="none" stroke="black" d="M665,-115.15C665,-103.5 665,-89.21 665,-76.31"/>
<polygon fill="black" stroke="black" points="668.5,-76.49 665,-66.49 661.5,-76.49 668.5,-76.49"/>
<text xml:space="preserve" text-anchor="middle" x="675.5" y="-88" font-family="Helvetica,sans-Serif" font-size="10.00">依赖</text>
</g>
<!-- lang_game -->
<g id="node15" class="node">
<title>lang_game</title>
<path fill="#90caf9" stroke="black" d="M477.5,-263.5C477.5,-263.5 428.5,-263.5 428.5,-263.5 422.5,-263.5 416.5,-257.5 416.5,-251.5 416.5,-251.5 416.5,-227 416.5,-227 416.5,-221 422.5,-215 428.5,-215 428.5,-215 477.5,-215 477.5,-215 483.5,-215 489.5,-221 489.5,-227 489.5,-227 489.5,-251.5 489.5,-251.5 489.5,-257.5 483.5,-263.5 477.5,-263.5"/>
<text xml:space="preserve" text-anchor="middle" x="453" y="-246.2" font-family="Helvetica,sans-Serif" font-size="14.00">语言游戏</text>
<text xml:space="preserve" text-anchor="middle" x="453" y="-225.95" font-family="Helvetica,sans-Serif" font-size="14.00">(概念)</text>
</g>
<!-- vienna&#45;&gt;lang_game -->
<g id="edge15" class="edge">
<title>vienna&#45;&gt;lang_game</title>
<path fill="none" stroke="black" stroke-dasharray="5,2" d="M603.37,-169.09C570.4,-184.26 530.43,-202.64 500,-216.64"/>
<polygon fill="black" stroke="black" points="604.81,-172.28 612.43,-164.93 601.88,-165.92 604.81,-172.28"/>
<polygon fill="black" stroke="black" points="498.93,-213.28 491.3,-220.63 501.85,-219.64 498.93,-213.28"/>
<text xml:space="preserve" text-anchor="middle" x="582.19" y="-187.5" font-family="Helvetica,sans-Serif" font-size="10.00">对比</text>
</g>
<!-- quine -->
<g id="node11" class="node">
<title>quine</title>
<path fill="#a5d6a7" stroke="black" d="M741,-263.5C741,-263.5 711,-263.5 711,-263.5 705,-263.5 699,-257.5 699,-251.5 699,-251.5 699,-227 699,-227 699,-221 705,-215 711,-215 711,-215 741,-215 741,-215 747,-215 753,-221 753,-227 753,-227 753,-251.5 753,-251.5 753,-257.5 747,-263.5 741,-263.5"/>
<text xml:space="preserve" text-anchor="middle" x="726" y="-246.2" font-family="Helvetica,sans-Serif" font-size="14.00">奎因</text>
<text xml:space="preserve" text-anchor="middle" x="726" y="-225.95" font-family="Helvetica,sans-Serif" font-size="14.00">(概念)</text>
</g>
<!-- quine&#45;&gt;vienna -->
<g id="edge9" class="edge">
<title>quine&#45;&gt;vienna</title>
<path fill="none" stroke="black" d="M711.23,-214.65C703.57,-202.4 694.09,-187.24 685.71,-173.85"/>
<polygon fill="black" stroke="black" points="688.92,-172.38 680.64,-165.76 682.98,-176.09 688.92,-172.38"/>
<text xml:space="preserve" text-anchor="middle" x="709.65" y="-187.5" font-family="Helvetica,sans-Serif" font-size="10.00">依赖</text>
</g>
<!-- formal_logic -->
<g id="node12" class="node">
<title>formal_logic</title>
<path fill="#90caf9" stroke="black" d="M484.5,-526C484.5,-526 435.5,-526 435.5,-526 429.5,-526 423.5,-520 423.5,-514 423.5,-514 423.5,-489.5 423.5,-489.5 423.5,-483.5 429.5,-477.5 435.5,-477.5 435.5,-477.5 484.5,-477.5 484.5,-477.5 490.5,-477.5 496.5,-483.5 496.5,-489.5 496.5,-489.5 496.5,-514 496.5,-514 496.5,-520 490.5,-526 484.5,-526"/>
<text xml:space="preserve" text-anchor="middle" x="460" y="-508.7" font-family="Helvetica,sans-Serif" font-size="14.00">形式逻辑</text>
<text xml:space="preserve" text-anchor="middle" x="460" y="-488.45" font-family="Helvetica,sans-Serif" font-size="14.00">(方法)</text>
</g>
<!-- formal_logic&#45;&gt;frege -->
<g id="edge4" class="edge">
<title>formal_logic&#45;&gt;frege</title>
<path fill="none" stroke="black" d="M496.78,-496.74C582.63,-486.37 789,-455.11 789,-394.25 789,-394.25 789,-394.25 789,-138.75 789,-95.26 741.27,-68.2 705.04,-53.93"/>
<polygon fill="black" stroke="black" points="706.71,-50.82 696.12,-50.6 704.27,-57.38 706.71,-50.82"/>
<text xml:space="preserve" text-anchor="middle" x="799.5" y="-237.25" font-family="Helvetica,sans-Serif" font-size="10.00">依赖</text>
</g>
<!-- descriptions -->
<g id="node14" class="node">
<title>descriptions</title>
<path fill="#90caf9" stroke="black" d="M484.75,-417.5C484.75,-417.5 407.25,-417.5 407.25,-417.5 401.25,-417.5 395.25,-411.5 395.25,-405.5 395.25,-405.5 395.25,-381 395.25,-381 395.25,-375 401.25,-369 407.25,-369 407.25,-369 484.75,-369 484.75,-369 490.75,-369 496.75,-375 496.75,-381 496.75,-381 496.75,-405.5 496.75,-405.5 496.75,-411.5 490.75,-417.5 484.75,-417.5"/>
<text xml:space="preserve" text-anchor="middle" x="446" y="-400.2" font-family="Helvetica,sans-Serif" font-size="14.00">确定描述理论</text>
<text xml:space="preserve" text-anchor="middle" x="446" y="-379.95" font-family="Helvetica,sans-Serif" font-size="14.00">(理论)</text>
</g>
<!-- formal_logic&#45;&gt;descriptions -->
<g id="edge16" class="edge">
<title>formal_logic&#45;&gt;descriptions</title>
<path fill="none" stroke="black" d="M456.89,-477.11C455.03,-462.91 452.62,-444.59 450.54,-428.79"/>
<polygon fill="black" stroke="black" points="454.07,-428.78 449.3,-419.32 447.13,-429.69 454.07,-428.78"/>
<text xml:space="preserve" text-anchor="middle" x="464.75" y="-445.5" font-family="Helvetica,sans-Serif" font-size="10.00">用于</text>
</g>
<!-- sense_ref -->
<g id="node13" class="node">
<title>sense_ref</title>
<path fill="#90caf9" stroke="black" d="M484.62,-164C484.62,-164 421.38,-164 421.38,-164 415.38,-164 409.38,-158 409.38,-152 409.38,-152 409.38,-127.5 409.38,-127.5 409.38,-121.5 415.38,-115.5 421.38,-115.5 421.38,-115.5 484.62,-115.5 484.62,-115.5 490.62,-115.5 496.62,-121.5 496.62,-127.5 496.62,-127.5 496.62,-152 496.62,-152 496.62,-158 490.62,-164 484.62,-164"/>
<text xml:space="preserve" text-anchor="middle" x="453" y="-146.7" font-family="Helvetica,sans-Serif" font-size="14.00">涵义与指称</text>
<text xml:space="preserve" text-anchor="middle" x="453" y="-126.45" font-family="Helvetica,sans-Serif" font-size="14.00">(理论)</text>
</g>
<!-- sense_ref&#45;&gt;frege -->
<g id="edge5" class="edge">
<title>sense_ref&#45;&gt;frege</title>
<path fill="none" stroke="black" d="M494.33,-115.04C499.23,-112.42 504.2,-109.85 509,-107.5 547.53,-88.63 592.78,-69.77 624.59,-57.02"/>
<polygon fill="black" stroke="black" points="625.85,-60.29 633.84,-53.34 623.26,-53.78 625.85,-60.29"/>
<text xml:space="preserve" text-anchor="middle" x="570.28" y="-88" font-family="Helvetica,sans-Serif" font-size="10.00">依赖</text>
</g>
<!-- sense_ref&#45;&gt;descriptions -->
<g id="edge14" class="edge">
<title>sense_ref&#45;&gt;descriptions</title>
<path fill="none" stroke="black" stroke-dasharray="5,2" d="M419.99,-172.49C408.41,-184.92 396.04,-199.83 387,-215 357.69,-264.15 352.93,-279.64 343,-336 341.84,-342.57 339.26,-345.48 343,-351 352.65,-365.26 368.13,-374.6 384.18,-380.7"/>
<polygon fill="black" stroke="black" points="422.4,-175.04 426.79,-165.4 417.34,-170.2 422.4,-175.04"/>
<polygon fill="black" stroke="black" points="382.73,-383.91 393.32,-383.78 384.97,-377.27 382.73,-383.91"/>
<text xml:space="preserve" text-anchor="middle" x="397.5" y="-237.25" font-family="Helvetica,sans-Serif" font-size="10.00">对比</text>
</g>
<!-- descriptions&#45;&gt;russell -->
<g id="edge6" class="edge">
<title>descriptions&#45;&gt;russell</title>
<path fill="none" stroke="black" d="M496.93,-376.69C509.47,-370.56 521.68,-362.23 530,-351 546.07,-329.31 550.02,-298.65 550.26,-275.08"/>
<polygon fill="black" stroke="black" points="553.76,-275.29 550.12,-265.34 546.76,-275.39 553.76,-275.29"/>
<text xml:space="preserve" text-anchor="middle" x="548.22" y="-341.5" font-family="Helvetica,sans-Serif" font-size="10.00">依赖</text>
</g>
<!-- lang_game&#45;&gt;wittgenstein -->
<g id="edge7" class="edge">
<title>lang_game&#45;&gt;wittgenstein</title>
<path fill="none" stroke="black" d="M461.79,-263.64C470.42,-283.59 485.73,-310.45 509,-322.88 538.41,-338.57 554.79,-338.94 584,-322.88 602.8,-312.53 615.86,-292.4 624.32,-274.48"/>
<polygon fill="black" stroke="black" points="627.49,-275.95 628.28,-265.38 621.08,-273.15 627.49,-275.95"/>
<text xml:space="preserve" text-anchor="middle" x="518" y="-341.5" font-family="Helvetica,sans-Serif" font-size="10.00">依赖</text>
</g>
<!-- lang_game&#45;&gt;sense_ref -->
<g id="edge10" class="edge">
<title>lang_game&#45;&gt;sense_ref</title>
<path fill="none" stroke="black" stroke-width="2" d="M453,-214.65C453,-203.47 453,-189.87 453,-177.4"/>
<polygon fill="black" stroke="black" stroke-width="2" points="456.5,-177.5 453,-167.5 449.5,-177.5 456.5,-177.5"/>
<text xml:space="preserve" text-anchor="middle" x="468.75" y="-187.5" font-family="Helvetica,sans-Serif" font-size="10.00">推广了</text>
</g>
<!-- speech_acts -->
<g id="node16" class="node">
<title>speech_acts</title>
<path fill="#90caf9" stroke="black" d="M326.5,-417.5C326.5,-417.5 277.5,-417.5 277.5,-417.5 271.5,-417.5 265.5,-411.5 265.5,-405.5 265.5,-405.5 265.5,-381 265.5,-381 265.5,-375 271.5,-369 277.5,-369 277.5,-369 326.5,-369 326.5,-369 332.5,-369 338.5,-375 338.5,-381 338.5,-381 338.5,-405.5 338.5,-405.5 338.5,-411.5 332.5,-417.5 326.5,-417.5"/>
<text xml:space="preserve" text-anchor="middle" x="302" y="-400.2" font-family="Helvetica,sans-Serif" font-size="14.00">言语行为</text>
<text xml:space="preserve" text-anchor="middle" x="302" y="-379.95" font-family="Helvetica,sans-Serif" font-size="14.00">(理论)</text>
</g>
<!-- speech_acts&#45;&gt;lang_game -->
<g id="edge18" class="edge">
<title>speech_acts&#45;&gt;lang_game</title>
<path fill="none" stroke="black" stroke-width="2" d="M325.59,-368.5C351.08,-342.84 391.86,-301.79 420.4,-273.06"/>
<polygon fill="black" stroke="black" stroke-width="2" points="422.87,-275.54 427.44,-265.98 417.91,-270.61 422.87,-275.54"/>
<text xml:space="preserve" text-anchor="middle" x="365.65" y="-341.5" font-family="Helvetica,sans-Serif" font-size="10.00">属于</text>
</g>
<!-- implicature -->
<g id="node17" class="node">
<title>implicature</title>
<path fill="#90caf9" stroke="black" d="M288.5,-526C288.5,-526 239.5,-526 239.5,-526 233.5,-526 227.5,-520 227.5,-514 227.5,-514 227.5,-489.5 227.5,-489.5 227.5,-483.5 233.5,-477.5 239.5,-477.5 239.5,-477.5 288.5,-477.5 288.5,-477.5 294.5,-477.5 300.5,-483.5 300.5,-489.5 300.5,-489.5 300.5,-514 300.5,-514 300.5,-520 294.5,-526 288.5,-526"/>
<text xml:space="preserve" text-anchor="middle" x="264" y="-508.7" font-family="Helvetica,sans-Serif" font-size="14.00">会话含义</text>
<text xml:space="preserve" text-anchor="middle" x="264" y="-488.45" font-family="Helvetica,sans-Serif" font-size="14.00">(理论)</text>
</g>
<!-- implicature&#45;&gt;speech_acts -->
<g id="edge19" class="edge">
<title>implicature&#45;&gt;speech_acts</title>
<path fill="none" stroke="black" stroke-width="2" d="M272.43,-477.11C277.4,-463.19 283.79,-445.3 289.35,-429.71"/>
<polygon fill="black" stroke="black" stroke-width="2" points="292.51,-431.27 292.57,-420.67 285.92,-428.91 292.51,-431.27"/>
<text xml:space="preserve" text-anchor="middle" x="296.9" y="-445.5" font-family="Helvetica,sans-Serif" font-size="10.00">属于</text>
</g>
<!-- kripke -->
<g id="node18" class="node">
<title>kripke</title>
<path fill="#90caf9" stroke="black" d="M393.62,-526C393.62,-526 330.38,-526 330.38,-526 324.38,-526 318.38,-520 318.38,-514 318.38,-514 318.38,-489.5 318.38,-489.5 318.38,-483.5 324.38,-477.5 330.38,-477.5 330.38,-477.5 393.62,-477.5 393.62,-477.5 399.62,-477.5 405.62,-483.5 405.62,-489.5 405.62,-489.5 405.62,-514 405.62,-514 405.62,-520 399.62,-526 393.62,-526"/>
<text xml:space="preserve" text-anchor="middle" x="362" y="-508.7" font-family="Helvetica,sans-Serif" font-size="14.00">固定指示词</text>
<text xml:space="preserve" text-anchor="middle" x="362" y="-488.45" font-family="Helvetica,sans-Serif" font-size="14.00">(理论)</text>
</g>
<!-- kripke&#45;&gt;descriptions -->
<g id="edge11" class="edge">
<title>kripke&#45;&gt;descriptions</title>
<path fill="none" stroke="black" stroke-width="2" d="M380.64,-477.11C392.06,-462.64 406.86,-443.88 419.48,-427.87"/>
<polygon fill="black" stroke="black" stroke-width="2" points="422.09,-430.22 425.54,-420.2 416.59,-425.88 422.09,-430.22"/>
<text xml:space="preserve" text-anchor="middle" x="427.27" y="-445.5" font-family="Helvetica,sans-Serif" font-size="10.00">推广了</text>
</g>
<!-- jtb -->
<g id="node19" class="node">
<title>jtb</title>
<path fill="#ffcc80" stroke="black" d="M905.38,-417.5C905.38,-417.5 828.62,-417.5 828.62,-417.5 822.62,-417.5 816.62,-411.5 816.62,-405.5 816.62,-405.5 816.62,-381 816.62,-381 816.62,-375 822.62,-369 828.62,-369 828.62,-369 905.38,-369 905.38,-369 911.38,-369 917.38,-375 917.38,-381 917.38,-381 917.38,-405.5 917.38,-405.5 917.38,-411.5 911.38,-417.5 905.38,-417.5"/>
<text xml:space="preserve" text-anchor="middle" x="867" y="-400.2" font-family="Helvetica,sans-Serif" font-size="14.00">JTB 知识定义</text>
<text xml:space="preserve" text-anchor="middle" x="867" y="-379.95" font-family="Helvetica,sans-Serif" font-size="14.00">(理论)</text>
</g>
<!-- gettier -->
<g id="node20" class="node">
<title>gettier</title>
<path fill="#ffcc80" stroke="black" d="M892.62,-526C892.62,-526 829.38,-526 829.38,-526 823.38,-526 817.38,-520 817.38,-514 817.38,-514 817.38,-489.5 817.38,-489.5 817.38,-483.5 823.38,-477.5 829.38,-477.5 829.38,-477.5 892.62,-477.5 892.62,-477.5 898.62,-477.5 904.62,-483.5 904.62,-489.5 904.62,-489.5 904.62,-514 904.62,-514 904.62,-520 898.62,-526 892.62,-526"/>
<text xml:space="preserve" text-anchor="middle" x="861" y="-508.7" font-family="Helvetica,sans-Serif" font-size="14.00">盖梯尔问题</text>
<text xml:space="preserve" text-anchor="middle" x="861" y="-488.45" font-family="Helvetica,sans-Serif" font-size="14.00">(概念)</text>
</g>
<!-- gettier&#45;&gt;jtb -->
<g id="edge12" class="edge">
<title>gettier&#45;&gt;jtb</title>
<path fill="none" stroke="black" stroke-width="2" d="M862.33,-477.11C863.1,-463.46 864.08,-446.01 864.95,-430.64"/>
<polygon fill="black" stroke="black" stroke-width="2" points="868.43,-431.02 865.5,-420.84 861.44,-430.63 868.43,-431.02"/>
<text xml:space="preserve" text-anchor="middle" x="880.29" y="-445.5" font-family="Helvetica,sans-Serif" font-size="10.00">推广了</text>
</g>
<!-- truth -->
<g id="node21" class="node">
<title>truth</title>
<path fill="#ffcc80" stroke="black" d="M983.5,-526C983.5,-526 934.5,-526 934.5,-526 928.5,-526 922.5,-520 922.5,-514 922.5,-514 922.5,-489.5 922.5,-489.5 922.5,-483.5 928.5,-477.5 934.5,-477.5 934.5,-477.5 983.5,-477.5 983.5,-477.5 989.5,-477.5 995.5,-483.5 995.5,-489.5 995.5,-489.5 995.5,-514 995.5,-514 995.5,-520 989.5,-526 983.5,-526"/>
<text xml:space="preserve" text-anchor="middle" x="959" y="-508.7" font-family="Helvetica,sans-Serif" font-size="14.00">真理理论</text>
<text xml:space="preserve" text-anchor="middle" x="959" y="-488.45" font-family="Helvetica,sans-Serif" font-size="14.00">(理论)</text>
</g>
<!-- dualism -->
<g id="node22" class="node">
<title>dualism</title>
<path fill="#f48fb1" stroke="black" d="M1074.38,-417.5C1074.38,-417.5 1039.62,-417.5 1039.62,-417.5 1033.62,-417.5 1027.62,-411.5 1027.62,-405.5 1027.62,-405.5 1027.62,-381 1027.62,-381 1027.62,-375 1033.62,-369 1039.62,-369 1039.62,-369 1074.38,-369 1074.38,-369 1080.38,-369 1086.38,-375 1086.38,-381 1086.38,-381 1086.38,-405.5 1086.38,-405.5 1086.38,-411.5 1080.38,-417.5 1074.38,-417.5"/>
<text xml:space="preserve" text-anchor="middle" x="1057" y="-400.2" font-family="Helvetica,sans-Serif" font-size="14.00">二元论</text>
<text xml:space="preserve" text-anchor="middle" x="1057" y="-379.95" font-family="Helvetica,sans-Serif" font-size="14.00">(理论)</text>
</g>
<!-- functionalism -->
<g id="node23" class="node">
<title>functionalism</title>
<path fill="#f48fb1" stroke="black" d="M1081.5,-526C1081.5,-526 1032.5,-526 1032.5,-526 1026.5,-526 1020.5,-520 1020.5,-514 1020.5,-514 1020.5,-489.5 1020.5,-489.5 1020.5,-483.5 1026.5,-477.5 1032.5,-477.5 1032.5,-477.5 1081.5,-477.5 1081.5,-477.5 1087.5,-477.5 1093.5,-483.5 1093.5,-489.5 1093.5,-489.5 1093.5,-514 1093.5,-514 1093.5,-520 1087.5,-526 1081.5,-526"/>
<text xml:space="preserve" text-anchor="middle" x="1057" y="-508.7" font-family="Helvetica,sans-Serif" font-size="14.00">功能主义</text>
<text xml:space="preserve" text-anchor="middle" x="1057" y="-488.45" font-family="Helvetica,sans-Serif" font-size="14.00">(理论)</text>
</g>
<!-- functionalism&#45;&gt;dualism -->
<g id="edge13" class="edge">
<title>functionalism&#45;&gt;dualism</title>
<path fill="none" stroke="black" stroke-width="2" d="M1057,-477.11C1057,-463.46 1057,-446.01 1057,-430.64"/>
<polygon fill="black" stroke="black" stroke-width="2" points="1060.5,-430.85 1057,-420.85 1053.5,-430.85 1060.5,-430.85"/>
<text xml:space="preserve" text-anchor="middle" x="1072.75" y="-445.5" font-family="Helvetica,sans-Serif" font-size="10.00">推广了</text>
</g>
<!-- consciousness -->
<g id="node24" class="node">
<title>consciousness</title>
<path fill="#f48fb1" stroke="black" d="M1172.5,-526C1172.5,-526 1123.5,-526 1123.5,-526 1117.5,-526 1111.5,-520 1111.5,-514 1111.5,-514 1111.5,-489.5 1111.5,-489.5 1111.5,-483.5 1117.5,-477.5 1123.5,-477.5 1123.5,-477.5 1172.5,-477.5 1172.5,-477.5 1178.5,-477.5 1184.5,-483.5 1184.5,-489.5 1184.5,-489.5 1184.5,-514 1184.5,-514 1184.5,-520 1178.5,-526 1172.5,-526"/>
<text xml:space="preserve" text-anchor="middle" x="1148" y="-508.7" font-family="Helvetica,sans-Serif" font-size="14.00">意识难题</text>
<text xml:space="preserve" text-anchor="middle" x="1148" y="-488.45" font-family="Helvetica,sans-Serif" font-size="14.00">(概念)</text>
</g>
<!-- possible_worlds -->
<g id="node25" class="node">
<title>possible_worlds</title>
<path fill="#ce93d8" stroke="black" d="M1270.5,-526C1270.5,-526 1221.5,-526 1221.5,-526 1215.5,-526 1209.5,-520 1209.5,-514 1209.5,-514 1209.5,-489.5 1209.5,-489.5 1209.5,-483.5 1215.5,-477.5 1221.5,-477.5 1221.5,-477.5 1270.5,-477.5 1270.5,-477.5 1276.5,-477.5 1282.5,-483.5 1282.5,-489.5 1282.5,-489.5 1282.5,-514 1282.5,-514 1282.5,-520 1276.5,-526 1270.5,-526"/>
<text xml:space="preserve" text-anchor="middle" x="1246" y="-508.7" font-family="Helvetica,sans-Serif" font-size="14.00">可能世界</text>
<text xml:space="preserve" text-anchor="middle" x="1246" y="-488.45" font-family="Helvetica,sans-Serif" font-size="14.00">(理论)</text>
</g>
<!-- possible_worlds&#45;&gt;kripke -->
<g id="edge17" class="edge">
<title>possible_worlds&#45;&gt;kripke</title>
<path fill="none" stroke="black" d="M1239.27,-526.41C1232.31,-546.6 1219.26,-573.85 1197,-586.71 1159.38,-608.44 452.99,-607.78 415,-586.71 395.81,-576.06 382.66,-555.26 374.26,-536.9"/>
<polygon fill="black" stroke="black" points="377.56,-535.72 370.44,-527.87 371.11,-538.44 377.56,-535.72"/>
<text xml:space="preserve" text-anchor="middle" x="807" y="-604" font-family="Helvetica,sans-Serif" font-size="10.00">用于</text>
</g>
<!-- metaethics -->
<g id="node26" class="node">
<title>metaethics</title>
<path fill="#ce93d8" stroke="black" d="M1361.5,-526C1361.5,-526 1312.5,-526 1312.5,-526 1306.5,-526 1300.5,-520 1300.5,-514 1300.5,-514 1300.5,-489.5 1300.5,-489.5 1300.5,-483.5 1306.5,-477.5 1312.5,-477.5 1312.5,-477.5 1361.5,-477.5 1361.5,-477.5 1367.5,-477.5 1373.5,-483.5 1373.5,-489.5 1373.5,-489.5 1373.5,-514 1373.5,-514 1373.5,-520 1367.5,-526 1361.5,-526"/>
<text xml:space="preserve" text-anchor="middle" x="1337" y="-508.7" font-family="Helvetica,sans-Serif" font-size="14.00">元伦理学</text>
<text xml:space="preserve" text-anchor="middle" x="1337" y="-488.45" font-family="Helvetica,sans-Serif" font-size="14.00">(理论)</text>
</g>
</g>
</svg>
