<?xml version="1.0" encoding="UTF-8" standalone="no"?>
<!DOCTYPE svg PUBLIC "-//W3C//DTD SVG 1.1//EN"
 "http://www.w3.org/Graphics/SVG/1.1/DTD/svg11.dtd">
<!-- Generated by graphviz version 14.1.3 (20260303.0454)
 -->
<!-- Title: NeuralNetworks Pages: 1 -->
<svg width="1728pt" height="545pt"
 viewBox="0.00 0.00 1728.00 545.00" xmlns="http://www.w3.org/2000/svg" xmlns:xlink="http://www.w3.org/1999/xlink">
<g id="graph0" class="graph" transform="scale(1 1) rotate(0) translate(4 540.57)">
<title>NeuralNetworks</title>
<polygon fill="white" stroke="none" points="-4,4 -4,-540.57 1724,-540.57 1724,4 -4,4"/>
<g id="clust1" class="cluster">
<title>cluster_D1</title>
<path fill="#ebf2fa" stroke="#4a90d9" d="M20,-277.63C20,-277.63 795,-277.63 795,-277.63 801,-277.63 807,-283.63 807,-289.63 807,-289.63 807,-395.97 807,-395.97 807,-401.97 801,-407.97 795,-407.97 795,-407.97 20,-407.97 20,-407.97 14,-407.97 8,-401.97 8,-395.97 8,-395.97 8,-289.63 8,-289.63 8,-283.63 14,-277.63 20,-277.63"/>
<text xml:space="preserve" text-anchor="middle" x="407.5" y="-391.62" font-family="Helvetica,Arial,sans-serif" font-size="13.00" fill="#4a90d9">D1 基础架构</text>
</g>
<g id="clust2" class="cluster">
<title>cluster_D2</title>
<path fill="#e8f8f0" stroke="#27ae60" d="M827,-8C827,-8 993,-8 993,-8 999,-8 1005,-14 1005,-20 1005,-20 1005,-385.18 1005,-385.18 1005,-391.18 999,-397.18 993,-397.18 993,-397.18 827,-397.18 827,-397.18 821,-397.18 815,-391.18 815,-385.18 815,-385.18 815,-20 815,-20 815,-14 821,-8 827,-8"/>
<text xml:space="preserve" text-anchor="middle" x="910" y="-380.83" font-family="Helvetica,Arial,sans-serif" font-size="13.00" fill="#27ae60">D2 训练范式</text>
</g>
<g id="clust3" class="cluster">
<title>cluster_D3</title>
<path fill="#fdf2e9" stroke="#e67e22" d="M1025,-96.77C1025,-96.77 1473,-96.77 1473,-96.77 1479,-96.77 1485,-102.77 1485,-108.77 1485,-108.77 1485,-209.29 1485,-209.29 1485,-215.29 1479,-221.29 1473,-221.29 1473,-221.29 1025,-221.29 1025,-221.29 1019,-221.29 1013,-215.29 1013,-209.29 1013,-209.29 1013,-108.77 1013,-108.77 1013,-102.77 1019,-96.77 1025,-96.77"/>
<text xml:space="preserve" text-anchor="middle" x="1249" y="-204.94" font-family="Helvetica,Arial,sans-serif" font-size="13.00" fill="#e67e22">D3 训练数学</text>
</g>
<g id="clust4" class="cluster">
<title>cluster_D5</title>
<path fill="#f4ecf7" stroke="#8e44ad" d="M1243,-282.41C1243,-282.41 1500,-282.41 1500,-282.41 1506,-282.41 1512,-288.41 1512,-294.41 1512,-294.41 1512,-391.18 1512,-391.18 1512,-397.18 1506,-403.18 1500,-403.18 1500,-403.18 1243,-403.18 1243,-403.18 1237,-403.18 1231,-397.18 1231,-391.18 1231,-391.18 1231,-294.41 1231,-294.41 1231,-288.41 1237,-282.41 1243,-282.41"/>
<text xml:space="preserve" text-anchor="middle" x="1371.5" y="-386.83" font-family="Helvetica,Arial,sans-serif" font-size="13.00" fill="#8e44ad">D5 前沿理论</text>
</g>
<g id="clust5" class="cluster">
<title>cluster_legend</title>
<path fill="#fafafa" stroke="#cccccc" d="M1532,-252.79C1532,-252.79 1700,-252.79 1700,-252.79 1706,-252.79 1712,-258.79 1712,-264.79 1712,-264.79 1712,-414.81 1712,-414.81 1712,-420.81 1706,-426.81 1700,-426.81 1700,-426.81 1532,-426.81 1532,-426.81 1526,-426.81 1520,-420.81 1520,-414.81 1520,-414.81 1520,-264.79 1520,-264.79 1520,-258.79 1526,-252.79 1532,-252.79"/>
<text xml:space="preserve" text-anchor="middle" x="1616" y="-412.36" font-family="Helvetica,Arial,sans-serif" font-size="11.00">图例：A → B [关系] 读作 &quot;A 关系 B&quot;</text>
</g>
<!-- MLP -->
<g id="node1" class="node">
<title>MLP</title>
<polygon fill="#b3d4fc" stroke="black" points="70,-335.68 16,-335.68 16,-296.41 70,-296.41 70,-335.68"/>
<text xml:space="preserve" text-anchor="middle" x="43" y="-319.47" font-family="Helvetica,Arial,sans-serif" font-size="11.00">MLP</text>
<text xml:space="preserve" text-anchor="middle" x="43" y="-307.47" font-family="Helvetica,Arial,sans-serif" font-size="11.00">(架构)</text>
</g>
<!-- CNN -->
<g id="node2" class="node">
<title>CNN</title>
<polygon fill="#b3d4fc" stroke="black" points="142,-335.68 88,-335.68 88,-296.41 142,-296.41 142,-335.68"/>
<text xml:space="preserve" text-anchor="middle" x="115" y="-319.47" font-family="Helvetica,Arial,sans-serif" font-size="11.00">CNN</text>
<text xml:space="preserve" text-anchor="middle" x="115" y="-307.47" font-family="Helvetica,Arial,sans-serif" font-size="11.00">(架构)</text>
</g>
<!-- RNN -->
<g id="node3" class="node">
<title>RNN</title>
<polygon fill="#b3d4fc" stroke="black" points="214,-335.68 160,-335.68 160,-296.41 214,-296.41 214,-335.68"/>
<text xml:space="preserve" text-anchor="middle" x="187" y="-319.47" font-family="Helvetica,Arial,sans-serif" font-size="11.00">RNN</text>
<text xml:space="preserve" text-anchor="middle" x="187" y="-307.47" font-family="Helvetica,Arial,sans-serif" font-size="11.00">(架构)</text>
</g>
<!-- LSTM -->
<g id="node4" class="node">
<title>LSTM</title>
<polygon fill="#b3d4fc" stroke="black" points="304,-335.68 250,-335.68 250,-296.41 304,-296.41 304,-335.68"/>
<text xml:space="preserve" text-anchor="middle" x="277" y="-319.47" font-family="Helvetica,Arial,sans-serif" font-size="11.00">LSTM</text>
<text xml:space="preserve" text-anchor="middle" x="277" y="-307.47" font-family="Helvetica,Arial,sans-serif" font-size="11.00">(架构)</text>
</g>
<!-- LSTM&#45;&gt;RNN -->
<g id="edge1" class="edge">
<title>LSTM&#45;&gt;RNN</title>
<path fill="none" stroke="#4a90d9" stroke-width="2" d="M249.68,-316.05C242.19,-316.05 233.92,-316.05 225.91,-316.05"/>
<polygon fill="#4a90d9" stroke="#4a90d9" stroke-width="2" points="227.52,-312.55 217.52,-316.05 227.52,-319.55 227.52,-312.55"/>
<text xml:space="preserve" text-anchor="middle" x="232" y="-324" font-family="Helvetica,Arial,sans-serif" font-size="9.00">推广</text>
</g>
<!-- Transformer -->
<g id="node5" class="node">
<title>Transformer</title>
<polygon fill="#b3d4fc" stroke="black" stroke-dasharray="5,2" points="402.43,-335.68 321.57,-335.68 321.57,-296.41 402.43,-296.41 402.43,-335.68"/>
<text xml:space="preserve" text-anchor="middle" x="362" y="-319.47" font-family="Helvetica,Arial,sans-serif" font-size="11.00">Transformer</text>
<text xml:space="preserve" text-anchor="middle" x="362" y="-307.47" font-family="Helvetica,Arial,sans-serif" font-size="11.00">(架构)</text>
</g>
<!-- Transformer&#45;&gt;RNN -->
<g id="edge6" class="edge">
<title>Transformer&#45;&gt;RNN</title>
<path fill="none" stroke="#c0392b" stroke-dasharray="5,2" d="M359.05,-335.82C354.21,-360.32 342.05,-401.09 313,-419.47 285.96,-436.59 268.37,-436.06 241,-419.47 215.13,-403.8 201.06,-371.21 193.84,-346.78"/>
<polygon fill="#c0392b" stroke="#c0392b" points="197.28,-346.09 191.29,-337.35 190.52,-347.92 197.28,-346.09"/>
<text xml:space="preserve" text-anchor="middle" x="268" y="-439.76" font-family="Helvetica,Arial,sans-serif" font-size="9.00">对比</text>
</g>
<!-- Attention -->
<g id="node6" class="node">
<title>Attention</title>
<ellipse fill="#d6e8fc" stroke="black" cx="501" cy="-316.05" rx="63.53" ry="30.42"/>
<text xml:space="preserve" text-anchor="middle" x="501" y="-321.35" font-family="Helvetica,Arial,sans-serif" font-size="11.00">Attention 机制</text>
<text xml:space="preserve" text-anchor="middle" x="501" y="-305.6" font-family="Helvetica,Arial,sans-serif" font-size="11.00">(概念)</text>
</g>
<!-- Attention&#45;&gt;Transformer -->
<g id="edge5" class="edge">
<title>Attention&#45;&gt;Transformer</title>
<path fill="none" stroke="#4a90d9" stroke-width="2" d="M437.09,-316.05C429.39,-316.05 421.59,-316.05 414.08,-316.05"/>
<polygon fill="#4a90d9" stroke="#4a90d9" stroke-width="2" points="415.61,-312.55 405.61,-316.05 415.61,-319.55 415.61,-312.55"/>
<text xml:space="preserve" text-anchor="middle" x="419.95" y="-324" font-family="Helvetica,Arial,sans-serif" font-size="9.00">组成</text>
</g>
<!-- GNN -->
<g id="node7" class="node">
<title>GNN</title>
<polygon fill="#b3d4fc" stroke="black" points="637,-335.68 583,-335.68 583,-296.41 637,-296.41 637,-335.68"/>
<text xml:space="preserve" text-anchor="middle" x="610" y="-319.47" font-family="Helvetica,Arial,sans-serif" font-size="11.00">GNN</text>
<text xml:space="preserve" text-anchor="middle" x="610" y="-307.47" font-family="Helvetica,Arial,sans-serif" font-size="11.00">(架构)</text>
</g>
<!-- GCN -->
<g id="node8" class="node">
<title>GCN</title>
<polygon fill="#b3d4fc" stroke="black" points="727,-335.68 673,-335.68 673,-296.41 727,-296.41 727,-335.68"/>
<text xml:space="preserve" text-anchor="middle" x="700" y="-319.47" font-family="Helvetica,Arial,sans-serif" font-size="11.00">GCN</text>
<text xml:space="preserve" text-anchor="middle" x="700" y="-307.47" font-family="Helvetica,Arial,sans-serif" font-size="11.00">(架构)</text>
</g>
<!-- GCN&#45;&gt;CNN -->
<g id="edge2" class="edge">
<title>GCN&#45;&gt;CNN</title>
<path fill="none" stroke="#4a90d9" stroke-width="2" d="M696.1,-335.89C690.09,-360.47 675.97,-401.31 646,-419.47 598.96,-447.98 195.83,-451.34 151,-419.47 128.2,-403.27 119.71,-371.52 116.62,-347.46"/>
<polygon fill="#4a90d9" stroke="#4a90d9" stroke-width="2" points="120.26,-348.64 115.78,-339.04 113.29,-349.34 120.26,-348.64"/>
<text xml:space="preserve" text-anchor="middle" x="466" y="-439.76" font-family="Helvetica,Arial,sans-serif" font-size="9.00">推广</text>
</g>
<!-- GCN&#45;&gt;GNN -->
<g id="edge3" class="edge">
<title>GCN&#45;&gt;GNN</title>
<path fill="none" stroke="#4a90d9" d="M672.68,-316.05C665.19,-316.05 656.92,-316.05 648.91,-316.05"/>
<polygon fill="#4a90d9" stroke="#4a90d9" points="649.01,-312.55 639.01,-316.05 649.01,-319.55 649.01,-312.55"/>
<text xml:space="preserve" text-anchor="middle" x="655" y="-324" font-family="Helvetica,Arial,sans-serif" font-size="9.00">实例</text>
</g>
<!-- GAT -->
<g id="node9" class="node">
<title>GAT</title>
<polygon fill="#b3d4fc" stroke="black" points="799,-335.68 745,-335.68 745,-296.41 799,-296.41 799,-335.68"/>
<text xml:space="preserve" text-anchor="middle" x="772" y="-319.47" font-family="Helvetica,Arial,sans-serif" font-size="11.00">GAT</text>
<text xml:space="preserve" text-anchor="middle" x="772" y="-307.47" font-family="Helvetica,Arial,sans-serif" font-size="11.00">(架构)</text>
</g>
<!-- GAT&#45;&gt;GNN -->
<g id="edge4" class="edge">
<title>GAT&#45;&gt;GNN</title>
<path fill="none" stroke="#4a90d9" d="M771.52,-336.03C769.74,-360.35 762.65,-400.53 736,-419.47 709.92,-438.01 691.37,-436.06 664,-419.47 638.13,-403.8 624.06,-371.21 616.84,-346.78"/>
<polygon fill="#4a90d9" stroke="#4a90d9" points="620.28,-346.09 614.29,-337.35 613.52,-347.92 620.28,-346.09"/>
<text xml:space="preserve" text-anchor="middle" x="691" y="-439.76" font-family="Helvetica,Arial,sans-serif" font-size="9.00">实例</text>
</g>
<!-- AE -->
<g id="node10" class="node">
<title>AE</title>
<polygon fill="#a9dfbf" stroke="black" points="907.3,-335.68 822.7,-335.68 822.7,-296.41 907.3,-296.41 907.3,-335.68"/>
<text xml:space="preserve" text-anchor="middle" x="865" y="-319.47" font-family="Helvetica,Arial,sans-serif" font-size="11.00">AutoEncoder</text>
<text xml:space="preserve" text-anchor="middle" x="865" y="-307.47" font-family="Helvetica,Arial,sans-serif" font-size="11.00">(方法)</text>
</g>
<!-- VAE -->
<g id="node11" class="node">
<title>VAE</title>
<polygon fill="#a9dfbf" stroke="black" points="997,-335.68 943,-335.68 943,-296.41 997,-296.41 997,-335.68"/>
<text xml:space="preserve" text-anchor="middle" x="970" y="-319.47" font-family="Helvetica,Arial,sans-serif" font-size="11.00">VAE</text>
<text xml:space="preserve" text-anchor="middle" x="970" y="-307.47" font-family="Helvetica,Arial,sans-serif" font-size="11.00">(方法)</text>
</g>
<!-- VAE&#45;&gt;AE -->
<g id="edge7" class="edge">
<title>VAE&#45;&gt;AE</title>
<path fill="none" stroke="#27ae60" stroke-width="2" d="M942.69,-316.05C935.43,-316.05 927.33,-316.05 919.18,-316.05"/>
<polygon fill="#27ae60" stroke="#27ae60" stroke-width="2" points="920.73,-312.55 910.73,-316.05 920.73,-319.55 920.73,-312.55"/>
<text xml:space="preserve" text-anchor="middle" x="925.15" y="-324" font-family="Helvetica,Arial,sans-serif" font-size="9.00">推广</text>
</g>
<!-- GAN -->
<g id="node12" class="node">
<title>GAN</title>
<polygon fill="#a9dfbf" stroke="black" points="991,-151.91 937,-151.91 937,-112.65 991,-112.65 991,-151.91"/>
<text xml:space="preserve" text-anchor="middle" x="964" y="-135.71" font-family="Helvetica,Arial,sans-serif" font-size="11.00">GAN</text>
<text xml:space="preserve" text-anchor="middle" x="964" y="-123.7" font-family="Helvetica,Arial,sans-serif" font-size="11.00">(方法)</text>
</g>
<!-- VAE&#45;&gt;GAN -->
<g id="edge8" class="edge">
<title>VAE&#45;&gt;GAN</title>
<path fill="none" stroke="#c0392b" stroke-dasharray="5,2" d="M969.37,-295.94C968.33,-264.44 966.25,-201.35 965,-163.67"/>
<polygon fill="#c0392b" stroke="#c0392b" points="968.51,-163.8 964.68,-153.92 961.51,-164.03 968.51,-163.8"/>
<text xml:space="preserve" text-anchor="middle" x="976.54" y="-234.24" font-family="Helvetica,Arial,sans-serif" font-size="9.00">对比</text>
</g>
<!-- Diffusion -->
<g id="node13" class="node">
<title>Diffusion</title>
<polygon fill="#a9dfbf" stroke="black" points="996.92,-55.27 901.08,-55.27 901.08,-16 996.92,-16 996.92,-55.27"/>
<text xml:space="preserve" text-anchor="middle" x="949" y="-39.06" font-family="Helvetica,Arial,sans-serif" font-size="11.00">Diffusion Model</text>
<text xml:space="preserve" text-anchor="middle" x="949" y="-27.06" font-family="Helvetica,Arial,sans-serif" font-size="11.00">(方法)</text>
</g>
<!-- GAN&#45;&gt;Diffusion -->
<g id="edge9" class="edge">
<title>GAN&#45;&gt;Diffusion</title>
<path fill="none" stroke="#c0392b" stroke-dasharray="5,2" d="M961.04,-112.58C958.97,-99.57 956.18,-81.94 953.8,-66.95"/>
<polygon fill="#c0392b" stroke="#c0392b" points="957.27,-66.44 952.25,-57.11 950.35,-67.54 957.27,-66.44"/>
<text xml:space="preserve" text-anchor="middle" x="965.5" y="-78.22" font-family="Helvetica,Arial,sans-serif" font-size="9.00">对比</text>
</g>
<!-- SGD -->
<g id="node14" class="node">
<title>SGD</title>
<polygon fill="#f5cba7" stroke="black" points="1075,-151.91 1021,-151.91 1021,-112.65 1075,-112.65 1075,-151.91"/>
<text xml:space="preserve" text-anchor="middle" x="1048" y="-135.71" font-family="Helvetica,Arial,sans-serif" font-size="11.00">SGD</text>
<text xml:space="preserve" text-anchor="middle" x="1048" y="-123.7" font-family="Helvetica,Arial,sans-serif" font-size="11.00">(方法)</text>
</g>
<!-- Adam -->
<g id="node15" class="node">
<title>Adam</title>
<polygon fill="#f5cba7" stroke="black" points="1165,-151.91 1111,-151.91 1111,-112.65 1165,-112.65 1165,-151.91"/>
<text xml:space="preserve" text-anchor="middle" x="1138" y="-135.71" font-family="Helvetica,Arial,sans-serif" font-size="11.00">Adam</text>
<text xml:space="preserve" text-anchor="middle" x="1138" y="-123.7" font-family="Helvetica,Arial,sans-serif" font-size="11.00">(方法)</text>
</g>
<!-- Adam&#45;&gt;SGD -->
<g id="edge10" class="edge">
<title>Adam&#45;&gt;SGD</title>
<path fill="none" stroke="#e67e22" stroke-width="2" d="M1110.68,-132.28C1103.19,-132.28 1094.92,-132.28 1086.91,-132.28"/>
<polygon fill="#e67e22" stroke="#e67e22" stroke-width="2" points="1088.52,-128.78 1078.52,-132.28 1088.52,-135.78 1088.52,-128.78"/>
<text xml:space="preserve" text-anchor="middle" x="1093" y="-140.23" font-family="Helvetica,Arial,sans-serif" font-size="9.00">推广</text>
</g>
<!-- BN -->
<g id="node16" class="node">
<title>BN</title>
<polygon fill="#f5cba7" stroke="black" points="1259.17,-159.79 1182.83,-159.79 1182.83,-104.77 1259.17,-104.77 1259.17,-159.79"/>
<text xml:space="preserve" text-anchor="middle" x="1221" y="-143.58" font-family="Helvetica,Arial,sans-serif" font-size="11.00">BatchNorm</text>
<text xml:space="preserve" text-anchor="middle" x="1221" y="-131.58" font-family="Helvetica,Arial,sans-serif" font-size="11.00">初始化</text>
<text xml:space="preserve" text-anchor="middle" x="1221" y="-115.83" font-family="Helvetica,Arial,sans-serif" font-size="11.00">(方法)</text>
</g>
<!-- GenTheory -->
<g id="node17" class="node">
<title>GenTheory</title>
<polygon fill="#f5cba7" stroke="black" points="1343.3,-153.79 1276.7,-153.79 1276.7,-110.77 1343.3,-110.77 1343.3,-153.79"/>
<text xml:space="preserve" text-anchor="middle" x="1310" y="-137.58" font-family="Helvetica,Arial,sans-serif" font-size="11.00">泛化理论</text>
<text xml:space="preserve" text-anchor="middle" x="1310" y="-121.83" font-family="Helvetica,Arial,sans-serif" font-size="11.00">(理论)</text>
</g>
<!-- DoubleDescent -->
<g id="node18" class="node">
<title>DoubleDescent</title>
<polygon fill="#f5cba7" stroke="black" points="1477.42,-151.91 1378.58,-151.91 1378.58,-112.65 1477.42,-112.65 1477.42,-151.91"/>
<text xml:space="preserve" text-anchor="middle" x="1428" y="-135.71" font-family="Helvetica,Arial,sans-serif" font-size="11.00">Double Descent</text>
<text xml:space="preserve" text-anchor="middle" x="1428" y="-123.7" font-family="Helvetica,Arial,sans-serif" font-size="11.00">(概念)</text>
</g>
<!-- DoubleDescent&#45;&gt;GenTheory -->
<g id="edge11" class="edge">
<title>DoubleDescent&#45;&gt;GenTheory</title>
<path fill="none" stroke="#e67e22" stroke-width="2" d="M1378.11,-132.28C1370.36,-132.28 1362.38,-132.28 1354.75,-132.28"/>
<polygon fill="#e67e22" stroke="#e67e22" stroke-width="2" points="1356.53,-128.78 1346.53,-132.28 1356.53,-135.78 1356.53,-128.78"/>
<text xml:space="preserve" text-anchor="middle" x="1360.94" y="-140.23" font-family="Helvetica,Arial,sans-serif" font-size="9.00">组成</text>
</g>
<!-- NTK -->
<g id="node19" class="node">
<title>NTK</title>
<polygon fill="#d2b4de" stroke="black" points="1293,-335.68 1239,-335.68 1239,-296.41 1293,-296.41 1293,-335.68"/>
<text xml:space="preserve" text-anchor="middle" x="1266" y="-319.47" font-family="Helvetica,Arial,sans-serif" font-size="11.00">NTK</text>
<text xml:space="preserve" text-anchor="middle" x="1266" y="-307.47" font-family="Helvetica,Arial,sans-serif" font-size="11.00">(理论)</text>
</g>
<!-- NTK&#45;&gt;GenTheory -->
<g id="edge12" class="edge">
<title>NTK&#45;&gt;GenTheory</title>
<path fill="none" stroke="#8e44ad" d="M1270.63,-295.94C1278.16,-264.8 1293.17,-202.79 1302.33,-164.97"/>
<polygon fill="#8e44ad" stroke="#8e44ad" points="1305.66,-166.09 1304.61,-155.55 1298.86,-164.44 1305.66,-166.09"/>
<text xml:space="preserve" text-anchor="middle" x="1295.68" y="-234.24" font-family="Helvetica,Arial,sans-serif" font-size="9.00">用于</text>
</g>
<!-- Scaling -->
<g id="node20" class="node">
<title>Scaling</title>
<polygon fill="#d2b4de" stroke="black" points="1396.67,-335.68 1311.33,-335.68 1311.33,-296.41 1396.67,-296.41 1396.67,-335.68"/>
<text xml:space="preserve" text-anchor="middle" x="1354" y="-319.47" font-family="Helvetica,Arial,sans-serif" font-size="11.00">Scaling Laws</text>
<text xml:space="preserve" text-anchor="middle" x="1354" y="-307.47" font-family="Helvetica,Arial,sans-serif" font-size="11.00">(理论)</text>
</g>
<!-- Scaling&#45;&gt;GenTheory -->
<g id="edge13" class="edge">
<title>Scaling&#45;&gt;GenTheory</title>
<path fill="none" stroke="#8e44ad" d="M1349.37,-295.94C1341.84,-264.8 1326.83,-202.79 1317.67,-164.97"/>
<polygon fill="#8e44ad" stroke="#8e44ad" points="1321.14,-164.44 1315.39,-155.55 1314.34,-166.09 1321.14,-164.44"/>
<text xml:space="preserve" text-anchor="middle" x="1344.94" y="-234.24" font-family="Helvetica,Arial,sans-serif" font-size="9.00">用于</text>
</g>
<!-- MechInterp -->
<g id="node21" class="node">
<title>MechInterp</title>
<polygon fill="#d2b4de" stroke="black" points="1503.55,-341.68 1414.45,-341.68 1414.45,-290.41 1503.55,-290.41 1503.55,-341.68"/>
<text xml:space="preserve" text-anchor="middle" x="1459" y="-325.47" font-family="Helvetica,Arial,sans-serif" font-size="11.00">Mechanistic</text>
<text xml:space="preserve" text-anchor="middle" x="1459" y="-313.47" font-family="Helvetica,Arial,sans-serif" font-size="11.00">Interpretability</text>
<text xml:space="preserve" text-anchor="middle" x="1459" y="-301.47" font-family="Helvetica,Arial,sans-serif" font-size="11.00">(方法)</text>
</g>
<!-- leg1 -->
<g id="node22" class="node">
<title>leg1</title>
<polygon fill="#fafafa" stroke="none" points="1703.17,-371.31 1528.83,-371.31 1528.83,-260.79 1703.17,-260.79 1703.17,-371.31"/>
<text xml:space="preserve" text-anchor="start" x="1545.62" y="-348.67" font-family="Helvetica,Arial,sans-serif" font-size="11.00" fill="#4a90d9">━━━</text>
<text xml:space="preserve" text-anchor="start" x="1587.38" y="-347.55" font-family="Helvetica,Arial,sans-serif" font-size="11.00">依赖 / 用于</text>
<text xml:space="preserve" text-anchor="start" x="1545.62" y="-324.47" font-family="Helvetica,Arial,sans-serif" font-weight="bold" font-size="11.00" fill="#4a90d9">━━━</text>
<text xml:space="preserve" text-anchor="start" x="1587.38" y="-323.8" font-family="Helvetica,Arial,sans-serif" font-size="11.00">推广 / 组成</text>
<text xml:space="preserve" text-anchor="start" x="1553.88" y="-301.17" font-family="Helvetica,Arial,sans-serif" font-size="11.00" fill="#c0392b">&#45; &#45; &#45;</text>
<text xml:space="preserve" text-anchor="start" x="1587.38" y="-300.05" font-family="Helvetica,Arial,sans-serif" font-size="11.00">对比</text>
<text xml:space="preserve" text-anchor="start" x="1559.12" y="-276.67" font-family="Helvetica,Arial,sans-serif" font-size="11.00">○</text>
<text xml:space="preserve" text-anchor="start" x="1587.38" y="-276.3" font-family="Helvetica,Arial,sans-serif" font-size="11.00">组成部分 / 机制节点</text>
</g>
</g>
</svg>
