<?xml version="1.0" encoding="UTF-8" standalone="no"?>
<!DOCTYPE svg PUBLIC "-//W3C//DTD SVG 1.1//EN"
 "http://www.w3.org/Graphics/SVG/1.1/DTD/svg11.dtd">
<!-- Generated by graphviz version 14.1.3 (20260303.0454)
 -->
<!-- Title: CMB Pages: 1 -->
<svg width="1448pt" height="636pt"
 viewBox="0.00 0.00 1448.00 636.00" xmlns="http://www.w3.org/2000/svg" xmlns:xlink="http://www.w3.org/1999/xlink">
<g id="graph0" class="graph" transform="scale(1 1) rotate(0) translate(4 632.35)">
<title>CMB</title>
<polygon fill="white" stroke="none" points="-4,4 -4,-632.35 1443.55,-632.35 1443.55,4 -4,4"/>
<g id="clust1" class="cluster">
<title>cluster_D1</title>
<path fill="#ebf2fa" stroke="#4a90d9" d="M137.55,-14C137.55,-14 700.55,-14 700.55,-14 706.55,-14 712.55,-20 712.55,-26 712.55,-26 712.55,-437.34 712.55,-437.34 712.55,-443.34 706.55,-449.34 700.55,-449.34 700.55,-449.34 137.55,-449.34 137.55,-449.34 131.55,-449.34 125.55,-443.34 125.55,-437.34 125.55,-437.34 125.55,-26 125.55,-26 125.55,-20 131.55,-14 137.55,-14"/>
<text xml:space="preserve" text-anchor="middle" x="419.05" y="-432.99" font-family="Helvetica,Arial,sans-serif" font-size="13.00" fill="#4a90d9">D1 物理原理</text>
</g>
<g id="clust2" class="cluster">
<title>cluster_D2</title>
<path fill="#e8f8f0" stroke="#27ae60" d="M732.55,-8C732.55,-8 926.55,-8 926.55,-8 932.55,-8 938.55,-14 938.55,-20 938.55,-20 938.55,-221.95 938.55,-221.95 938.55,-227.95 932.55,-233.95 926.55,-233.95 926.55,-233.95 732.55,-233.95 732.55,-233.95 726.55,-233.95 720.55,-227.95 720.55,-221.95 720.55,-221.95 720.55,-20 720.55,-20 720.55,-14 726.55,-8 732.55,-8"/>
<text xml:space="preserve" text-anchor="middle" x="829.55" y="-217.6" font-family="Helvetica,Arial,sans-serif" font-size="13.00" fill="#27ae60">D2 观测量与分析</text>
</g>
<g id="clust3" class="cluster">
<title>cluster_D3</title>
<path fill="#fdf2e9" stroke="#e67e22" d="M860.55,-326.7C860.55,-326.7 1189.55,-326.7 1189.55,-326.7 1195.55,-326.7 1201.55,-332.7 1201.55,-338.7 1201.55,-338.7 1201.55,-435.47 1201.55,-435.47 1201.55,-441.47 1195.55,-447.47 1189.55,-447.47 1189.55,-447.47 860.55,-447.47 860.55,-447.47 854.55,-447.47 848.55,-441.47 848.55,-435.47 848.55,-435.47 848.55,-338.7 848.55,-338.7 848.55,-332.7 854.55,-326.7 860.55,-326.7"/>
<text xml:space="preserve" text-anchor="middle" x="1025.05" y="-431.12" font-family="Helvetica,Arial,sans-serif" font-size="13.00" fill="#e67e22">D3 实验技术</text>
</g>
<g id="clust4" class="cluster">
<title>cluster_D4</title>
<path fill="#f4ecf7" stroke="#8e44ad" d="M958.55,-113.55C958.55,-113.55 1401.55,-113.55 1401.55,-113.55 1407.55,-113.55 1413.55,-119.55 1413.55,-125.55 1413.55,-125.55 1413.55,-229.82 1413.55,-229.82 1413.55,-235.82 1407.55,-241.82 1401.55,-241.82 1401.55,-241.82 958.55,-241.82 958.55,-241.82 952.55,-241.82 946.55,-235.82 946.55,-229.82 946.55,-229.82 946.55,-125.55 946.55,-125.55 946.55,-119.55 952.55,-113.55 958.55,-113.55"/>
<text xml:space="preserve" text-anchor="middle" x="1180.05" y="-225.47" font-family="Helvetica,Arial,sans-serif" font-size="13.00" fill="#8e44ad">D4 前沿与开放问题</text>
</g>
<g id="clust5" class="cluster">
<title>cluster_legend</title>
<path fill="#fafafa" stroke="#cccccc" d="M1221.55,-273.32C1221.55,-273.32 1419.55,-273.32 1419.55,-273.32 1425.55,-273.32 1431.55,-279.32 1431.55,-285.32 1431.55,-285.32 1431.55,-482.84 1431.55,-482.84 1431.55,-488.84 1425.55,-494.84 1419.55,-494.84 1419.55,-494.84 1221.55,-494.84 1221.55,-494.84 1215.55,-494.84 1209.55,-488.84 1209.55,-482.84 1209.55,-482.84 1209.55,-285.32 1209.55,-285.32 1209.55,-279.32 1215.55,-273.32 1221.55,-273.32"/>
<text xml:space="preserve" text-anchor="middle" x="1320.55" y="-480.39" font-family="Helvetica,Arial,sans-serif" font-size="11.00">图例：A → B 读作 &quot;A [标签] B&quot;</text>
</g>
<!-- Newton -->
<g id="node1" class="node">
<title>Newton</title>
<polygon fill="#e0e0e0" stroke="black" stroke-dasharray="5,2" points="89.1,-381.84 0,-381.84 0,-338.82 89.1,-338.82 89.1,-381.84"/>
<text xml:space="preserve" text-anchor="middle" x="44.55" y="-365.63" font-family="Helvetica,Arial,sans-serif" font-size="11.00">牛顿能量守恒</text>
<text xml:space="preserve" text-anchor="middle" x="44.55" y="-349.88" font-family="Helvetica,Arial,sans-serif" font-size="11.00">(理论)</text>
</g>
<!-- Friedmann -->
<g id="node2" class="node">
<title>Friedmann</title>
<polygon fill="#b3d4fc" stroke="black" points="231.98,-381.84 133.12,-381.84 133.12,-338.82 231.98,-338.82 231.98,-381.84"/>
<text xml:space="preserve" text-anchor="middle" x="182.55" y="-365.63" font-family="Helvetica,Arial,sans-serif" font-size="11.00">Friedmann 方程</text>
<text xml:space="preserve" text-anchor="middle" x="182.55" y="-349.88" font-family="Helvetica,Arial,sans-serif" font-size="11.00">(理论)</text>
</g>
<!-- Friedmann&#45;&gt;Newton -->
<g id="edge1" class="edge">
<title>Friedmann&#45;&gt;Newton</title>
<path fill="none" stroke="#4a90d9" stroke-width="2" d="M132.72,-360.33C122.31,-360.33 111.27,-360.33 100.66,-360.33"/>
<polygon fill="#4a90d9" stroke="#4a90d9" stroke-width="2" points="102.38,-356.83 92.38,-360.33 102.38,-363.83 102.38,-356.83"/>
<text xml:space="preserve" text-anchor="middle" x="111.11" y="-368.28" font-family="Helvetica,Arial,sans-serif" font-size="9.00">推广了</text>
</g>
<!-- ScaleFactor -->
<g id="node3" class="node">
<title>ScaleFactor</title>
<ellipse fill="#d6e8fc" stroke="black" cx="194.55" cy="-150.94" rx="61.41" ry="30.42"/>
<text xml:space="preserve" text-anchor="middle" x="194.55" y="-156.24" font-family="Helvetica,Arial,sans-serif" font-size="11.00">尺度因子 a(t)</text>
<text xml:space="preserve" text-anchor="middle" x="194.55" y="-140.49" font-family="Helvetica,Arial,sans-serif" font-size="11.00">(概念)</text>
</g>
<!-- Friedmann&#45;&gt;ScaleFactor -->
<g id="edge2" class="edge">
<title>Friedmann&#45;&gt;ScaleFactor</title>
<path fill="none" stroke="#4a90d9" d="M183.74,-338.69C185.7,-304.9 189.62,-237.17 192.16,-193.23"/>
<polygon fill="#4a90d9" stroke="#4a90d9" points="195.65,-193.49 192.74,-183.3 188.66,-193.08 195.65,-193.49"/>
<text xml:space="preserve" text-anchor="middle" x="197.55" y="-254.77" font-family="Helvetica,Arial,sans-serif" font-size="9.00">用于</text>
</g>
<!-- ThermalHist -->
<g id="node4" class="node">
<title>ThermalHist</title>
<polygon fill="#b3d4fc" stroke="black" points="222.23,-65.02 166.88,-65.02 166.88,-22 222.23,-22 222.23,-65.02"/>
<text xml:space="preserve" text-anchor="middle" x="194.55" y="-48.81" font-family="Helvetica,Arial,sans-serif" font-size="11.00">热历史</text>
<text xml:space="preserve" text-anchor="middle" x="194.55" y="-33.06" font-family="Helvetica,Arial,sans-serif" font-size="11.00">(概念)</text>
</g>
<!-- ScaleFactor&#45;&gt;ThermalHist -->
<g id="edge3" class="edge">
<title>ScaleFactor&#45;&gt;ThermalHist</title>
<path fill="none" stroke="#4a90d9" d="M194.55,-120.29C194.55,-106.72 194.55,-90.62 194.55,-76.75"/>
<polygon fill="#4a90d9" stroke="#4a90d9" points="198.05,-76.77 194.55,-66.77 191.05,-76.77 198.05,-76.77"/>
<text xml:space="preserve" text-anchor="middle" x="203.55" y="-93.97" font-family="Helvetica,Arial,sans-serif" font-size="9.00">用于</text>
</g>
<!-- Recomb -->
<g id="node5" class="node">
<title>Recomb</title>
<polygon fill="#b3d4fc" stroke="black" points="327.48,-381.84 249.62,-381.84 249.62,-338.82 327.48,-338.82 327.48,-381.84"/>
<text xml:space="preserve" text-anchor="middle" x="288.55" y="-365.63" font-family="Helvetica,Arial,sans-serif" font-size="11.00">复合与退耦</text>
<text xml:space="preserve" text-anchor="middle" x="288.55" y="-349.88" font-family="Helvetica,Arial,sans-serif" font-size="11.00">(概念)</text>
</g>
<!-- Recomb&#45;&gt;ThermalHist -->
<g id="edge4" class="edge">
<title>Recomb&#45;&gt;ThermalHist</title>
<path fill="none" stroke="#4a90d9" stroke-width="2" d="M291.1,-338.34C295.51,-294.24 300.89,-189.8 264.55,-113.55 256.91,-97.53 243.93,-83.13 231.2,-71.68"/>
<polygon fill="#4a90d9" stroke="#4a90d9" stroke-width="2" points="234.67,-70.05 224.8,-66.21 230.13,-75.37 234.67,-70.05"/>
<text xml:space="preserve" text-anchor="middle" x="302.19" y="-149.14" font-family="Helvetica,Arial,sans-serif" font-size="9.00">属于</text>
</g>
<!-- Perturbation -->
<g id="node6" class="node">
<title>Perturbation</title>
<polygon fill="#b3d4fc" stroke="black" points="401.23,-381.84 345.88,-381.84 345.88,-338.82 401.23,-338.82 401.23,-381.84"/>
<text xml:space="preserve" text-anchor="middle" x="373.55" y="-365.63" font-family="Helvetica,Arial,sans-serif" font-size="11.00">微扰论</text>
<text xml:space="preserve" text-anchor="middle" x="373.55" y="-349.88" font-family="Helvetica,Arial,sans-serif" font-size="11.00">(理论)</text>
</g>
<!-- Acoustic -->
<g id="node7" class="node">
<title>Acoustic</title>
<polygon fill="#b3d4fc" stroke="black" points="502.85,-381.84 436.25,-381.84 436.25,-338.82 502.85,-338.82 502.85,-381.84"/>
<text xml:space="preserve" text-anchor="middle" x="469.55" y="-365.63" font-family="Helvetica,Arial,sans-serif" font-size="11.00">声波振荡</text>
<text xml:space="preserve" text-anchor="middle" x="469.55" y="-349.88" font-family="Helvetica,Arial,sans-serif" font-size="11.00">(概念)</text>
</g>
<!-- Acoustic&#45;&gt;Perturbation -->
<g id="edge5" class="edge">
<title>Acoustic&#45;&gt;Perturbation</title>
<path fill="none" stroke="#4a90d9" d="M435.88,-360.33C428.44,-360.33 420.49,-360.33 412.84,-360.33"/>
<polygon fill="#4a90d9" stroke="#4a90d9" points="413.09,-356.83 403.09,-360.33 413.09,-363.83 413.09,-356.83"/>
<text xml:space="preserve" text-anchor="middle" x="418.74" y="-368.28" font-family="Helvetica,Arial,sans-serif" font-size="9.00">依赖</text>
</g>
<!-- Cl -->
<g id="node10" class="node">
<title>Cl</title>
<polygon fill="#a9dfbf" stroke="black" points="816.72,-172.45 728.38,-172.45 728.38,-129.43 816.72,-129.43 816.72,-172.45"/>
<text xml:space="preserve" text-anchor="middle" x="772.55" y="-156.24" font-family="Helvetica,Arial,sans-serif" font-size="11.00">角功率谱 C_ℓ</text>
<text xml:space="preserve" text-anchor="middle" x="772.55" y="-140.49" font-family="Helvetica,Arial,sans-serif" font-size="11.00">(方法)</text>
</g>
<!-- Acoustic&#45;&gt;Cl -->
<g id="edge8" class="edge">
<title>Acoustic&#45;&gt;Cl</title>
<path fill="none" stroke="#27ae60" d="M478.15,-338.69C487.65,-318.61 504.94,-288.9 529.55,-273.32 600.77,-228.25 646.53,-288.73 716.55,-241.82 737.43,-227.84 751.98,-203.16 761,-183.2"/>
<polygon fill="#27ae60" stroke="#27ae60" points="764.18,-184.66 764.86,-174.09 757.74,-181.93 764.18,-184.66"/>
<text xml:space="preserve" text-anchor="middle" x="709.19" y="-254.77" font-family="Helvetica,Arial,sans-serif" font-size="9.00">用于</text>
</g>
<!-- SilkDamping -->
<g id="node8" class="node">
<title>SilkDamping</title>
<polygon fill="#b3d4fc" stroke="black" points="602.72,-381.84 538.38,-381.84 538.38,-338.82 602.72,-338.82 602.72,-381.84"/>
<text xml:space="preserve" text-anchor="middle" x="570.55" y="-365.63" font-family="Helvetica,Arial,sans-serif" font-size="11.00">Silk 阻尼</text>
<text xml:space="preserve" text-anchor="middle" x="570.55" y="-349.88" font-family="Helvetica,Arial,sans-serif" font-size="11.00">(概念)</text>
</g>
<!-- SilkDamping&#45;&gt;Acoustic -->
<g id="edge7" class="edge">
<title>SilkDamping&#45;&gt;Acoustic</title>
<path fill="none" stroke="#4a90d9" d="M538.09,-360.33C530.6,-360.33 522.49,-360.33 514.57,-360.33"/>
<polygon fill="#4a90d9" stroke="#4a90d9" points="514.7,-356.83 504.7,-360.33 514.7,-363.83 514.7,-356.83"/>
<text xml:space="preserve" text-anchor="middle" x="520.61" y="-368.28" font-family="Helvetica,Arial,sans-serif" font-size="9.00">依赖</text>
</g>
<!-- SachsWolfe -->
<g id="node9" class="node">
<title>SachsWolfe</title>
<polygon fill="#b3d4fc" stroke="black" points="704.1,-387.84 621,-387.84 621,-332.82 704.1,-332.82 704.1,-387.84"/>
<text xml:space="preserve" text-anchor="middle" x="662.55" y="-371.63" font-family="Helvetica,Arial,sans-serif" font-size="11.00">Sachs&#45;Wolfe</text>
<text xml:space="preserve" text-anchor="middle" x="662.55" y="-359.63" font-family="Helvetica,Arial,sans-serif" font-size="11.00">效应</text>
<text xml:space="preserve" text-anchor="middle" x="662.55" y="-343.88" font-family="Helvetica,Arial,sans-serif" font-size="11.00">(概念)</text>
</g>
<!-- SachsWolfe&#45;&gt;Perturbation -->
<g id="edge6" class="edge">
<title>SachsWolfe&#45;&gt;Perturbation</title>
<path fill="none" stroke="#4a90d9" d="M659.8,-388.19C655.24,-417.55 643.21,-462.39 611.55,-483.55 577.56,-506.27 461.78,-505.92 427.55,-483.55 397.17,-463.7 383.78,-422.55 377.94,-393.28"/>
<polygon fill="#4a90d9" stroke="#4a90d9" points="381.45,-393.05 376.26,-383.81 374.56,-394.27 381.45,-393.05"/>
<text xml:space="preserve" text-anchor="middle" x="510.55" y="-507.79" font-family="Helvetica,Arial,sans-serif" font-size="9.00">依赖</text>
</g>
<!-- ParamExtract -->
<g id="node12" class="node">
<title>ParamExtract</title>
<polygon fill="#a9dfbf" stroke="black" points="805.85,-71.02 739.25,-71.02 739.25,-16 805.85,-16 805.85,-71.02"/>
<text xml:space="preserve" text-anchor="middle" x="772.55" y="-54.81" font-family="Helvetica,Arial,sans-serif" font-size="11.00">参数提取</text>
<text xml:space="preserve" text-anchor="middle" x="772.55" y="-39.06" font-family="Helvetica,Arial,sans-serif" font-size="11.00">MCMC</text>
<text xml:space="preserve" text-anchor="middle" x="772.55" y="-27.06" font-family="Helvetica,Arial,sans-serif" font-size="11.00">(方法)</text>
</g>
<!-- Cl&#45;&gt;ParamExtract -->
<g id="edge9" class="edge">
<title>Cl&#45;&gt;ParamExtract</title>
<path fill="none" stroke="#27ae60" d="M772.55,-129.11C772.55,-115.91 772.55,-98.44 772.55,-82.8"/>
<polygon fill="#27ae60" stroke="#27ae60" points="776.05,-82.82 772.55,-72.82 769.05,-82.82 776.05,-82.82"/>
<text xml:space="preserve" text-anchor="middle" x="781.55" y="-93.97" font-family="Helvetica,Arial,sans-serif" font-size="9.00">用于</text>
</g>
<!-- Polarization -->
<g id="node11" class="node">
<title>Polarization</title>
<polygon fill="#a9dfbf" stroke="black" points="930.85,-172.45 834.25,-172.45 834.25,-129.43 930.85,-129.43 930.85,-172.45"/>
<text xml:space="preserve" text-anchor="middle" x="882.55" y="-156.24" font-family="Helvetica,Arial,sans-serif" font-size="11.00">偏振 E/B&#45;mode</text>
<text xml:space="preserve" text-anchor="middle" x="882.55" y="-140.49" font-family="Helvetica,Arial,sans-serif" font-size="11.00">(概念)</text>
</g>
<!-- Planck -->
<g id="node13" class="node">
<title>Planck</title>
<polygon fill="#f5cba7" stroke="black" points="910.55,-379.97 856.55,-379.97 856.55,-340.7 910.55,-340.7 910.55,-379.97"/>
<text xml:space="preserve" text-anchor="middle" x="883.55" y="-363.76" font-family="Helvetica,Arial,sans-serif" font-size="11.00">Planck</text>
<text xml:space="preserve" text-anchor="middle" x="883.55" y="-351.76" font-family="Helvetica,Arial,sans-serif" font-size="11.00">(实验)</text>
</g>
<!-- Planck&#45;&gt;Cl -->
<g id="edge10" class="edge">
<title>Planck&#45;&gt;Cl</title>
<path fill="none" stroke="#e67e22" d="M873.5,-340.56C854.33,-304.73 812.33,-226.27 789,-182.68"/>
<polygon fill="#e67e22" stroke="#e67e22" points="792.15,-181.15 784.35,-173.99 785.98,-184.45 792.15,-181.15"/>
<text xml:space="preserve" text-anchor="middle" x="840.38" y="-254.77" font-family="Helvetica,Arial,sans-serif" font-size="9.00">用于</text>
</g>
<!-- ACT -->
<g id="node14" class="node">
<title>ACT</title>
<polygon fill="#f5cba7" stroke="black" points="1002.97,-379.97 928.12,-379.97 928.12,-340.7 1002.97,-340.7 1002.97,-379.97"/>
<text xml:space="preserve" text-anchor="middle" x="965.55" y="-363.76" font-family="Helvetica,Arial,sans-serif" font-size="11.00">ACT / SPT</text>
<text xml:space="preserve" text-anchor="middle" x="965.55" y="-351.76" font-family="Helvetica,Arial,sans-serif" font-size="11.00">(实验)</text>
</g>
<!-- Lensing -->
<g id="node18" class="node">
<title>Lensing</title>
<polygon fill="#d2b4de" stroke="black" points="1048.72,-172.45 954.38,-172.45 954.38,-129.43 1048.72,-129.43 1048.72,-172.45"/>
<text xml:space="preserve" text-anchor="middle" x="1001.55" y="-156.24" font-family="Helvetica,Arial,sans-serif" font-size="11.00">CMB 引力透镜</text>
<text xml:space="preserve" text-anchor="middle" x="1001.55" y="-140.49" font-family="Helvetica,Arial,sans-serif" font-size="11.00">(方法)</text>
</g>
<!-- ACT&#45;&gt;Lensing -->
<g id="edge11" class="edge">
<title>ACT&#45;&gt;Lensing</title>
<path fill="none" stroke="#e67e22" d="M968.81,-340.56C974.98,-305.03 988.42,-227.6 996.02,-183.79"/>
<polygon fill="#e67e22" stroke="#e67e22" points="999.43,-184.59 997.7,-174.14 992.54,-183.4 999.43,-184.59"/>
<text xml:space="preserve" text-anchor="middle" x="992.55" y="-254.77" font-family="Helvetica,Arial,sans-serif" font-size="9.00">用于</text>
</g>
<!-- BICEP -->
<g id="node15" class="node">
<title>BICEP</title>
<polygon fill="#f5cba7" stroke="black" points="1109.72,-379.97 1021.38,-379.97 1021.38,-340.7 1109.72,-340.7 1109.72,-379.97"/>
<text xml:space="preserve" text-anchor="middle" x="1065.55" y="-363.76" font-family="Helvetica,Arial,sans-serif" font-size="11.00">BICEP / Keck</text>
<text xml:space="preserve" text-anchor="middle" x="1065.55" y="-351.76" font-family="Helvetica,Arial,sans-serif" font-size="11.00">(实验)</text>
</g>
<!-- Bmode -->
<g id="node17" class="node">
<title>Bmode</title>
<polygon fill="#d2b4de" stroke="black" points="1152.22,-180.32 1066.88,-180.32 1066.88,-121.55 1152.22,-121.55 1152.22,-180.32"/>
<text xml:space="preserve" text-anchor="middle" x="1109.55" y="-164.11" font-family="Helvetica,Arial,sans-serif" font-size="11.00">B&#45;mode 探测</text>
<text xml:space="preserve" text-anchor="middle" x="1109.55" y="-148.36" font-family="Helvetica,Arial,sans-serif" font-size="11.00">原初引力波</text>
<text xml:space="preserve" text-anchor="middle" x="1109.55" y="-132.61" font-family="Helvetica,Arial,sans-serif" font-size="11.00">(任务)</text>
</g>
<!-- BICEP&#45;&gt;Bmode -->
<g id="edge12" class="edge">
<title>BICEP&#45;&gt;Bmode</title>
<path fill="none" stroke="#e67e22" d="M1067.56,-340.2C1070.05,-318.24 1074.8,-281.19 1081.55,-249.82 1085.72,-230.45 1091.6,-209.28 1096.9,-191.6"/>
<polygon fill="#e67e22" stroke="#e67e22" points="1100.18,-192.84 1099.75,-182.26 1093.49,-190.8 1100.18,-192.84"/>
<text xml:space="preserve" text-anchor="middle" x="1090.55" y="-254.77" font-family="Helvetica,Arial,sans-serif" font-size="9.00">用于</text>
</g>
<!-- Future -->
<g id="node16" class="node">
<title>Future</title>
<polygon fill="#f5cba7" stroke="black" stroke-dasharray="5,2" points="1193.47,-385.97 1127.62,-385.97 1127.62,-334.7 1193.47,-334.7 1193.47,-385.97"/>
<text xml:space="preserve" text-anchor="middle" x="1160.55" y="-369.76" font-family="Helvetica,Arial,sans-serif" font-size="11.00">CMB&#45;S4</text>
<text xml:space="preserve" text-anchor="middle" x="1160.55" y="-357.76" font-family="Helvetica,Arial,sans-serif" font-size="11.00">LiteBIRD</text>
<text xml:space="preserve" text-anchor="middle" x="1160.55" y="-345.76" font-family="Helvetica,Arial,sans-serif" font-size="11.00">(实验)</text>
</g>
<!-- Future&#45;&gt;Bmode -->
<g id="edge13" class="edge">
<title>Future&#45;&gt;Bmode</title>
<path fill="none" stroke="#e67e22" d="M1154.4,-334.32C1145.69,-298.89 1129.66,-233.73 1119.32,-191.65"/>
<polygon fill="#e67e22" stroke="#e67e22" points="1122.77,-191.05 1116.98,-182.17 1115.97,-192.72 1122.77,-191.05"/>
<text xml:space="preserve" text-anchor="middle" x="1145.58" y="-254.77" font-family="Helvetica,Arial,sans-serif" font-size="9.00">用于</text>
</g>
<!-- SZ -->
<g id="node19" class="node">
<title>SZ</title>
<polygon fill="#d2b4de" stroke="black" points="1231.22,-172.45 1169.88,-172.45 1169.88,-129.43 1231.22,-129.43 1231.22,-172.45"/>
<text xml:space="preserve" text-anchor="middle" x="1200.55" y="-156.24" font-family="Helvetica,Arial,sans-serif" font-size="11.00">SZ 效应</text>
<text xml:space="preserve" text-anchor="middle" x="1200.55" y="-140.49" font-family="Helvetica,Arial,sans-serif" font-size="11.00">(概念)</text>
</g>
<!-- SpectDist -->
<g id="node20" class="node">
<title>SpectDist</title>
<polygon fill="#d2b4de" stroke="black" points="1315.85,-180.32 1249.25,-180.32 1249.25,-121.55 1315.85,-121.55 1315.85,-180.32"/>
<text xml:space="preserve" text-anchor="middle" x="1282.55" y="-164.11" font-family="Helvetica,Arial,sans-serif" font-size="11.00">频谱畸变</text>
<text xml:space="preserve" text-anchor="middle" x="1282.55" y="-148.36" font-family="Helvetica,Arial,sans-serif" font-size="11.00">μ/y 畸变</text>
<text xml:space="preserve" text-anchor="middle" x="1282.55" y="-132.61" font-family="Helvetica,Arial,sans-serif" font-size="11.00">(概念)</text>
</g>
<!-- Anomalies -->
<g id="node21" class="node">
<title>Anomalies</title>
<polygon fill="#d2b4de" stroke="black" points="1405.47,-172.45 1333.62,-172.45 1333.62,-129.43 1405.47,-129.43 1405.47,-172.45"/>
<text xml:space="preserve" text-anchor="middle" x="1369.55" y="-156.24" font-family="Helvetica,Arial,sans-serif" font-size="11.00">CMB 异常</text>
<text xml:space="preserve" text-anchor="middle" x="1369.55" y="-140.49" font-family="Helvetica,Arial,sans-serif" font-size="11.00">(概念)</text>
</g>
<!-- leg1 -->
<g id="node22" class="node">
<title>leg1</title>
<polygon fill="#fafafa" stroke="none" points="1423.1,-439.34 1218,-439.34 1218,-281.32 1423.1,-281.32 1423.1,-439.34"/>
<text xml:space="preserve" text-anchor="start" x="1234.8" y="-418.13" font-family="Helvetica,Arial,sans-serif" font-weight="bold" font-size="11.00">标签</text>
<text xml:space="preserve" text-anchor="start" x="1276.55" y="-418.13" font-family="Helvetica,Arial,sans-serif" font-weight="bold" font-size="11.00">读法示例</text>
<text xml:space="preserve" text-anchor="start" x="1234.8" y="-391.83" font-family="Helvetica,Arial,sans-serif" font-size="11.00">依赖</text>
<text xml:space="preserve" text-anchor="start" x="1276.55" y="-391.83" font-family="Helvetica,Arial,sans-serif" font-size="11.00">声波振荡 依赖 微扰论</text>
<text xml:space="preserve" text-anchor="start" x="1234.8" y="-368.08" font-family="Helvetica,Arial,sans-serif" font-size="11.00">推广了</text>
<text xml:space="preserve" text-anchor="start" x="1276.55" y="-368.08" font-family="Helvetica,Arial,sans-serif" font-size="11.00">Friedmann 推广了 Newton</text>
<text xml:space="preserve" text-anchor="start" x="1234.8" y="-344.33" font-family="Helvetica,Arial,sans-serif" font-size="11.00">用于</text>
<text xml:space="preserve" text-anchor="start" x="1276.55" y="-344.33" font-family="Helvetica,Arial,sans-serif" font-size="11.00">Friedmann 用于 尺度因子</text>
<text xml:space="preserve" text-anchor="start" x="1234.8" y="-320.58" font-family="Helvetica,Arial,sans-serif" font-size="11.00">属于</text>
<text xml:space="preserve" text-anchor="start" x="1276.55" y="-320.58" font-family="Helvetica,Arial,sans-serif" font-size="11.00">复合退耦 属于 热历史</text>
<text xml:space="preserve" text-anchor="start" x="1234.8" y="-297.21" font-family="Helvetica,Arial,sans-serif" font-size="11.00">○</text>
<text xml:space="preserve" text-anchor="start" x="1276.55" y="-296.83" font-family="Helvetica,Arial,sans-serif" font-size="11.00">机制节点</text>
</g>
</g>
</svg>
