<?xml version="1.0" encoding="UTF-8" standalone="no"?>
<!DOCTYPE svg PUBLIC "-//W3C//DTD SVG 1.1//EN"
 "http://www.w3.org/Graphics/SVG/1.1/DTD/svg11.dtd">
<!-- Generated by graphviz version 14.1.3 (20260303.0454)
 -->
<!-- Title: christianity Pages: 1 -->
<svg width="1439pt" height="502pt"
 viewBox="0.00 0.00 1439.00 502.00" xmlns="http://www.w3.org/2000/svg" xmlns:xlink="http://www.w3.org/1999/xlink">
<g id="graph0" class="graph" transform="scale(1 1) rotate(0) translate(4 497.5)">
<title>christianity</title>
<polygon fill="white" stroke="none" points="-4,4 -4,-497.5 1435,-497.5 1435,4 -4,4"/>
<g id="clust1" class="cluster">
<title>cluster_d1</title>
<polygon fill="#e8f4f8" stroke="black" points="8,-8 8,-344.75 226,-344.75 226,-8 8,-8"/>
<text xml:space="preserve" text-anchor="middle" x="117" y="-327.45" font-family="Times,serif" font-size="14.00">D1 历史脉络</text>
</g>
<g id="clust2" class="cluster">
<title>cluster_d2</title>
<polygon fill="#f8f0e8" stroke="black" points="234,-237 234,-485.5 532,-485.5 532,-237 234,-237"/>
<text xml:space="preserve" text-anchor="middle" x="383" y="-468.2" font-family="Times,serif" font-size="14.00">D2 核心教义</text>
</g>
<g id="clust3" class="cluster">
<title>cluster_d3</title>
<polygon fill="#e8f8e8" stroke="black" points="761,-122.5 761,-344.75 887,-344.75 887,-122.5 761,-122.5"/>
<text xml:space="preserve" text-anchor="middle" x="824" y="-327.45" font-family="Times,serif" font-size="14.00">D3 经典文献</text>
</g>
<g id="clust4" class="cluster">
<title>cluster_d4</title>
<polygon fill="#f8e8f8" stroke="black" points="540,-122.5 540,-344.75 753,-344.75 753,-122.5 540,-122.5"/>
<text xml:space="preserve" text-anchor="middle" x="646.5" y="-327.45" font-family="Times,serif" font-size="14.00">D4 教派与传统</text>
</g>
<g id="clust5" class="cluster">
<title>cluster_d5</title>
<polygon fill="#f8f8e0" stroke="black" points="895,-237 895,-485.5 1003,-485.5 1003,-237 895,-237"/>
<text xml:space="preserve" text-anchor="middle" x="949" y="-468.2" font-family="Times,serif" font-size="14.00">D5 礼仪与实践</text>
</g>
<g id="clust6" class="cluster">
<title>cluster_legend</title>
<polygon fill="#f5f5f5" stroke="black" points="1011,-385.25 1011,-478 1423,-478 1423,-385.25 1011,-385.25"/>
<text xml:space="preserve" text-anchor="middle" x="1217" y="-460.7" font-family="Times,serif" font-size="14.00">关系图例</text>
</g>
<!-- Judaism -->
<g id="node1" class="node">
<title>Judaism</title>
<path fill="#b3d9ff" stroke="black" d="M174.5,-79.5C174.5,-79.5 131.5,-79.5 131.5,-79.5 125.5,-79.5 119.5,-73.5 119.5,-67.5 119.5,-67.5 119.5,-28 119.5,-28 119.5,-22 125.5,-16 131.5,-16 131.5,-16 174.5,-16 174.5,-16 180.5,-16 186.5,-22 186.5,-28 186.5,-28 186.5,-67.5 186.5,-67.5 186.5,-73.5 180.5,-79.5 174.5,-79.5"/>
<text xml:space="preserve" text-anchor="middle" x="153" y="-62.2" font-family="Helvetica,sans-Serif" font-size="14.00">犹太教</text>
<text xml:space="preserve" text-anchor="middle" x="153" y="-41.95" font-family="Helvetica,sans-Serif" font-size="14.00">Judaism</text>
<text xml:space="preserve" text-anchor="middle" x="153" y="-26.95" font-family="Helvetica,sans-Serif" font-size="14.00">(概念)</text>
</g>
<!-- Jesus -->
<g id="node2" class="node">
<title>Jesus</title>
<path fill="#b3d9ff" stroke="black" d="M168,-194C168,-194 138,-194 138,-194 132,-194 126,-188 126,-182 126,-182 126,-142.5 126,-142.5 126,-136.5 132,-130.5 138,-130.5 138,-130.5 168,-130.5 168,-130.5 174,-130.5 180,-136.5 180,-142.5 180,-142.5 180,-182 180,-182 180,-188 174,-194 168,-194"/>
<text xml:space="preserve" text-anchor="middle" x="153" y="-176.7" font-family="Helvetica,sans-Serif" font-size="14.00">耶稣</text>
<text xml:space="preserve" text-anchor="middle" x="153" y="-156.45" font-family="Helvetica,sans-Serif" font-size="14.00">Jesus</text>
<text xml:space="preserve" text-anchor="middle" x="153" y="-141.45" font-family="Helvetica,sans-Serif" font-size="14.00">(概念)</text>
</g>
<!-- Jesus&#45;&gt;Judaism -->
<g id="edge1" class="edge">
<title>Jesus&#45;&gt;Judaism</title>
<path fill="none" stroke="black" d="M153,-130.21C153,-118.04 153,-103.88 153,-90.81"/>
<polygon fill="black" stroke="black" points="156.5,-91.2 153,-81.2 149.5,-91.2 156.5,-91.2"/>
<text xml:space="preserve" text-anchor="middle" x="163.5" y="-103" font-family="Helvetica,sans-Serif" font-size="10.00">依赖</text>
</g>
<!-- EarlyChurch -->
<g id="node3" class="node">
<title>EarlyChurch</title>
<path fill="#b3d9ff" stroke="black" d="M98,-308.5C98,-308.5 28,-308.5 28,-308.5 22,-308.5 16,-302.5 16,-296.5 16,-296.5 16,-257 16,-257 16,-251 22,-245 28,-245 28,-245 98,-245 98,-245 104,-245 110,-251 110,-257 110,-257 110,-296.5 110,-296.5 110,-302.5 104,-308.5 98,-308.5"/>
<text xml:space="preserve" text-anchor="middle" x="63" y="-291.2" font-family="Helvetica,sans-Serif" font-size="14.00">早期教会</text>
<text xml:space="preserve" text-anchor="middle" x="63" y="-270.95" font-family="Helvetica,sans-Serif" font-size="14.00">Early Church</text>
<text xml:space="preserve" text-anchor="middle" x="63" y="-255.95" font-family="Helvetica,sans-Serif" font-size="14.00">(概念)</text>
</g>
<!-- EarlyChurch&#45;&gt;Jesus -->
<g id="edge2" class="edge">
<title>EarlyChurch&#45;&gt;Jesus</title>
<path fill="none" stroke="black" d="M87.83,-244.71C98.16,-231.8 110.28,-216.65 121.24,-202.95"/>
<polygon fill="black" stroke="black" points="123.79,-205.36 127.3,-195.37 118.32,-200.99 123.79,-205.36"/>
<text xml:space="preserve" text-anchor="middle" x="123.89" y="-217.5" font-family="Helvetica,sans-Serif" font-size="10.00">依赖</text>
</g>
<!-- Reformation -->
<g id="node4" class="node">
<title>Reformation</title>
<path fill="#b3d9ff" stroke="black" d="M206.12,-308.5C206.12,-308.5 139.88,-308.5 139.88,-308.5 133.88,-308.5 127.88,-302.5 127.88,-296.5 127.88,-296.5 127.88,-257 127.88,-257 127.88,-251 133.88,-245 139.88,-245 139.88,-245 206.12,-245 206.12,-245 212.12,-245 218.12,-251 218.12,-257 218.12,-257 218.12,-296.5 218.12,-296.5 218.12,-302.5 212.12,-308.5 206.12,-308.5"/>
<text xml:space="preserve" text-anchor="middle" x="173" y="-291.2" font-family="Helvetica,sans-Serif" font-size="14.00">宗教改革</text>
<text xml:space="preserve" text-anchor="middle" x="173" y="-270.95" font-family="Helvetica,sans-Serif" font-size="14.00">Reformation</text>
<text xml:space="preserve" text-anchor="middle" x="173" y="-255.95" font-family="Helvetica,sans-Serif" font-size="14.00">(概念)</text>
</g>
<!-- Catholic -->
<g id="node12" class="node">
<title>Catholic</title>
<path fill="#ffb3ff" stroke="black" d="M622.25,-194C622.25,-194 559.75,-194 559.75,-194 553.75,-194 547.75,-188 547.75,-182 547.75,-182 547.75,-142.5 547.75,-142.5 547.75,-136.5 553.75,-130.5 559.75,-130.5 559.75,-130.5 622.25,-130.5 622.25,-130.5 628.25,-130.5 634.25,-136.5 634.25,-142.5 634.25,-142.5 634.25,-182 634.25,-182 634.25,-188 628.25,-194 622.25,-194"/>
<text xml:space="preserve" text-anchor="middle" x="591" y="-176.7" font-family="Helvetica,sans-Serif" font-size="14.00">天主教</text>
<text xml:space="preserve" text-anchor="middle" x="591" y="-156.45" font-family="Helvetica,sans-Serif" font-size="14.00">Catholicism</text>
<text xml:space="preserve" text-anchor="middle" x="591" y="-141.45" font-family="Helvetica,sans-Serif" font-size="14.00">(概念)</text>
</g>
<!-- Reformation&#45;&gt;Catholic -->
<g id="edge9" class="edge">
<title>Reformation&#45;&gt;Catholic</title>
<path fill="none" stroke="black" d="M174.11,-244.6C176.18,-232.73 180.66,-220.12 190,-212 215.64,-189.71 432.23,-173.23 536,-166.54"/>
<polygon fill="black" stroke="black" points="536.21,-170.03 545.96,-165.91 535.76,-163.05 536.21,-170.03"/>
<text xml:space="preserve" text-anchor="middle" x="200.5" y="-217.5" font-family="Helvetica,sans-Serif" font-size="10.00">依赖</text>
</g>
<!-- Theology -->
<g id="node5" class="node">
<title>Theology</title>
<path fill="#ffd9b3" stroke="black" d="M479.88,-308.5C479.88,-308.5 388.12,-308.5 388.12,-308.5 382.12,-308.5 376.12,-302.5 376.12,-296.5 376.12,-296.5 376.12,-257 376.12,-257 376.12,-251 382.12,-245 388.12,-245 388.12,-245 479.88,-245 479.88,-245 485.88,-245 491.88,-251 491.88,-257 491.88,-257 491.88,-296.5 491.88,-296.5 491.88,-302.5 485.88,-308.5 479.88,-308.5"/>
<text xml:space="preserve" text-anchor="middle" x="434" y="-291.2" font-family="Helvetica,sans-Serif" font-size="14.00">上帝论</text>
<text xml:space="preserve" text-anchor="middle" x="434" y="-270.95" font-family="Helvetica,sans-Serif" font-size="14.00">Theology Proper</text>
<text xml:space="preserve" text-anchor="middle" x="434" y="-255.95" font-family="Helvetica,sans-Serif" font-size="14.00">(理论)</text>
</g>
<!-- OT -->
<g id="node10" class="node">
<title>OT</title>
<path fill="#b3ffb3" stroke="black" d="M862.25,-194C862.25,-194 781.75,-194 781.75,-194 775.75,-194 769.75,-188 769.75,-182 769.75,-182 769.75,-142.5 769.75,-142.5 769.75,-136.5 775.75,-130.5 781.75,-130.5 781.75,-130.5 862.25,-130.5 862.25,-130.5 868.25,-130.5 874.25,-136.5 874.25,-142.5 874.25,-142.5 874.25,-182 874.25,-182 874.25,-188 868.25,-194 862.25,-194"/>
<text xml:space="preserve" text-anchor="middle" x="822" y="-176.7" font-family="Helvetica,sans-Serif" font-size="14.00">旧约</text>
<text xml:space="preserve" text-anchor="middle" x="822" y="-156.45" font-family="Helvetica,sans-Serif" font-size="14.00">Old Testament</text>
<text xml:space="preserve" text-anchor="middle" x="822" y="-141.45" font-family="Helvetica,sans-Serif" font-size="14.00">(概念)</text>
</g>
<!-- Theology&#45;&gt;OT -->
<g id="edge8" class="edge">
<title>Theology&#45;&gt;OT</title>
<path fill="none" stroke="black" d="M464.32,-244.82C478.48,-232.37 496.32,-219.26 515,-212 615.53,-172.95 652.72,-221.52 757,-194 757.51,-193.86 758.03,-193.73 758.54,-193.58"/>
<polygon fill="black" stroke="black" points="759.52,-196.95 767.95,-190.54 757.36,-190.29 759.52,-196.95"/>
<text xml:space="preserve" text-anchor="middle" x="525.5" y="-217.5" font-family="Helvetica,sans-Serif" font-size="10.00">依赖</text>
</g>
<!-- Trinity -->
<g id="node6" class="node">
<title>Trinity</title>
<path fill="#ffd9b3" stroke="black" d="M404.5,-449.25C404.5,-449.25 355.5,-449.25 355.5,-449.25 349.5,-449.25 343.5,-443.25 343.5,-437.25 343.5,-437.25 343.5,-397.75 343.5,-397.75 343.5,-391.75 349.5,-385.75 355.5,-385.75 355.5,-385.75 404.5,-385.75 404.5,-385.75 410.5,-385.75 416.5,-391.75 416.5,-397.75 416.5,-397.75 416.5,-437.25 416.5,-437.25 416.5,-443.25 410.5,-449.25 404.5,-449.25"/>
<text xml:space="preserve" text-anchor="middle" x="380" y="-431.95" font-family="Helvetica,sans-Serif" font-size="14.00">三位一体</text>
<text xml:space="preserve" text-anchor="middle" x="380" y="-411.7" font-family="Helvetica,sans-Serif" font-size="14.00">Trinity</text>
<text xml:space="preserve" text-anchor="middle" x="380" y="-396.7" font-family="Helvetica,sans-Serif" font-size="14.00">(理论)</text>
</g>
<!-- Trinity&#45;&gt;Theology -->
<g id="edge4" class="edge">
<title>Trinity&#45;&gt;Theology</title>
<path fill="none" stroke="black" d="M392.12,-385.36C399.69,-365.9 409.54,-340.61 417.78,-319.43"/>
<polygon fill="black" stroke="black" points="421.01,-320.78 421.37,-310.19 414.48,-318.24 421.01,-320.78"/>
<text xml:space="preserve" text-anchor="middle" x="414.27" y="-358.25" font-family="Helvetica,sans-Serif" font-size="10.00">依赖</text>
</g>
<!-- Christology -->
<g id="node7" class="node">
<title>Christology</title>
<path fill="#ffd9b3" stroke="black" d="M313.75,-308.5C313.75,-308.5 254.25,-308.5 254.25,-308.5 248.25,-308.5 242.25,-302.5 242.25,-296.5 242.25,-296.5 242.25,-257 242.25,-257 242.25,-251 248.25,-245 254.25,-245 254.25,-245 313.75,-245 313.75,-245 319.75,-245 325.75,-251 325.75,-257 325.75,-257 325.75,-296.5 325.75,-296.5 325.75,-302.5 319.75,-308.5 313.75,-308.5"/>
<text xml:space="preserve" text-anchor="middle" x="284" y="-291.2" font-family="Helvetica,sans-Serif" font-size="14.00">基督论</text>
<text xml:space="preserve" text-anchor="middle" x="284" y="-270.95" font-family="Helvetica,sans-Serif" font-size="14.00">Christology</text>
<text xml:space="preserve" text-anchor="middle" x="284" y="-255.95" font-family="Helvetica,sans-Serif" font-size="14.00">(理论)</text>
</g>
<!-- Trinity&#45;&gt;Christology -->
<g id="edge5" class="edge">
<title>Trinity&#45;&gt;Christology</title>
<path fill="none" stroke="black" d="M358.46,-385.36C344.68,-365.46 326.69,-339.44 311.83,-317.98"/>
<polygon fill="black" stroke="black" points="314.9,-316.26 306.33,-310.03 309.15,-320.24 314.9,-316.26"/>
<text xml:space="preserve" text-anchor="middle" x="356.71" y="-358.25" font-family="Helvetica,sans-Serif" font-size="10.00">依赖</text>
</g>
<!-- Christology&#45;&gt;Jesus -->
<g id="edge3" class="edge">
<title>Christology&#45;&gt;Jesus</title>
<path fill="none" stroke="black" d="M251.49,-244.73C240.12,-234.14 227.16,-222.37 215,-212 206.81,-205.02 197.81,-197.73 189.26,-190.98"/>
<polygon fill="black" stroke="black" points="191.45,-188.25 181.42,-184.84 187.14,-193.76 191.45,-188.25"/>
<text xml:space="preserve" text-anchor="middle" x="240.99" y="-217.5" font-family="Helvetica,sans-Serif" font-size="10.00">依赖</text>
</g>
<!-- Soteriology -->
<g id="node8" class="node">
<title>Soteriology</title>
<path fill="#ffd9b3" stroke="black" d="M313.75,-449.25C313.75,-449.25 254.25,-449.25 254.25,-449.25 248.25,-449.25 242.25,-443.25 242.25,-437.25 242.25,-437.25 242.25,-397.75 242.25,-397.75 242.25,-391.75 248.25,-385.75 254.25,-385.75 254.25,-385.75 313.75,-385.75 313.75,-385.75 319.75,-385.75 325.75,-391.75 325.75,-397.75 325.75,-397.75 325.75,-437.25 325.75,-437.25 325.75,-443.25 319.75,-449.25 313.75,-449.25"/>
<text xml:space="preserve" text-anchor="middle" x="284" y="-431.95" font-family="Helvetica,sans-Serif" font-size="14.00">救赎论</text>
<text xml:space="preserve" text-anchor="middle" x="284" y="-411.7" font-family="Helvetica,sans-Serif" font-size="14.00">Soteriology</text>
<text xml:space="preserve" text-anchor="middle" x="284" y="-396.7" font-family="Helvetica,sans-Serif" font-size="14.00">(理论)</text>
</g>
<!-- Soteriology&#45;&gt;Christology -->
<g id="edge6" class="edge">
<title>Soteriology&#45;&gt;Christology</title>
<path fill="none" stroke="black" d="M284,-385.36C284,-366.08 284,-341.07 284,-320.01"/>
<polygon fill="black" stroke="black" points="287.5,-320.3 284,-310.3 280.5,-320.3 287.5,-320.3"/>
<text xml:space="preserve" text-anchor="middle" x="294.5" y="-358.25" font-family="Helvetica,sans-Serif" font-size="10.00">依赖</text>
</g>
<!-- Eschatology -->
<g id="node9" class="node">
<title>Eschatology</title>
<path fill="#ffd9b3" stroke="black" d="M511.75,-449.25C511.75,-449.25 446.25,-449.25 446.25,-449.25 440.25,-449.25 434.25,-443.25 434.25,-437.25 434.25,-437.25 434.25,-397.75 434.25,-397.75 434.25,-391.75 440.25,-385.75 446.25,-385.75 446.25,-385.75 511.75,-385.75 511.75,-385.75 517.75,-385.75 523.75,-391.75 523.75,-397.75 523.75,-397.75 523.75,-437.25 523.75,-437.25 523.75,-443.25 517.75,-449.25 511.75,-449.25"/>
<text xml:space="preserve" text-anchor="middle" x="479" y="-431.95" font-family="Helvetica,sans-Serif" font-size="14.00">末世论</text>
<text xml:space="preserve" text-anchor="middle" x="479" y="-411.7" font-family="Helvetica,sans-Serif" font-size="14.00">Eschatology</text>
<text xml:space="preserve" text-anchor="middle" x="479" y="-396.7" font-family="Helvetica,sans-Serif" font-size="14.00">(概念)</text>
</g>
<!-- NT -->
<g id="node11" class="node">
<title>NT</title>
<path fill="#b3ffb3" stroke="black" d="M866.88,-308.5C866.88,-308.5 781.12,-308.5 781.12,-308.5 775.12,-308.5 769.12,-302.5 769.12,-296.5 769.12,-296.5 769.12,-257 769.12,-257 769.12,-251 775.12,-245 781.12,-245 781.12,-245 866.88,-245 866.88,-245 872.88,-245 878.88,-251 878.88,-257 878.88,-257 878.88,-296.5 878.88,-296.5 878.88,-302.5 872.88,-308.5 866.88,-308.5"/>
<text xml:space="preserve" text-anchor="middle" x="824" y="-291.2" font-family="Helvetica,sans-Serif" font-size="14.00">新约</text>
<text xml:space="preserve" text-anchor="middle" x="824" y="-270.95" font-family="Helvetica,sans-Serif" font-size="14.00">New Testament</text>
<text xml:space="preserve" text-anchor="middle" x="824" y="-255.95" font-family="Helvetica,sans-Serif" font-size="14.00">(概念)</text>
</g>
<!-- NT&#45;&gt;OT -->
<g id="edge7" class="edge">
<title>NT&#45;&gt;OT</title>
<path fill="none" stroke="black" d="M823.45,-244.71C823.23,-232.54 822.98,-218.38 822.75,-205.31"/>
<polygon fill="black" stroke="black" points="826.25,-205.64 822.58,-195.7 819.26,-205.76 826.25,-205.64"/>
<text xml:space="preserve" text-anchor="middle" x="833.62" y="-217.5" font-family="Helvetica,sans-Serif" font-size="10.00">依赖</text>
</g>
<!-- Orthodox -->
<g id="node13" class="node">
<title>Orthodox</title>
<path fill="#ffb3ff" stroke="black" d="M615.5,-308.5C615.5,-308.5 560.5,-308.5 560.5,-308.5 554.5,-308.5 548.5,-302.5 548.5,-296.5 548.5,-296.5 548.5,-257 548.5,-257 548.5,-251 554.5,-245 560.5,-245 560.5,-245 615.5,-245 615.5,-245 621.5,-245 627.5,-251 627.5,-257 627.5,-257 627.5,-296.5 627.5,-296.5 627.5,-302.5 621.5,-308.5 615.5,-308.5"/>
<text xml:space="preserve" text-anchor="middle" x="588" y="-291.2" font-family="Helvetica,sans-Serif" font-size="14.00">东正教</text>
<text xml:space="preserve" text-anchor="middle" x="588" y="-270.95" font-family="Helvetica,sans-Serif" font-size="14.00">Orthodoxy</text>
<text xml:space="preserve" text-anchor="middle" x="588" y="-255.95" font-family="Helvetica,sans-Serif" font-size="14.00">(概念)</text>
</g>
<!-- Orthodox&#45;&gt;Catholic -->
<g id="edge11" class="edge">
<title>Orthodox&#45;&gt;Catholic</title>
<path fill="none" stroke="black" d="M589.12,-233.58C589.37,-224.39 589.63,-214.66 589.87,-205.47"/>
<polygon fill="black" stroke="black" points="585.64,-233.11 588.87,-243.2 592.63,-233.29 585.64,-233.11"/>
<polygon fill="black" stroke="black" points="593.37,-205.79 590.13,-195.7 586.37,-205.6 593.37,-205.79"/>
<text xml:space="preserve" text-anchor="middle" x="600.18" y="-217.5" font-family="Helvetica,sans-Serif" font-size="10.00">对比</text>
</g>
<!-- Protestant -->
<g id="node14" class="node">
<title>Protestant</title>
<path fill="#ffb3ff" stroke="black" d="M732.62,-308.5C732.62,-308.5 657.38,-308.5 657.38,-308.5 651.38,-308.5 645.38,-302.5 645.38,-296.5 645.38,-296.5 645.38,-257 645.38,-257 645.38,-251 651.38,-245 657.38,-245 657.38,-245 732.62,-245 732.62,-245 738.62,-245 744.62,-251 744.62,-257 744.62,-257 744.62,-296.5 744.62,-296.5 744.62,-302.5 738.62,-308.5 732.62,-308.5"/>
<text xml:space="preserve" text-anchor="middle" x="695" y="-291.2" font-family="Helvetica,sans-Serif" font-size="14.00">新教</text>
<text xml:space="preserve" text-anchor="middle" x="695" y="-270.95" font-family="Helvetica,sans-Serif" font-size="14.00">Protestantism</text>
<text xml:space="preserve" text-anchor="middle" x="695" y="-255.95" font-family="Helvetica,sans-Serif" font-size="14.00">(概念)</text>
</g>
<!-- Protestant&#45;&gt;Catholic -->
<g id="edge12" class="edge">
<title>Protestant&#45;&gt;Catholic</title>
<path fill="none" stroke="black" d="M658.56,-236.34C648.39,-225.33 637.33,-213.37 627.17,-202.37"/>
<polygon fill="black" stroke="black" points="655.92,-238.63 665.28,-243.6 661.06,-233.88 655.92,-238.63"/>
<polygon fill="black" stroke="black" points="629.99,-200.27 620.63,-195.3 624.85,-205.02 629.99,-200.27"/>
<text xml:space="preserve" text-anchor="middle" x="659.73" y="-217.5" font-family="Helvetica,sans-Serif" font-size="10.00">对比</text>
</g>
<!-- Sacraments -->
<g id="node15" class="node">
<title>Sacraments</title>
<path fill="#ffffb3" stroke="black" d="M981.38,-449.25C981.38,-449.25 916.62,-449.25 916.62,-449.25 910.62,-449.25 904.62,-443.25 904.62,-437.25 904.62,-437.25 904.62,-397.75 904.62,-397.75 904.62,-391.75 910.62,-385.75 916.62,-385.75 916.62,-385.75 981.38,-385.75 981.38,-385.75 987.38,-385.75 993.38,-391.75 993.38,-397.75 993.38,-397.75 993.38,-437.25 993.38,-437.25 993.38,-443.25 987.38,-449.25 981.38,-449.25"/>
<text xml:space="preserve" text-anchor="middle" x="949" y="-431.95" font-family="Helvetica,sans-Serif" font-size="14.00">圣礼</text>
<text xml:space="preserve" text-anchor="middle" x="949" y="-411.7" font-family="Helvetica,sans-Serif" font-size="14.00">Sacraments</text>
<text xml:space="preserve" text-anchor="middle" x="949" y="-396.7" font-family="Helvetica,sans-Serif" font-size="14.00">(实验)</text>
</g>
<!-- Worship -->
<g id="node16" class="node">
<title>Worship</title>
<path fill="#ffffb3" stroke="black" d="M969.75,-308.5C969.75,-308.5 928.25,-308.5 928.25,-308.5 922.25,-308.5 916.25,-302.5 916.25,-296.5 916.25,-296.5 916.25,-257 916.25,-257 916.25,-251 922.25,-245 928.25,-245 928.25,-245 969.75,-245 969.75,-245 975.75,-245 981.75,-251 981.75,-257 981.75,-257 981.75,-296.5 981.75,-296.5 981.75,-302.5 975.75,-308.5 969.75,-308.5"/>
<text xml:space="preserve" text-anchor="middle" x="949" y="-291.2" font-family="Helvetica,sans-Serif" font-size="14.00">崇拜</text>
<text xml:space="preserve" text-anchor="middle" x="949" y="-270.95" font-family="Helvetica,sans-Serif" font-size="14.00">Worship</text>
<text xml:space="preserve" text-anchor="middle" x="949" y="-255.95" font-family="Helvetica,sans-Serif" font-size="14.00">(实验)</text>
</g>
<!-- Sacraments&#45;&gt;Worship -->
<g id="edge10" class="edge">
<title>Sacraments&#45;&gt;Worship</title>
<path fill="none" stroke="black" d="M949,-385.36C949,-366.08 949,-341.07 949,-320.01"/>
<polygon fill="black" stroke="black" points="952.5,-320.3 949,-310.3 945.5,-320.3 952.5,-320.3"/>
<text xml:space="preserve" text-anchor="middle" x="959.5" y="-358.25" font-family="Helvetica,sans-Serif" font-size="10.00">属于</text>
</g>
<!-- L1 -->
<g id="node17" class="node">
<title>L1</title>
<path fill="#f5f5f5" stroke="none" d="M1121.12,-441.75C1121.12,-441.75 1030.88,-441.75 1030.88,-441.75 1024.88,-441.75 1018.88,-435.75 1018.88,-429.75 1018.88,-429.75 1018.88,-405.25 1018.88,-405.25 1018.88,-399.25 1024.88,-393.25 1030.88,-393.25 1030.88,-393.25 1121.12,-393.25 1121.12,-393.25 1127.12,-393.25 1133.12,-399.25 1133.12,-405.25 1133.12,-405.25 1133.12,-429.75 1133.12,-429.75 1133.12,-435.75 1127.12,-441.75 1121.12,-441.75"/>
<text xml:space="preserve" text-anchor="middle" x="1076" y="-424.45" font-family="Helvetica,sans-Serif" font-size="14.00">A → B [依赖]</text>
<text xml:space="preserve" text-anchor="middle" x="1076" y="-404.2" font-family="Helvetica,sans-Serif" font-size="14.00">读作：A 依赖 B</text>
</g>
<!-- L2 -->
<g id="node18" class="node">
<title>L2</title>
<path fill="#f5f5f5" stroke="none" d="M1253.12,-441.75C1253.12,-441.75 1162.88,-441.75 1162.88,-441.75 1156.88,-441.75 1150.88,-435.75 1150.88,-429.75 1150.88,-429.75 1150.88,-405.25 1150.88,-405.25 1150.88,-399.25 1156.88,-393.25 1162.88,-393.25 1162.88,-393.25 1253.12,-393.25 1253.12,-393.25 1259.12,-393.25 1265.12,-399.25 1265.12,-405.25 1265.12,-405.25 1265.12,-429.75 1265.12,-429.75 1265.12,-435.75 1259.12,-441.75 1253.12,-441.75"/>
<text xml:space="preserve" text-anchor="middle" x="1208" y="-424.45" font-family="Helvetica,sans-Serif" font-size="14.00">A → B [属于]</text>
<text xml:space="preserve" text-anchor="middle" x="1208" y="-404.2" font-family="Helvetica,sans-Serif" font-size="14.00">读作：A 属于 B</text>
</g>
<!-- L3 -->
<g id="node19" class="node">
<title>L3</title>
<path fill="#f5f5f5" stroke="none" d="M1403.12,-441.75C1403.12,-441.75 1294.88,-441.75 1294.88,-441.75 1288.88,-441.75 1282.88,-435.75 1282.88,-429.75 1282.88,-429.75 1282.88,-405.25 1282.88,-405.25 1282.88,-399.25 1288.88,-393.25 1294.88,-393.25 1294.88,-393.25 1403.12,-393.25 1403.12,-393.25 1409.12,-393.25 1415.12,-399.25 1415.12,-405.25 1415.12,-405.25 1415.12,-429.75 1415.12,-429.75 1415.12,-435.75 1409.12,-441.75 1403.12,-441.75"/>
<text xml:space="preserve" text-anchor="middle" x="1349" y="-424.45" font-family="Helvetica,sans-Serif" font-size="14.00">A ↔ B [对比]</text>
<text xml:space="preserve" text-anchor="middle" x="1349" y="-404.2" font-family="Helvetica,sans-Serif" font-size="14.00">读作：A 与 B 对比</text>
</g>
</g>
</svg>
