<?xml version="1.0" encoding="UTF-8" standalone="no"?>
<!DOCTYPE svg PUBLIC "-//W3C//DTD SVG 1.1//EN"
 "http://www.w3.org/Graphics/SVG/1.1/DTD/svg11.dtd">
<!-- Generated by graphviz version 14.1.3 (20260303.0454)
 -->
<!-- Title: linguistics Pages: 1 -->
<svg width="1644pt" height="361pt"
 viewBox="0.00 0.00 1644.00 361.00" xmlns="http://www.w3.org/2000/svg" xmlns:xlink="http://www.w3.org/1999/xlink">
<g id="graph0" class="graph" transform="scale(1 1) rotate(0) translate(4 356.75)">
<title>linguistics</title>
<polygon fill="white" stroke="none" points="-4,4 -4,-356.75 1640,-356.75 1640,4 -4,4"/>
<g id="clust1" class="cluster">
<title>cluster_d1</title>
<polygon fill="#e8f4f8" stroke="black" points="256,-8 256,-344.75 552,-344.75 552,-8 256,-8"/>
<text xml:space="preserve" text-anchor="middle" x="404" y="-327.45" font-family="Times,serif" font-size="14.00">D1 语言分析层次</text>
</g>
<g id="clust2" class="cluster">
<title>cluster_d2</title>
<polygon fill="#f8f0e8" stroke="black" points="8,-122.5 8,-344.75 248,-344.75 248,-122.5 8,-122.5"/>
<text xml:space="preserve" text-anchor="middle" x="128" y="-327.45" font-family="Times,serif" font-size="14.00">D2 理论视角</text>
</g>
<g id="clust3" class="cluster">
<title>cluster_d3</title>
<polygon fill="#e8f8e8" stroke="black" points="938,-8 938,-344.75 1058,-344.75 1058,-8 938,-8"/>
<text xml:space="preserve" text-anchor="middle" x="998" y="-327.45" font-family="Times,serif" font-size="14.00">D3 跨语言共性</text>
</g>
<g id="clust4" class="cluster">
<title>cluster_d4</title>
<polygon fill="#f8e8f8" stroke="black" points="560,-237 560,-344.75 930,-344.75 930,-237 560,-237"/>
<text xml:space="preserve" text-anchor="middle" x="745" y="-327.45" font-family="Times,serif" font-size="14.00">D4 方法与量化</text>
</g>
<g id="clust5" class="cluster">
<title>cluster_legend</title>
<polygon fill="#f5f5f5" stroke="black" points="1066,-244.5 1066,-337.25 1628,-337.25 1628,-244.5 1066,-244.5"/>
<text xml:space="preserve" text-anchor="middle" x="1347" y="-319.95" font-family="Times,serif" font-size="14.00">关系图例</text>
</g>
<!-- Phonetics -->
<g id="node1" class="node">
<title>Phonetics</title>
<path fill="#b3d9ff" stroke="black" d="M329.62,-194C329.62,-194 278.38,-194 278.38,-194 272.38,-194 266.38,-188 266.38,-182 266.38,-182 266.38,-142.5 266.38,-142.5 266.38,-136.5 272.38,-130.5 278.38,-130.5 278.38,-130.5 329.62,-130.5 329.62,-130.5 335.62,-130.5 341.62,-136.5 341.62,-142.5 341.62,-142.5 341.62,-182 341.62,-182 341.62,-188 335.62,-194 329.62,-194"/>
<text xml:space="preserve" text-anchor="middle" x="304" y="-176.7" font-family="Helvetica,sans-Serif" font-size="14.00">语音学</text>
<text xml:space="preserve" text-anchor="middle" x="304" y="-156.45" font-family="Helvetica,sans-Serif" font-size="14.00">Phonetics</text>
<text xml:space="preserve" text-anchor="middle" x="304" y="-141.45" font-family="Helvetica,sans-Serif" font-size="14.00">(概念)</text>
</g>
<!-- Phonology -->
<g id="node2" class="node">
<title>Phonology</title>
<path fill="#b3d9ff" stroke="black" d="M331.88,-308.5C331.88,-308.5 276.12,-308.5 276.12,-308.5 270.12,-308.5 264.12,-302.5 264.12,-296.5 264.12,-296.5 264.12,-257 264.12,-257 264.12,-251 270.12,-245 276.12,-245 276.12,-245 331.88,-245 331.88,-245 337.88,-245 343.88,-251 343.88,-257 343.88,-257 343.88,-296.5 343.88,-296.5 343.88,-302.5 337.88,-308.5 331.88,-308.5"/>
<text xml:space="preserve" text-anchor="middle" x="304" y="-291.2" font-family="Helvetica,sans-Serif" font-size="14.00">音系学</text>
<text xml:space="preserve" text-anchor="middle" x="304" y="-270.95" font-family="Helvetica,sans-Serif" font-size="14.00">Phonology</text>
<text xml:space="preserve" text-anchor="middle" x="304" y="-255.95" font-family="Helvetica,sans-Serif" font-size="14.00">(理论)</text>
</g>
<!-- Phonology&#45;&gt;Phonetics -->
<g id="edge1" class="edge">
<title>Phonology&#45;&gt;Phonetics</title>
<path fill="none" stroke="black" d="M304,-244.71C304,-232.54 304,-218.38 304,-205.31"/>
<polygon fill="black" stroke="black" points="307.5,-205.7 304,-195.7 300.5,-205.7 307.5,-205.7"/>
<text xml:space="preserve" text-anchor="middle" x="314.5" y="-217.5" font-family="Helvetica,sans-Serif" font-size="10.00">依赖</text>
</g>
<!-- Morphology -->
<g id="node3" class="node">
<title>Morphology</title>
<path fill="#b3d9ff" stroke="black" d="M433.62,-79.5C433.62,-79.5 370.38,-79.5 370.38,-79.5 364.38,-79.5 358.38,-73.5 358.38,-67.5 358.38,-67.5 358.38,-28 358.38,-28 358.38,-22 364.38,-16 370.38,-16 370.38,-16 433.62,-16 433.62,-16 439.62,-16 445.62,-22 445.62,-28 445.62,-28 445.62,-67.5 445.62,-67.5 445.62,-73.5 439.62,-79.5 433.62,-79.5"/>
<text xml:space="preserve" text-anchor="middle" x="402" y="-62.2" font-family="Helvetica,sans-Serif" font-size="14.00">形态学</text>
<text xml:space="preserve" text-anchor="middle" x="402" y="-41.95" font-family="Helvetica,sans-Serif" font-size="14.00">Morphology</text>
<text xml:space="preserve" text-anchor="middle" x="402" y="-26.95" font-family="Helvetica,sans-Serif" font-size="14.00">(概念)</text>
</g>
<!-- Syntax -->
<g id="node4" class="node">
<title>Syntax</title>
<path fill="#b3d9ff" stroke="black" d="M419.38,-194C419.38,-194 384.62,-194 384.62,-194 378.62,-194 372.62,-188 372.62,-182 372.62,-182 372.62,-142.5 372.62,-142.5 372.62,-136.5 378.62,-130.5 384.62,-130.5 384.62,-130.5 419.38,-130.5 419.38,-130.5 425.38,-130.5 431.38,-136.5 431.38,-142.5 431.38,-142.5 431.38,-182 431.38,-182 431.38,-188 425.38,-194 419.38,-194"/>
<text xml:space="preserve" text-anchor="middle" x="402" y="-176.7" font-family="Helvetica,sans-Serif" font-size="14.00">句法学</text>
<text xml:space="preserve" text-anchor="middle" x="402" y="-156.45" font-family="Helvetica,sans-Serif" font-size="14.00">Syntax</text>
<text xml:space="preserve" text-anchor="middle" x="402" y="-141.45" font-family="Helvetica,sans-Serif" font-size="14.00">(理论)</text>
</g>
<!-- Syntax&#45;&gt;Morphology -->
<g id="edge2" class="edge">
<title>Syntax&#45;&gt;Morphology</title>
<path fill="none" stroke="black" d="M402,-130.21C402,-118.04 402,-103.88 402,-90.81"/>
<polygon fill="black" stroke="black" points="405.5,-91.2 402,-81.2 398.5,-91.2 405.5,-91.2"/>
<text xml:space="preserve" text-anchor="middle" x="412.5" y="-103" font-family="Helvetica,sans-Serif" font-size="10.00">依赖</text>
</g>
<!-- Semantics -->
<g id="node5" class="node">
<title>Semantics</title>
<path fill="#b3d9ff" stroke="black" d="M429.88,-308.5C429.88,-308.5 374.12,-308.5 374.12,-308.5 368.12,-308.5 362.12,-302.5 362.12,-296.5 362.12,-296.5 362.12,-257 362.12,-257 362.12,-251 368.12,-245 374.12,-245 374.12,-245 429.88,-245 429.88,-245 435.88,-245 441.88,-251 441.88,-257 441.88,-257 441.88,-296.5 441.88,-296.5 441.88,-302.5 435.88,-308.5 429.88,-308.5"/>
<text xml:space="preserve" text-anchor="middle" x="402" y="-291.2" font-family="Helvetica,sans-Serif" font-size="14.00">语义学</text>
<text xml:space="preserve" text-anchor="middle" x="402" y="-270.95" font-family="Helvetica,sans-Serif" font-size="14.00">Semantics</text>
<text xml:space="preserve" text-anchor="middle" x="402" y="-255.95" font-family="Helvetica,sans-Serif" font-size="14.00">(概念)</text>
</g>
<!-- Semantics&#45;&gt;Syntax -->
<g id="edge3" class="edge">
<title>Semantics&#45;&gt;Syntax</title>
<path fill="none" stroke="black" d="M402,-244.71C402,-232.54 402,-218.38 402,-205.31"/>
<polygon fill="black" stroke="black" points="405.5,-205.7 402,-195.7 398.5,-205.7 405.5,-205.7"/>
<text xml:space="preserve" text-anchor="middle" x="412.5" y="-217.5" font-family="Helvetica,sans-Serif" font-size="10.00">依赖</text>
</g>
<!-- Pragmatics -->
<g id="node6" class="node">
<title>Pragmatics</title>
<path fill="#b3d9ff" stroke="black" d="M532.12,-308.5C532.12,-308.5 471.88,-308.5 471.88,-308.5 465.88,-308.5 459.88,-302.5 459.88,-296.5 459.88,-296.5 459.88,-257 459.88,-257 459.88,-251 465.88,-245 471.88,-245 471.88,-245 532.12,-245 532.12,-245 538.12,-245 544.12,-251 544.12,-257 544.12,-257 544.12,-296.5 544.12,-296.5 544.12,-302.5 538.12,-308.5 532.12,-308.5"/>
<text xml:space="preserve" text-anchor="middle" x="502" y="-291.2" font-family="Helvetica,sans-Serif" font-size="14.00">语用学</text>
<text xml:space="preserve" text-anchor="middle" x="502" y="-270.95" font-family="Helvetica,sans-Serif" font-size="14.00">Pragmatics</text>
<text xml:space="preserve" text-anchor="middle" x="502" y="-255.95" font-family="Helvetica,sans-Serif" font-size="14.00">(概念)</text>
</g>
<!-- Formalism -->
<g id="node7" class="node">
<title>Formalism</title>
<path fill="#ffd9b3" stroke="black" d="M215.25,-308.5C215.25,-308.5 158.75,-308.5 158.75,-308.5 152.75,-308.5 146.75,-302.5 146.75,-296.5 146.75,-296.5 146.75,-257 146.75,-257 146.75,-251 152.75,-245 158.75,-245 158.75,-245 215.25,-245 215.25,-245 221.25,-245 227.25,-251 227.25,-257 227.25,-257 227.25,-296.5 227.25,-296.5 227.25,-302.5 221.25,-308.5 215.25,-308.5"/>
<text xml:space="preserve" text-anchor="middle" x="187" y="-291.2" font-family="Helvetica,sans-Serif" font-size="14.00">形式主义</text>
<text xml:space="preserve" text-anchor="middle" x="187" y="-270.95" font-family="Helvetica,sans-Serif" font-size="14.00">Formalism</text>
<text xml:space="preserve" text-anchor="middle" x="187" y="-255.95" font-family="Helvetica,sans-Serif" font-size="14.00">(理论)</text>
</g>
<!-- Formalism&#45;&gt;Syntax -->
<g id="edge4" class="edge">
<title>Formalism&#45;&gt;Syntax</title>
<path fill="none" stroke="black" d="M224.97,-244.82C240.88,-233.13 260.06,-220.58 279,-212 309.04,-198.39 320.54,-206.66 351,-194 354.8,-192.42 358.66,-190.59 362.46,-188.62"/>
<polygon fill="black" stroke="black" points="363.93,-191.8 370.98,-183.9 360.54,-185.68 363.93,-191.8"/>
<text xml:space="preserve" text-anchor="middle" x="289.5" y="-217.5" font-family="Helvetica,sans-Serif" font-size="10.00">用于</text>
</g>
<!-- Functionalism -->
<g id="node8" class="node">
<title>Functionalism</title>
<path fill="#ffd9b3" stroke="black" d="M104,-194C104,-194 28,-194 28,-194 22,-194 16,-188 16,-182 16,-182 16,-142.5 16,-142.5 16,-136.5 22,-130.5 28,-130.5 28,-130.5 104,-130.5 104,-130.5 110,-130.5 116,-136.5 116,-142.5 116,-142.5 116,-182 116,-182 116,-188 110,-194 104,-194"/>
<text xml:space="preserve" text-anchor="middle" x="66" y="-176.7" font-family="Helvetica,sans-Serif" font-size="14.00">功能主义</text>
<text xml:space="preserve" text-anchor="middle" x="66" y="-156.45" font-family="Helvetica,sans-Serif" font-size="14.00">Functionalism</text>
<text xml:space="preserve" text-anchor="middle" x="66" y="-141.45" font-family="Helvetica,sans-Serif" font-size="14.00">(理论)</text>
</g>
<!-- Formalism&#45;&gt;Functionalism -->
<g id="edge8" class="edge">
<title>Formalism&#45;&gt;Functionalism</title>
<path fill="none" stroke="black" d="M145.45,-237.12C133.2,-225.73 119.79,-213.26 107.54,-201.87"/>
<polygon fill="black" stroke="black" points="142.8,-239.43 152.51,-243.68 147.57,-234.31 142.8,-239.43"/>
<polygon fill="black" stroke="black" points="110.09,-199.46 100.38,-195.22 105.32,-204.59 110.09,-199.46"/>
<text xml:space="preserve" text-anchor="middle" x="144.24" y="-217.5" font-family="Helvetica,sans-Serif" font-size="10.00">对比</text>
</g>
<!-- CogLing -->
<g id="node9" class="node">
<title>CogLing</title>
<path fill="#ffd9b3" stroke="black" d="M227.62,-194C227.62,-194 146.38,-194 146.38,-194 140.38,-194 134.38,-188 134.38,-182 134.38,-182 134.38,-142.5 134.38,-142.5 134.38,-136.5 140.38,-130.5 146.38,-130.5 146.38,-130.5 227.62,-130.5 227.62,-130.5 233.62,-130.5 239.62,-136.5 239.62,-142.5 239.62,-142.5 239.62,-182 239.62,-182 239.62,-188 233.62,-194 227.62,-194"/>
<text xml:space="preserve" text-anchor="middle" x="187" y="-176.7" font-family="Helvetica,sans-Serif" font-size="14.00">认知语言学</text>
<text xml:space="preserve" text-anchor="middle" x="187" y="-156.45" font-family="Helvetica,sans-Serif" font-size="14.00">Cognitive Ling.</text>
<text xml:space="preserve" text-anchor="middle" x="187" y="-141.45" font-family="Helvetica,sans-Serif" font-size="14.00">(理论)</text>
</g>
<!-- Formalism&#45;&gt;CogLing -->
<g id="edge9" class="edge">
<title>Formalism&#45;&gt;CogLing</title>
<path fill="none" stroke="black" d="M187,-233.58C187,-224.39 187,-214.66 187,-205.47"/>
<polygon fill="black" stroke="black" points="183.5,-233.2 187,-243.2 190.5,-233.2 183.5,-233.2"/>
<polygon fill="black" stroke="black" points="190.5,-205.7 187,-195.7 183.5,-205.7 190.5,-205.7"/>
<text xml:space="preserve" text-anchor="middle" x="197.5" y="-217.5" font-family="Helvetica,sans-Serif" font-size="10.00">对比</text>
</g>
<!-- Typology -->
<g id="node10" class="node">
<title>Typology</title>
<path fill="#b3ffb3" stroke="black" d="M1025.62,-194C1025.62,-194 962.38,-194 962.38,-194 956.38,-194 950.38,-188 950.38,-182 950.38,-182 950.38,-142.5 950.38,-142.5 950.38,-136.5 956.38,-130.5 962.38,-130.5 962.38,-130.5 1025.62,-130.5 1025.62,-130.5 1031.62,-130.5 1037.62,-136.5 1037.62,-142.5 1037.62,-142.5 1037.62,-182 1037.62,-182 1037.62,-188 1031.62,-194 1025.62,-194"/>
<text xml:space="preserve" text-anchor="middle" x="994" y="-176.7" font-family="Helvetica,sans-Serif" font-size="14.00">语言类型学</text>
<text xml:space="preserve" text-anchor="middle" x="994" y="-156.45" font-family="Helvetica,sans-Serif" font-size="14.00">Typology</text>
<text xml:space="preserve" text-anchor="middle" x="994" y="-141.45" font-family="Helvetica,sans-Serif" font-size="14.00">(方法)</text>
</g>
<!-- Universals -->
<g id="node11" class="node">
<title>Universals</title>
<path fill="#b3ffb3" stroke="black" d="M1021.5,-79.5C1021.5,-79.5 966.5,-79.5 966.5,-79.5 960.5,-79.5 954.5,-73.5 954.5,-67.5 954.5,-67.5 954.5,-28 954.5,-28 954.5,-22 960.5,-16 966.5,-16 966.5,-16 1021.5,-16 1021.5,-16 1027.5,-16 1033.5,-22 1033.5,-28 1033.5,-28 1033.5,-67.5 1033.5,-67.5 1033.5,-73.5 1027.5,-79.5 1021.5,-79.5"/>
<text xml:space="preserve" text-anchor="middle" x="994" y="-62.2" font-family="Helvetica,sans-Serif" font-size="14.00">语言共性</text>
<text xml:space="preserve" text-anchor="middle" x="994" y="-41.95" font-family="Helvetica,sans-Serif" font-size="14.00">Universals</text>
<text xml:space="preserve" text-anchor="middle" x="994" y="-26.95" font-family="Helvetica,sans-Serif" font-size="14.00">(概念)</text>
</g>
<!-- Typology&#45;&gt;Universals -->
<g id="edge7" class="edge">
<title>Typology&#45;&gt;Universals</title>
<path fill="none" stroke="black" d="M994,-130.21C994,-118.04 994,-103.88 994,-90.81"/>
<polygon fill="black" stroke="black" points="997.5,-91.2 994,-81.2 990.5,-91.2 997.5,-91.2"/>
<text xml:space="preserve" text-anchor="middle" x="1004.5" y="-103" font-family="Helvetica,sans-Serif" font-size="10.00">用于</text>
</g>
<!-- Historical -->
<g id="node12" class="node">
<title>Historical</title>
<path fill="#b3ffb3" stroke="black" d="M1038.25,-308.5C1038.25,-308.5 957.75,-308.5 957.75,-308.5 951.75,-308.5 945.75,-302.5 945.75,-296.5 945.75,-296.5 945.75,-257 945.75,-257 945.75,-251 951.75,-245 957.75,-245 957.75,-245 1038.25,-245 1038.25,-245 1044.25,-245 1050.25,-251 1050.25,-257 1050.25,-257 1050.25,-296.5 1050.25,-296.5 1050.25,-302.5 1044.25,-308.5 1038.25,-308.5"/>
<text xml:space="preserve" text-anchor="middle" x="998" y="-291.2" font-family="Helvetica,sans-Serif" font-size="14.00">历史语言学</text>
<text xml:space="preserve" text-anchor="middle" x="998" y="-270.95" font-family="Helvetica,sans-Serif" font-size="14.00">Historical Ling.</text>
<text xml:space="preserve" text-anchor="middle" x="998" y="-255.95" font-family="Helvetica,sans-Serif" font-size="14.00">(概念)</text>
</g>
<!-- Historical&#45;&gt;Typology -->
<g id="edge10" class="edge">
<title>Historical&#45;&gt;Typology</title>
<path fill="none" stroke="black" d="M996.9,-244.71C996.46,-232.54 995.96,-218.38 995.5,-205.31"/>
<polygon fill="black" stroke="black" points="999.01,-205.57 995.15,-195.7 992.01,-205.82 999.01,-205.57"/>
<text xml:space="preserve" text-anchor="middle" x="1006.74" y="-217.5" font-family="Helvetica,sans-Serif" font-size="10.00">类比</text>
</g>
<!-- Corpus -->
<g id="node13" class="node">
<title>Corpus</title>
<path fill="#ffb3ff" stroke="black" d="M910.25,-308.5C910.25,-308.5 841.75,-308.5 841.75,-308.5 835.75,-308.5 829.75,-302.5 829.75,-296.5 829.75,-296.5 829.75,-257 829.75,-257 829.75,-251 835.75,-245 841.75,-245 841.75,-245 910.25,-245 910.25,-245 916.25,-245 922.25,-251 922.25,-257 922.25,-257 922.25,-296.5 922.25,-296.5 922.25,-302.5 916.25,-308.5 910.25,-308.5"/>
<text xml:space="preserve" text-anchor="middle" x="876" y="-291.2" font-family="Helvetica,sans-Serif" font-size="14.00">语料库方法</text>
<text xml:space="preserve" text-anchor="middle" x="876" y="-270.95" font-family="Helvetica,sans-Serif" font-size="14.00">Corpus Ling.</text>
<text xml:space="preserve" text-anchor="middle" x="876" y="-255.95" font-family="Helvetica,sans-Serif" font-size="14.00">(方法)</text>
</g>
<!-- Corpus&#45;&gt;Typology -->
<g id="edge6" class="edge">
<title>Corpus&#45;&gt;Typology</title>
<path fill="none" stroke="black" d="M908.56,-244.71C922.49,-231.43 938.89,-215.79 953.59,-201.78"/>
<polygon fill="black" stroke="black" points="955.63,-204.67 960.45,-195.23 950.8,-199.6 955.63,-204.67"/>
<text xml:space="preserve" text-anchor="middle" x="952.56" y="-217.5" font-family="Helvetica,sans-Serif" font-size="10.00">用于</text>
</g>
<!-- Experiment -->
<g id="node14" class="node">
<title>Experiment</title>
<path fill="#ffb3ff" stroke="black" d="M799.75,-308.5C799.75,-308.5 728.25,-308.5 728.25,-308.5 722.25,-308.5 716.25,-302.5 716.25,-296.5 716.25,-296.5 716.25,-257 716.25,-257 716.25,-251 722.25,-245 728.25,-245 728.25,-245 799.75,-245 799.75,-245 805.75,-245 811.75,-251 811.75,-257 811.75,-257 811.75,-296.5 811.75,-296.5 811.75,-302.5 805.75,-308.5 799.75,-308.5"/>
<text xml:space="preserve" text-anchor="middle" x="764" y="-291.2" font-family="Helvetica,sans-Serif" font-size="14.00">实验方法</text>
<text xml:space="preserve" text-anchor="middle" x="764" y="-270.95" font-family="Helvetica,sans-Serif" font-size="14.00">Experimental</text>
<text xml:space="preserve" text-anchor="middle" x="764" y="-255.95" font-family="Helvetica,sans-Serif" font-size="14.00">(方法)</text>
</g>
<!-- FormalDesc -->
<g id="node15" class="node">
<title>FormalDesc</title>
<path fill="#ffb3ff" stroke="black" d="M686,-308.5C686,-308.5 580,-308.5 580,-308.5 574,-308.5 568,-302.5 568,-296.5 568,-296.5 568,-257 568,-257 568,-251 574,-245 580,-245 580,-245 686,-245 686,-245 692,-245 698,-251 698,-257 698,-257 698,-296.5 698,-296.5 698,-302.5 692,-308.5 686,-308.5"/>
<text xml:space="preserve" text-anchor="middle" x="633" y="-291.2" font-family="Helvetica,sans-Serif" font-size="14.00">形式化描写</text>
<text xml:space="preserve" text-anchor="middle" x="633" y="-270.95" font-family="Helvetica,sans-Serif" font-size="14.00">Formal Description</text>
<text xml:space="preserve" text-anchor="middle" x="633" y="-255.95" font-family="Helvetica,sans-Serif" font-size="14.00">(方法)</text>
</g>
<!-- FormalDesc&#45;&gt;Syntax -->
<g id="edge5" class="edge">
<title>FormalDesc&#45;&gt;Syntax</title>
<path fill="none" stroke="black" d="M571.27,-244.55C566.11,-241.99 560.97,-239.44 556,-237 517.27,-217.98 472.8,-196.75 441.64,-181.97"/>
<polygon fill="black" stroke="black" points="443.51,-178.98 432.97,-177.87 440.51,-185.31 443.51,-178.98"/>
<text xml:space="preserve" text-anchor="middle" x="545.63" y="-217.5" font-family="Helvetica,sans-Serif" font-size="10.00">用于</text>
</g>
<!-- L1 -->
<g id="node16" class="node">
<title>L1</title>
<path fill="#f5f5f5" stroke="none" d="M1176.12,-301C1176.12,-301 1085.88,-301 1085.88,-301 1079.88,-301 1073.88,-295 1073.88,-289 1073.88,-289 1073.88,-264.5 1073.88,-264.5 1073.88,-258.5 1079.88,-252.5 1085.88,-252.5 1085.88,-252.5 1176.12,-252.5 1176.12,-252.5 1182.12,-252.5 1188.12,-258.5 1188.12,-264.5 1188.12,-264.5 1188.12,-289 1188.12,-289 1188.12,-295 1182.12,-301 1176.12,-301"/>
<text xml:space="preserve" text-anchor="middle" x="1131" y="-283.7" font-family="Helvetica,sans-Serif" font-size="14.00">A → B [依赖]</text>
<text xml:space="preserve" text-anchor="middle" x="1131" y="-263.45" font-family="Helvetica,sans-Serif" font-size="14.00">读作：A 依赖 B</text>
</g>
<!-- L2 -->
<g id="node17" class="node">
<title>L2</title>
<path fill="#f5f5f5" stroke="none" d="M1308.12,-301C1308.12,-301 1217.88,-301 1217.88,-301 1211.88,-301 1205.88,-295 1205.88,-289 1205.88,-289 1205.88,-264.5 1205.88,-264.5 1205.88,-258.5 1211.88,-252.5 1217.88,-252.5 1217.88,-252.5 1308.12,-252.5 1308.12,-252.5 1314.12,-252.5 1320.12,-258.5 1320.12,-264.5 1320.12,-264.5 1320.12,-289 1320.12,-289 1320.12,-295 1314.12,-301 1308.12,-301"/>
<text xml:space="preserve" text-anchor="middle" x="1263" y="-283.7" font-family="Helvetica,sans-Serif" font-size="14.00">A → B [用于]</text>
<text xml:space="preserve" text-anchor="middle" x="1263" y="-263.45" font-family="Helvetica,sans-Serif" font-size="14.00">读作：A 用于 B</text>
</g>
<!-- L3 -->
<g id="node18" class="node">
<title>L3</title>
<path fill="#f5f5f5" stroke="none" d="M1458.12,-301C1458.12,-301 1349.88,-301 1349.88,-301 1343.88,-301 1337.88,-295 1337.88,-289 1337.88,-289 1337.88,-264.5 1337.88,-264.5 1337.88,-258.5 1343.88,-252.5 1349.88,-252.5 1349.88,-252.5 1458.12,-252.5 1458.12,-252.5 1464.12,-252.5 1470.12,-258.5 1470.12,-264.5 1470.12,-264.5 1470.12,-289 1470.12,-289 1470.12,-295 1464.12,-301 1458.12,-301"/>
<text xml:space="preserve" text-anchor="middle" x="1404" y="-283.7" font-family="Helvetica,sans-Serif" font-size="14.00">A ↔ B [对比]</text>
<text xml:space="preserve" text-anchor="middle" x="1404" y="-263.45" font-family="Helvetica,sans-Serif" font-size="14.00">读作：A 与 B 对比</text>
</g>
<!-- L4 -->
<g id="node19" class="node">
<title>L4</title>
<path fill="#f5f5f5" stroke="none" d="M1608.12,-301C1608.12,-301 1499.88,-301 1499.88,-301 1493.88,-301 1487.88,-295 1487.88,-289 1487.88,-289 1487.88,-264.5 1487.88,-264.5 1487.88,-258.5 1493.88,-252.5 1499.88,-252.5 1499.88,-252.5 1608.12,-252.5 1608.12,-252.5 1614.12,-252.5 1620.12,-258.5 1620.12,-264.5 1620.12,-264.5 1620.12,-289 1620.12,-289 1620.12,-295 1614.12,-301 1608.12,-301"/>
<text xml:space="preserve" text-anchor="middle" x="1554" y="-283.7" font-family="Helvetica,sans-Serif" font-size="14.00">A → B [类比]</text>
<text xml:space="preserve" text-anchor="middle" x="1554" y="-263.45" font-family="Helvetica,sans-Serif" font-size="14.00">读作：A 与 B 类比</text>
</g>
</g>
</svg>
