<?xml version="1.0" encoding="UTF-8" standalone="no"?>
<!DOCTYPE svg PUBLIC "-//W3C//DTD SVG 1.1//EN"
 "http://www.w3.org/Graphics/SVG/1.1/DTD/svg11.dtd">
<!-- Generated by graphviz version 14.1.3 (20260303.0454)
 -->
<!-- Title: FactorModelsKnowledgeGraph Pages: 1 -->
<svg width="996pt" height="575pt"
 viewBox="0.00 0.00 996.00 575.00" xmlns="http://www.w3.org/2000/svg" xmlns:xlink="http://www.w3.org/1999/xlink">
<g id="graph0" class="graph" transform="scale(1 1) rotate(0) translate(4 570.75)">
<title>FactorModelsKnowledgeGraph</title>
<polygon fill="white" stroke="none" points="-4,4 -4,-570.75 992,-570.75 992,4 -4,4"/>
<g id="clust1" class="cluster">
<title>cluster_legend</title>
<polygon fill="none" stroke="#b3b3b3" stroke-dasharray="5,2" points="8,-341.25 8,-542 211,-542 211,-341.25 8,-341.25"/>
<text xml:space="preserve" text-anchor="middle" x="109.5" y="-526.6" font-family="Helvetica,sans-Serif" font-size="12.00">关系图例</text>
</g>
<g id="clust2" class="cluster">
<title>cluster_D1</title>
<polygon fill="#e8f5e9" stroke="#e8f5e9" points="399,-8 399,-200.25 608,-200.25 608,-8 399,-8"/>
<text xml:space="preserve" text-anchor="middle" x="503.5" y="-182.95" font-family="Helvetica,sans-Serif" font-size="14.00">D1 金融基础</text>
</g>
<g id="clust3" class="cluster">
<title>cluster_D2</title>
<polygon fill="#e3f2fd" stroke="#e3f2fd" points="219,-233.25 219,-558.75 425,-558.75 425,-233.25 219,-233.25"/>
<text xml:space="preserve" text-anchor="middle" x="322" y="-541.45" font-family="Helvetica,sans-Serif" font-size="14.00">D2 因子定价理论</text>
</g>
<g id="clust4" class="cluster">
<title>cluster_D3</title>
<polygon fill="#fff3e0" stroke="#fff3e0" points="433,-335 433,-551.25 810,-551.25 810,-335 433,-335"/>
<text xml:space="preserve" text-anchor="middle" x="621.5" y="-533.95" font-family="Helvetica,sans-Serif" font-size="14.00">D3 因子实证</text>
</g>
<g id="clust5" class="cluster">
<title>cluster_D4</title>
<polygon fill="#fce4ec" stroke="#fce4ec" points="818,-458.5 818,-551.25 980,-551.25 980,-458.5 818,-458.5"/>
<text xml:space="preserve" text-anchor="middle" x="899" y="-533.95" font-family="Helvetica,sans-Serif" font-size="14.00">D4 实操与应用</text>
</g>
<!-- leg_dep1 -->
<!-- leg_dep2 -->
<!-- leg_dep1&#45;&gt;leg_dep2 -->
<g id="edge1" class="edge">
<title>leg_dep1&#45;&gt;leg_dep2</title>
<path fill="none" stroke="black" d="M34,-472.34C34,-452.67 34,-420.36 34,-396.94"/>
<polygon fill="black" stroke="black" points="37.5,-397.14 34,-387.14 30.5,-397.14 37.5,-397.14"/>
<text xml:space="preserve" text-anchor="middle" x="53.12" y="-433.4" font-family="Helvetica,sans-Serif" font-size="8.00">依赖</text>
<text xml:space="preserve" text-anchor="middle" x="53.12" y="-421.4" font-family="Helvetica,sans-Serif" font-size="8.00">(A 依赖 B)</text>
</g>
<!-- leg_gen1 -->
<!-- leg_gen2 -->
<!-- leg_gen1&#45;&gt;leg_gen2 -->
<g id="edge2" class="edge">
<title>leg_gen1&#45;&gt;leg_gen2</title>
<path fill="none" stroke="black" stroke-width="2" d="M95,-472.34C95,-453.12 95,-421.83 95,-398.57"/>
<polygon fill="black" stroke="black" stroke-width="2" points="98.5,-398.65 95,-388.65 91.5,-398.65 98.5,-398.65"/>
<text xml:space="preserve" text-anchor="middle" x="118.25" y="-433.4" font-family="Helvetica,sans-Serif" font-size="8.00">推广了</text>
<text xml:space="preserve" text-anchor="middle" x="118.25" y="-421.4" font-family="Helvetica,sans-Serif" font-size="8.00">(A 推广了 B)</text>
</g>
<!-- leg_comp1 -->
<!-- leg_comp2 -->
<!-- leg_comp1&#45;&gt;leg_comp2 -->
<g id="edge3" class="edge">
<title>leg_comp1&#45;&gt;leg_comp2</title>
<path fill="none" stroke="black" stroke-dasharray="5,2" d="M165,-461.02C165,-441.71 165,-416.37 165,-397.05"/>
<polygon fill="black" stroke="black" points="161.5,-460.83 165,-470.83 168.5,-460.83 161.5,-460.83"/>
<polygon fill="black" stroke="black" points="168.5,-397.14 165,-387.14 161.5,-397.14 168.5,-397.14"/>
<text xml:space="preserve" text-anchor="middle" x="184.12" y="-433.4" font-family="Helvetica,sans-Serif" font-size="8.00">对比</text>
<text xml:space="preserve" text-anchor="middle" x="184.12" y="-421.4" font-family="Helvetica,sans-Serif" font-size="8.00">(A 对比 B)</text>
</g>
<!-- return -->
<g id="node7" class="node">
<title>return</title>
<path fill="#a5d6a7" stroke="black" d="M552.38,-64.5C552.38,-64.5 517.62,-64.5 517.62,-64.5 511.62,-64.5 505.62,-58.5 505.62,-52.5 505.62,-52.5 505.62,-28 505.62,-28 505.62,-22 511.62,-16 517.62,-16 517.62,-16 552.38,-16 552.38,-16 558.38,-16 564.38,-22 564.38,-28 564.38,-28 564.38,-52.5 564.38,-52.5 564.38,-58.5 558.38,-64.5 552.38,-64.5"/>
<text xml:space="preserve" text-anchor="middle" x="535" y="-47.2" font-family="Helvetica,sans-Serif" font-size="14.00">收益率</text>
<text xml:space="preserve" text-anchor="middle" x="535" y="-26.95" font-family="Helvetica,sans-Serif" font-size="14.00">(概念)</text>
</g>
<!-- risk -->
<g id="node8" class="node">
<title>risk</title>
<path fill="#a5d6a7" stroke="black" d="M449,-64.5C449,-64.5 419,-64.5 419,-64.5 413,-64.5 407,-58.5 407,-52.5 407,-52.5 407,-28 407,-28 407,-22 413,-16 419,-16 419,-16 449,-16 449,-16 455,-16 461,-22 461,-28 461,-28 461,-52.5 461,-52.5 461,-58.5 455,-64.5 449,-64.5"/>
<text xml:space="preserve" text-anchor="middle" x="434" y="-47.2" font-family="Helvetica,sans-Serif" font-size="14.00">风险</text>
<text xml:space="preserve" text-anchor="middle" x="434" y="-26.95" font-family="Helvetica,sans-Serif" font-size="14.00">(概念)</text>
</g>
<!-- portfolio -->
<g id="node9" class="node">
<title>portfolio</title>
<path fill="#a5d6a7" stroke="black" d="M496.75,-164C496.75,-164 419.25,-164 419.25,-164 413.25,-164 407.25,-158 407.25,-152 407.25,-152 407.25,-127.5 407.25,-127.5 407.25,-121.5 413.25,-115.5 419.25,-115.5 419.25,-115.5 496.75,-115.5 496.75,-115.5 502.75,-115.5 508.75,-121.5 508.75,-127.5 508.75,-127.5 508.75,-152 508.75,-152 508.75,-158 502.75,-164 496.75,-164"/>
<text xml:space="preserve" text-anchor="middle" x="458" y="-146.7" font-family="Helvetica,sans-Serif" font-size="14.00">投资组合理论</text>
<text xml:space="preserve" text-anchor="middle" x="458" y="-126.45" font-family="Helvetica,sans-Serif" font-size="14.00">(理论)</text>
</g>
<!-- portfolio&#45;&gt;return -->
<g id="edge6" class="edge">
<title>portfolio&#45;&gt;return</title>
<path fill="none" stroke="black" d="M462.51,-115.01C465.38,-104.33 469.93,-92.01 477,-82.5 482.23,-75.46 489.03,-69.15 496.11,-63.71"/>
<polygon fill="black" stroke="black" points="497.79,-66.81 503.91,-58.16 493.73,-61.1 497.79,-66.81"/>
<text xml:space="preserve" text-anchor="middle" x="487.5" y="-88" font-family="Helvetica,sans-Serif" font-size="10.00">依赖</text>
</g>
<!-- portfolio&#45;&gt;risk -->
<g id="edge7" class="edge">
<title>portfolio&#45;&gt;risk</title>
<path fill="none" stroke="black" d="M440.84,-115.34C437.61,-109.76 434.71,-103.63 433,-97.5 431.11,-90.73 430.36,-83.32 430.26,-76.16"/>
<polygon fill="black" stroke="black" points="433.75,-76.51 430.55,-66.41 426.75,-76.3 433.75,-76.51"/>
<text xml:space="preserve" text-anchor="middle" x="443.5" y="-88" font-family="Helvetica,sans-Serif" font-size="10.00">依赖</text>
</g>
<!-- sharpe -->
<g id="node10" class="node">
<title>sharpe</title>
<path fill="#a5d6a7" stroke="black" d="M587.5,-164C587.5,-164 538.5,-164 538.5,-164 532.5,-164 526.5,-158 526.5,-152 526.5,-152 526.5,-127.5 526.5,-127.5 526.5,-121.5 532.5,-115.5 538.5,-115.5 538.5,-115.5 587.5,-115.5 587.5,-115.5 593.5,-115.5 599.5,-121.5 599.5,-127.5 599.5,-127.5 599.5,-152 599.5,-152 599.5,-158 593.5,-164 587.5,-164"/>
<text xml:space="preserve" text-anchor="middle" x="563" y="-146.7" font-family="Helvetica,sans-Serif" font-size="14.00">夏普比率</text>
<text xml:space="preserve" text-anchor="middle" x="563" y="-126.45" font-family="Helvetica,sans-Serif" font-size="14.00">(方法)</text>
</g>
<!-- sharpe&#45;&gt;return -->
<g id="edge8" class="edge">
<title>sharpe&#45;&gt;return</title>
<path fill="none" stroke="black" d="M556.22,-115.15C552.84,-103.38 548.69,-88.92 544.96,-75.92"/>
<polygon fill="black" stroke="black" points="548.35,-75.07 542.23,-66.43 541.63,-77 548.35,-75.07"/>
<text xml:space="preserve" text-anchor="middle" x="561.18" y="-88" font-family="Helvetica,sans-Serif" font-size="10.00">依赖</text>
</g>
<!-- sharpe&#45;&gt;risk -->
<g id="edge9" class="edge">
<title>sharpe&#45;&gt;risk</title>
<path fill="none" stroke="black" d="M537.45,-115.17C525.74,-104.76 511.5,-92.61 498,-82.5 489.45,-76.1 479.93,-69.63 470.89,-63.77"/>
<polygon fill="black" stroke="black" points="472.94,-60.93 462.63,-58.5 469.18,-66.83 472.94,-60.93"/>
<text xml:space="preserve" text-anchor="middle" x="527" y="-88" font-family="Helvetica,sans-Serif" font-size="10.00">依赖</text>
</g>
<!-- capm -->
<g id="node11" class="node">
<title>capm</title>
<path fill="#90caf9" stroke="black" d="M383.88,-284.5C383.88,-284.5 352.12,-284.5 352.12,-284.5 346.12,-284.5 340.12,-278.5 340.12,-272.5 340.12,-272.5 340.12,-253.25 340.12,-253.25 340.12,-247.25 346.12,-241.25 352.12,-241.25 352.12,-241.25 383.88,-241.25 383.88,-241.25 389.88,-241.25 395.88,-247.25 395.88,-253.25 395.88,-253.25 395.88,-272.5 395.88,-272.5 395.88,-278.5 389.88,-284.5 383.88,-284.5"/>
<text xml:space="preserve" text-anchor="middle" x="368" y="-267.2" font-family="Helvetica,sans-Serif" font-size="14.00">CAPM</text>
<text xml:space="preserve" text-anchor="middle" x="368" y="-252.2" font-family="Helvetica,sans-Serif" font-size="14.00">(理论)</text>
</g>
<!-- capm&#45;&gt;risk -->
<g id="edge5" class="edge">
<title>capm&#45;&gt;risk</title>
<path fill="none" stroke="black" d="M365.57,-241.21C362.97,-212.13 361.12,-157.95 377,-115.5 382.73,-100.19 392.76,-85.45 402.82,-73.19"/>
<polygon fill="black" stroke="black" points="405.24,-75.75 409.1,-65.88 399.93,-71.18 405.24,-75.75"/>
<text xml:space="preserve" text-anchor="middle" x="387.5" y="-137.75" font-family="Helvetica,sans-Serif" font-size="10.00">依赖</text>
</g>
<!-- capm&#45;&gt;portfolio -->
<g id="edge4" class="edge">
<title>capm&#45;&gt;portfolio</title>
<path fill="none" stroke="black" d="M383.68,-240.78C397.54,-222.12 417.98,-194.61 433.92,-173.16"/>
<polygon fill="black" stroke="black" points="436.6,-175.42 439.76,-165.3 430.98,-171.24 436.6,-175.42"/>
<text xml:space="preserve" text-anchor="middle" x="418.11" y="-213.75" font-family="Helvetica,sans-Serif" font-size="10.00">依赖</text>
</g>
<!-- apt -->
<g id="node12" class="node">
<title>apt</title>
<path fill="#90caf9" stroke="black" d="M269,-388.88C269,-388.88 239,-388.88 239,-388.88 233,-388.88 227,-382.88 227,-376.88 227,-376.88 227,-357.62 227,-357.62 227,-351.62 233,-345.62 239,-345.62 239,-345.62 269,-345.62 269,-345.62 275,-345.62 281,-351.62 281,-357.62 281,-357.62 281,-376.88 281,-376.88 281,-382.88 275,-388.88 269,-388.88"/>
<text xml:space="preserve" text-anchor="middle" x="254" y="-371.57" font-family="Helvetica,sans-Serif" font-size="14.00">APT</text>
<text xml:space="preserve" text-anchor="middle" x="254" y="-356.57" font-family="Helvetica,sans-Serif" font-size="14.00">(理论)</text>
</g>
<!-- apt&#45;&gt;capm -->
<g id="edge10" class="edge">
<title>apt&#45;&gt;capm</title>
<path fill="none" stroke="black" stroke-width="2" d="M277.34,-345.29C294.02,-330.31 316.68,-309.96 335.18,-293.35"/>
<polygon fill="black" stroke="black" stroke-width="2" points="337.33,-296.12 342.43,-286.83 332.66,-290.91 337.33,-296.12"/>
<text xml:space="preserve" text-anchor="middle" x="340.31" y="-308" font-family="Helvetica,sans-Serif" font-size="10.00">推广了</text>
</g>
<!-- ff3 -->
<g id="node13" class="node">
<title>ff3</title>
<path fill="#90caf9" stroke="black" d="M404.88,-399C404.88,-399 331.12,-399 331.12,-399 325.12,-399 319.12,-393 319.12,-387 319.12,-387 319.12,-347.5 319.12,-347.5 319.12,-341.5 325.12,-335.5 331.12,-335.5 331.12,-335.5 404.88,-335.5 404.88,-335.5 410.88,-335.5 416.88,-341.5 416.88,-347.5 416.88,-347.5 416.88,-387 416.88,-387 416.88,-393 410.88,-399 404.88,-399"/>
<text xml:space="preserve" text-anchor="middle" x="368" y="-381.7" font-family="Helvetica,sans-Serif" font-size="14.00">Fama&#45;French</text>
<text xml:space="preserve" text-anchor="middle" x="368" y="-366.7" font-family="Helvetica,sans-Serif" font-size="14.00">三因子</text>
<text xml:space="preserve" text-anchor="middle" x="368" y="-346.45" font-family="Helvetica,sans-Serif" font-size="14.00">(理论)</text>
</g>
<!-- apt&#45;&gt;ff3 -->
<g id="edge17" class="edge">
<title>apt&#45;&gt;ff3</title>
<path fill="none" stroke="black" stroke-dasharray="5,2" d="M292.77,-367.25C297.66,-367.25 302.75,-367.25 307.87,-367.25"/>
<polygon fill="black" stroke="black" points="292.82,-363.75 282.82,-367.25 292.82,-370.75 292.82,-363.75"/>
<polygon fill="black" stroke="black" points="307.56,-370.75 317.56,-367.25 307.56,-363.75 307.56,-370.75"/>
<text xml:space="preserve" text-anchor="middle" x="300.06" y="-375.75" font-family="Helvetica,sans-Serif" font-size="10.00">对比</text>
</g>
<!-- ff3&#45;&gt;capm -->
<g id="edge11" class="edge">
<title>ff3&#45;&gt;capm</title>
<path fill="none" stroke="black" stroke-width="2" d="M368,-335.26C368,-323.37 368,-309.75 368,-297.62"/>
<polygon fill="black" stroke="black" stroke-width="2" points="371.5,-297.75 368,-287.75 364.5,-297.75 371.5,-297.75"/>
<text xml:space="preserve" text-anchor="middle" x="383.75" y="-308" font-family="Helvetica,sans-Serif" font-size="10.00">推广了</text>
</g>
<!-- ff5 -->
<g id="node14" class="node">
<title>ff5</title>
<path fill="#90caf9" stroke="black" d="M404.88,-522.5C404.88,-522.5 331.12,-522.5 331.12,-522.5 325.12,-522.5 319.12,-516.5 319.12,-510.5 319.12,-510.5 319.12,-471 319.12,-471 319.12,-465 325.12,-459 331.12,-459 331.12,-459 404.88,-459 404.88,-459 410.88,-459 416.88,-465 416.88,-471 416.88,-471 416.88,-510.5 416.88,-510.5 416.88,-516.5 410.88,-522.5 404.88,-522.5"/>
<text xml:space="preserve" text-anchor="middle" x="368" y="-505.2" font-family="Helvetica,sans-Serif" font-size="14.00">Fama&#45;French</text>
<text xml:space="preserve" text-anchor="middle" x="368" y="-490.2" font-family="Helvetica,sans-Serif" font-size="14.00">五因子</text>
<text xml:space="preserve" text-anchor="middle" x="368" y="-469.95" font-family="Helvetica,sans-Serif" font-size="14.00">(理论)</text>
</g>
<!-- ff5&#45;&gt;ff3 -->
<g id="edge12" class="edge">
<title>ff5&#45;&gt;ff3</title>
<path fill="none" stroke="black" stroke-width="2" d="M368,-458.78C368,-444.49 368,-427.3 368,-411.74"/>
<polygon fill="black" stroke="black" stroke-width="2" points="371.5,-412.19 368,-402.19 364.5,-412.19 371.5,-412.19"/>
<text xml:space="preserve" text-anchor="middle" x="383.75" y="-427" font-family="Helvetica,sans-Serif" font-size="10.00">推广了</text>
</g>
<!-- value -->
<g id="node15" class="node">
<title>value</title>
<path fill="#ffcc80" stroke="black" d="M593.5,-515C593.5,-515 544.5,-515 544.5,-515 538.5,-515 532.5,-509 532.5,-503 532.5,-503 532.5,-478.5 532.5,-478.5 532.5,-472.5 538.5,-466.5 544.5,-466.5 544.5,-466.5 593.5,-466.5 593.5,-466.5 599.5,-466.5 605.5,-472.5 605.5,-478.5 605.5,-478.5 605.5,-503 605.5,-503 605.5,-509 599.5,-515 593.5,-515"/>
<text xml:space="preserve" text-anchor="middle" x="569" y="-497.7" font-family="Helvetica,sans-Serif" font-size="14.00">价值因子</text>
<text xml:space="preserve" text-anchor="middle" x="569" y="-477.45" font-family="Helvetica,sans-Serif" font-size="14.00">(概念)</text>
</g>
<!-- value&#45;&gt;ff3 -->
<g id="edge13" class="edge">
<title>value&#45;&gt;ff3</title>
<path fill="none" stroke="black" stroke-width="2" d="M535.2,-466.04C531.44,-463.47 527.65,-460.91 524,-458.5 495.1,-439.39 487.92,-434.48 458,-417 448.63,-411.52 438.6,-405.88 428.77,-400.47"/>
<polygon fill="black" stroke="black" stroke-width="2" points="430.48,-397.42 420.02,-395.7 427.12,-403.56 430.48,-397.42"/>
<text xml:space="preserve" text-anchor="middle" x="507.4" y="-427" font-family="Helvetica,sans-Serif" font-size="10.00">属于</text>
</g>
<!-- momentum -->
<g id="node16" class="node">
<title>momentum</title>
<path fill="#ffcc80" stroke="black" d="M593.5,-391.5C593.5,-391.5 544.5,-391.5 544.5,-391.5 538.5,-391.5 532.5,-385.5 532.5,-379.5 532.5,-379.5 532.5,-355 532.5,-355 532.5,-349 538.5,-343 544.5,-343 544.5,-343 593.5,-343 593.5,-343 599.5,-343 605.5,-349 605.5,-355 605.5,-355 605.5,-379.5 605.5,-379.5 605.5,-385.5 599.5,-391.5 593.5,-391.5"/>
<text xml:space="preserve" text-anchor="middle" x="569" y="-374.2" font-family="Helvetica,sans-Serif" font-size="14.00">动量因子</text>
<text xml:space="preserve" text-anchor="middle" x="569" y="-353.95" font-family="Helvetica,sans-Serif" font-size="14.00">(概念)</text>
</g>
<!-- value&#45;&gt;momentum -->
<g id="edge16" class="edge">
<title>value&#45;&gt;momentum</title>
<path fill="none" stroke="black" stroke-dasharray="5,2" d="M569,-454.78C569,-438.55 569,-419.31 569,-403.09"/>
<polygon fill="black" stroke="black" points="565.5,-454.52 569,-464.52 572.5,-454.52 565.5,-454.52"/>
<polygon fill="black" stroke="black" points="572.5,-403.42 569,-393.42 565.5,-403.42 572.5,-403.42"/>
<text xml:space="preserve" text-anchor="middle" x="579.5" y="-427" font-family="Helvetica,sans-Serif" font-size="10.00">对比</text>
</g>
<!-- momentum&#45;&gt;ff3 -->
<g id="edge15" class="edge">
<title>momentum&#45;&gt;ff3</title>
<path fill="none" stroke="black" d="M532.31,-367.25C503.3,-367.25 462.18,-367.25 428.34,-367.25"/>
<polygon fill="black" stroke="black" points="428.68,-363.75 418.68,-367.25 428.68,-370.75 428.68,-363.75"/>
<text xml:space="preserve" text-anchor="middle" x="474.69" y="-375.75" font-family="Helvetica,sans-Serif" font-size="10.00">用于</text>
</g>
<!-- size -->
<g id="node17" class="node">
<title>size</title>
<path fill="#ffcc80" stroke="black" d="M502.5,-515C502.5,-515 453.5,-515 453.5,-515 447.5,-515 441.5,-509 441.5,-503 441.5,-503 441.5,-478.5 441.5,-478.5 441.5,-472.5 447.5,-466.5 453.5,-466.5 453.5,-466.5 502.5,-466.5 502.5,-466.5 508.5,-466.5 514.5,-472.5 514.5,-478.5 514.5,-478.5 514.5,-503 514.5,-503 514.5,-509 508.5,-515 502.5,-515"/>
<text xml:space="preserve" text-anchor="middle" x="478" y="-497.7" font-family="Helvetica,sans-Serif" font-size="14.00">规模因子</text>
<text xml:space="preserve" text-anchor="middle" x="478" y="-477.45" font-family="Helvetica,sans-Serif" font-size="14.00">(概念)</text>
</g>
<!-- size&#45;&gt;ff3 -->
<g id="edge14" class="edge">
<title>size&#45;&gt;ff3</title>
<path fill="none" stroke="black" stroke-width="2" d="M456.53,-466.04C441.83,-449.8 421.98,-427.87 404.79,-408.89"/>
<polygon fill="black" stroke="black" stroke-width="2" points="407.43,-406.58 398.12,-401.52 402.24,-411.28 407.43,-406.58"/>
<text xml:space="preserve" text-anchor="middle" x="443.35" y="-427" font-family="Helvetica,sans-Serif" font-size="10.00">属于</text>
</g>
<!-- quality -->
<g id="node18" class="node">
<title>quality</title>
<path fill="#ffcc80" stroke="black" d="M684.5,-515C684.5,-515 635.5,-515 635.5,-515 629.5,-515 623.5,-509 623.5,-503 623.5,-503 623.5,-478.5 623.5,-478.5 623.5,-472.5 629.5,-466.5 635.5,-466.5 635.5,-466.5 684.5,-466.5 684.5,-466.5 690.5,-466.5 696.5,-472.5 696.5,-478.5 696.5,-478.5 696.5,-503 696.5,-503 696.5,-509 690.5,-515 684.5,-515"/>
<text xml:space="preserve" text-anchor="middle" x="660" y="-497.7" font-family="Helvetica,sans-Serif" font-size="14.00">质量因子</text>
<text xml:space="preserve" text-anchor="middle" x="660" y="-477.45" font-family="Helvetica,sans-Serif" font-size="14.00">(概念)</text>
</g>
<!-- factor_zoo -->
<g id="node19" class="node">
<title>factor_zoo</title>
<path fill="#ffcc80" stroke="black" d="M789.62,-515C789.62,-515 726.38,-515 726.38,-515 720.38,-515 714.38,-509 714.38,-503 714.38,-503 714.38,-478.5 714.38,-478.5 714.38,-472.5 720.38,-466.5 726.38,-466.5 726.38,-466.5 789.62,-466.5 789.62,-466.5 795.62,-466.5 801.62,-472.5 801.62,-478.5 801.62,-478.5 801.62,-503 801.62,-503 801.62,-509 795.62,-515 789.62,-515"/>
<text xml:space="preserve" text-anchor="middle" x="758" y="-497.7" font-family="Helvetica,sans-Serif" font-size="14.00">因子动物园</text>
<text xml:space="preserve" text-anchor="middle" x="758" y="-477.45" font-family="Helvetica,sans-Serif" font-size="14.00">(概念)</text>
</g>
<!-- backtest -->
<g id="node20" class="node">
<title>backtest</title>
<path fill="#f48fb1" stroke="black" d="M868,-515C868,-515 838,-515 838,-515 832,-515 826,-509 826,-503 826,-503 826,-478.5 826,-478.5 826,-472.5 832,-466.5 838,-466.5 838,-466.5 868,-466.5 868,-466.5 874,-466.5 880,-472.5 880,-478.5 880,-478.5 880,-503 880,-503 880,-509 874,-515 868,-515"/>
<text xml:space="preserve" text-anchor="middle" x="853" y="-497.7" font-family="Helvetica,sans-Serif" font-size="14.00">回测</text>
<text xml:space="preserve" text-anchor="middle" x="853" y="-477.45" font-family="Helvetica,sans-Serif" font-size="14.00">(方法)</text>
</g>
<!-- backtest&#45;&gt;ff3 -->
<g id="edge18" class="edge">
<title>backtest&#45;&gt;ff3</title>
<path fill="none" stroke="black" d="M847.04,-466.13C841.47,-449.35 831.33,-427.93 814,-417 777.78,-394.15 470.42,-409.88 429,-399 428.63,-398.9 428.27,-398.81 427.9,-398.7"/>
<polygon fill="black" stroke="black" points="429.29,-395.48 418.7,-395.68 427.1,-402.13 429.29,-395.48"/>
<text xml:space="preserve" text-anchor="middle" x="845.47" y="-427" font-family="Helvetica,sans-Serif" font-size="10.00">用于</text>
</g>
<!-- portfolio_opt -->
<g id="node21" class="node">
<title>portfolio_opt</title>
<path fill="#f48fb1" stroke="black" d="M959.5,-515C959.5,-515 910.5,-515 910.5,-515 904.5,-515 898.5,-509 898.5,-503 898.5,-503 898.5,-478.5 898.5,-478.5 898.5,-472.5 904.5,-466.5 910.5,-466.5 910.5,-466.5 959.5,-466.5 959.5,-466.5 965.5,-466.5 971.5,-472.5 971.5,-478.5 971.5,-478.5 971.5,-503 971.5,-503 971.5,-509 965.5,-515 959.5,-515"/>
<text xml:space="preserve" text-anchor="middle" x="935" y="-497.7" font-family="Helvetica,sans-Serif" font-size="14.00">组合优化</text>
<text xml:space="preserve" text-anchor="middle" x="935" y="-477.45" font-family="Helvetica,sans-Serif" font-size="14.00">(方法)</text>
</g>
<!-- portfolio_opt&#45;&gt;sharpe -->
<g id="edge19" class="edge">
<title>portfolio_opt&#45;&gt;sharpe</title>
<path fill="none" stroke="black" d="M919.4,-466.26C897.78,-434.6 856.55,-377.34 814,-335 748.36,-269.69 660.75,-206.42 608.29,-170.66"/>
<polygon fill="black" stroke="black" points="610.41,-167.87 600.17,-165.15 606.48,-173.66 610.41,-167.87"/>
<text xml:space="preserve" text-anchor="middle" x="805.51" y="-308" font-family="Helvetica,sans-Serif" font-size="10.00">用于</text>
</g>
</g>
</svg>
